<?xml version="1.0" standalone="no"?>
<!DOCTYPE svg PUBLIC "-//W3C//DTD SVG 20010904//EN"
 "http://www.w3.org/TR/2001/REC-SVG-20010904/DTD/svg10.dtd">
<svg version="1.0" xmlns="http://www.w3.org/2000/svg"
 width="512.000000pt" height="512.000000pt" viewBox="0 0 512.000000 512.000000"
 preserveAspectRatio="xMidYMid meet">

<g transform="translate(0.000000,512.000000) scale(0.100000,-0.100000)"
fill="#000000" stroke="none">
<path d="M2019 5106 c-56 -20 -96 -53 -126 -104 l-28 -47 -5 -335 -5 -335
-159 -338 c-184 -391 -170 -336 -181 -753 -5 -180 -4 -268 4 -282 13 -25 60
-42 88 -31 47 17 50 35 61 364 l10 310 152 325 c83 179 158 350 166 380 11 41
14 128 14 355 1 315 1 319 47 343 16 9 326 12 1213 12 l1192 0 29 -29 29 -29
0 -309 c0 -190 4 -323 11 -348 6 -22 80 -189 165 -370 l154 -331 51 -1623 51
-1623 -24 -46 c-14 -27 -42 -59 -67 -77 l-43 -30 -876 -3 -877 -2 3 57 c2 38
-17 175 -57 403 -34 189 -61 347 -61 351 0 3 26 9 59 12 32 4 89 18 127 33
133 50 131 50 211 16 96 -41 176 -56 270 -50 185 12 348 121 432 290 134 265
26 575 -246 712 -41 20 -61 40 -98 95 -214 323 -676 320 -886 -5 -36 -56 -52
-70 -113 -101 -85 -44 -179 -135 -220 -213 -16 -30 -31 -57 -32 -59 -2 -2 -30
8 -63 23 -131 59 -314 52 -448 -18 -28 -14 -34 -13 -91 10 -33 13 -98 29 -144
35 -46 6 -84 12 -85 13 -2 1 4 199 12 440 10 318 11 443 3 461 -23 50 -102 54
-128 5 -7 -12 -16 -180 -25 -441 -7 -231 -16 -423 -18 -426 -3 -2 -22 4 -44
15 -136 68 -355 90 -404 41 -26 -26 -25 -81 2 -105 17 -15 43 -20 123 -25 122
-7 195 -31 289 -96 57 -38 75 -46 105 -42 20 2 78 3 127 4 85 0 94 -2 163 -37
41 -21 80 -38 87 -38 8 0 43 15 77 34 35 19 85 40 111 47 l49 12 54 -54 c54
-52 115 -158 128 -222 l6 -27 -866 0 -866 0 6 28 c18 75 81 179 153 250 82 82
91 111 49 152 -33 30 -68 28 -118 -6 -108 -75 -208 -242 -243 -406 -5 -27 -8
-28 -63 -28 -34 0 -74 -8 -98 -19 -45 -21 -99 -80 -114 -126 -15 -50 -160
-891 -160 -932 1 -81 77 -180 157 -202 26 -8 745 -11 2329 -11 2526 0 2340 -5
2440 63 66 44 119 117 139 192 16 59 15 133 -29 1561 -25 824 -50 1564 -55
1644 l-8 145 -159 335 -158 335 -6 340 c-6 377 -4 369 -76 439 -72 70 5 66
-1333 66 -959 -1 -1213 -4 -1242 -14z m1399 -2981 c68 -31 124 -84 185 -175
37 -57 52 -70 122 -108 135 -72 202 -157 226 -286 29 -158 -58 -324 -209 -398
-61 -30 -74 -33 -162 -33 -87 0 -101 3 -170 34 -105 48 -185 49 -288 3 -44
-20 -96 -35 -135 -39 l-62 -5 -18 40 c-24 55 -87 109 -143 124 -26 7 -48 17
-49 23 -2 5 -13 42 -24 82 -13 44 -39 98 -67 138 l-45 67 29 63 c39 83 91 133
192 186 78 40 85 47 135 125 62 96 120 144 210 174 83 28 191 22 273 -15z
m-878 -1007 c5 -13 44 -220 85 -460 58 -333 74 -444 67 -470 l-8 -33 -1220 -3
c-854 -1 -1227 1 -1245 9 -54 22 -54 25 26 485 41 234 75 429 75 434 0 4 9 19
21 34 l20 26 1085 0 1084 0 10 -22z"/>
<path d="M1280 1021 c-121 -40 -202 -162 -185 -279 12 -80 50 -133 218 -300
174 -172 202 -190 270 -171 38 10 364 333 392 388 27 53 31 142 10 197 -63
167 -261 225 -401 118 l-42 -33 -19 21 c-45 50 -174 82 -243 59z m165 -201
c91 -87 109 -87 197 -4 52 50 73 60 118 55 31 -4 60 -25 75 -58 27 -56 10 -83
-148 -241 l-143 -142 -147 148 c-141 143 -147 150 -147 189 0 30 7 50 25 72
46 54 99 49 170 -19z"/>
<path d="M2231 4674 c-28 -36 -26 -60 8 -95 l29 -29 597 0 c503 0 600 2 624
15 46 23 54 66 20 109 l-20 26 -619 0 -619 0 -20 -26z"/>
<path d="M3730 4680 c-27 -27 -26 -81 1 -106 19 -17 42 -19 273 -22 244 -3
253 -2 279 18 21 17 27 30 27 60 0 68 -8 70 -302 70 -245 0 -259 -1 -278 -20z"/>
<path d="M2827 3186 c-78 -28 -139 -92 -163 -173 -20 -66 -19 -303 2 -372 28
-97 140 -181 239 -181 95 0 187 57 233 144 26 50 27 55 27 226 0 164 -1 178
-24 223 -57 115 -197 174 -314 133z m131 -150 c49 -25 57 -55 57 -210 0 -163
-9 -187 -76 -208 -33 -9 -45 -9 -75 5 -52 25 -64 64 -64 205 0 137 10 176 54
203 37 23 67 24 104 5z"/>
<path d="M3550 3191 c-69 -21 -131 -74 -166 -141 -27 -50 -33 -323 -9 -405 39
-136 178 -212 316 -172 71 21 121 65 156 135 27 55 28 61 28 222 0 161 -1 167
-28 222 -16 32 -45 71 -65 88 -62 51 -160 73 -232 51z m143 -181 c27 -30 27
-31 27 -179 0 -145 -1 -150 -25 -179 -32 -39 -72 -48 -119 -28 -54 22 -66 60
-66 204 0 66 5 134 11 151 26 74 118 90 172 31z"/>
<path d="M2280 2729 c-68 -13 -130 -57 -167 -118 -45 -75 -50 -123 -24 -229
61 -246 90 -301 183 -348 102 -52 226 -29 301 56 79 87 86 158 32 353 -40 146
-52 172 -97 218 -58 57 -144 83 -228 68z m108 -165 c31 -21 37 -37 72 -163 39
-143 39 -174 1 -212 -51 -51 -144 -35 -170 29 -27 69 -71 263 -65 286 15 63
109 97 162 60z"/>
<path d="M4138 2726 c-64 -17 -123 -58 -153 -106 -22 -36 -83 -236 -100 -332
-9 -48 16 -132 54 -185 99 -136 331 -123 417 23 35 59 96 284 97 354 1 163
-158 288 -315 246z m133 -175 c22 -22 29 -39 29 -66 0 -36 -39 -200 -62 -258
-27 -70 -116 -90 -169 -38 -38 38 -38 71 2 220 24 94 36 121 60 144 42 39 100
38 140 -2z"/>
<path d="M3942 563 c-7 -3 -19 -18 -28 -35 -13 -25 -13 -35 -3 -59 6 -17 20
-34 30 -39 10 -6 132 -10 281 -10 252 0 265 1 286 20 14 14 22 33 22 55 0 22
-8 41 -22 55 -21 19 -33 20 -287 19 -146 0 -272 -3 -279 -6z"/>
</g>
</svg>
