<?xml version="1.0" standalone="no"?>
<!DOCTYPE svg PUBLIC "-//W3C//DTD SVG 20010904//EN"
 "http://www.w3.org/TR/2001/REC-SVG-20010904/DTD/svg10.dtd">
<svg version="1.0" xmlns="http://www.w3.org/2000/svg"
 width="512.000000pt" height="512.000000pt" viewBox="0 0 512.000000 512.000000"
 preserveAspectRatio="xMidYMid meet">

<g transform="translate(0.000000,512.000000) scale(0.100000,-0.100000)"
fill="#000000" stroke="none">
<path d="M1510 4838 c-98 -50 -125 -146 -124 -433 0 -182 3 -211 28 -318 15
-65 33 -135 41 -156 12 -36 11 -46 -21 -146 -90 -284 -82 -546 24 -750 41 -79
168 -214 244 -259 l46 -27 -27 -62 c-39 -85 -60 -152 -80 -255 l-18 -87 -240
-5 c-262 -5 -276 -9 -308 -69 -44 -86 -238 -610 -238 -644 0 -79 66 -127 176
-127 l67 0 0 -545 c0 -435 3 -552 13 -578 22 -51 88 -105 139 -112 24 -3 637
-5 1364 -3 l1320 3 36 24 c19 13 46 40 59 59 l24 36 3 558 2 558 68 0 c109 0
175 48 175 127 -1 34 -195 559 -238 644 -32 60 -46 64 -308 69 l-240 5 -18 87
c-20 103 -41 170 -79 254 l-28 62 69 47 c139 95 237 232 281 392 17 62 21 108
22 218 0 152 -14 243 -64 397 l-27 87 24 83 c49 167 66 307 60 488 -5 163 -20
247 -53 312 -20 39 -85 80 -136 85 -87 10 -287 -84 -454 -213 l-72 -54 -88 29
c-243 82 -509 81 -747 0 l-88 -30 -72 55 c-107 82 -226 150 -323 185 -101 37
-135 38 -194 9z m225 -158 c92 -44 234 -136 235 -152 0 -3 -14 -15 -31 -26
l-32 -20 -61 45 c-75 56 -167 103 -200 103 -33 0 -54 -23 -63 -68 -11 -55 -8
-247 6 -327 12 -69 11 -71 -17 -123 l-29 -53 -17 83 c-27 129 -32 345 -11 463
28 155 43 161 220 75z m1841 34 c42 -53 54 -394 20 -562 l-19 -93 -29 53 c-29
52 -29 54 -17 123 7 38 12 126 12 195 0 137 -14 193 -52 203 -26 7 -126 -41
-209 -100 l-64 -46 -34 17 c-19 8 -34 19 -34 23 1 13 110 89 192 133 139 75
205 90 234 54z m-771 -183 c323 -80 562 -292 707 -627 157 -362 153 -685 -11
-892 -145 -182 -398 -281 -798 -313 -326 -27 -705 41 -909 162 -80 47 -192
161 -231 234 -93 178 -95 404 -7 675 145 442 418 698 828 776 99 19 317 11
421 -15z m-1042 -94 l47 -33 -48 -47 c-26 -26 -51 -47 -55 -47 -4 0 -7 36 -7
80 0 44 4 80 8 80 5 0 29 -15 55 -33z m1657 -47 c0 -44 -3 -80 -7 -80 -4 0
-29 21 -55 47 l-48 47 47 33 c26 18 50 33 55 33 4 0 8 -36 8 -80z m-1475
-1730 c201 -68 411 -95 679 -87 248 6 445 42 632 114 20 8 114 -264 114 -329
0 -17 -30 -18 -810 -18 -780 0 -810 1 -810 18 0 33 37 165 70 250 17 45 32 82
33 82 1 0 43 -14 92 -30z m1997 -459 c8 -8 221 -572 217 -574 -9 -5 -3189 9
-3194 14 -4 5 204 543 221 571 6 10 2745 -1 2756 -11z m-22 -1240 l0 -540 -26
-20 -27 -21 -1307 0 -1307 0 -27 21 -26 20 0 540 0 539 1360 0 1360 0 0 -539z"/>
<path d="M2007 3896 c-78 -78 -71 -219 15 -291 26 -22 39 -26 71 -22 105 14
155 160 96 278 -23 47 -58 69 -108 69 -33 0 -47 -7 -74 -34z m137 -72 c9 -8
16 -24 16 -34 0 -19 -25 -50 -40 -50 -15 0 -40 31 -40 50 0 19 25 50 40 50 5
0 16 -7 24 -16z"/>
<path d="M2968 3907 c-42 -35 -62 -85 -62 -152 1 -101 53 -170 129 -170 128 0
180 209 78 311 -28 28 -41 34 -76 34 -29 0 -50 -7 -69 -23z m56 -83 c9 -8 16
-24 16 -34 0 -19 -25 -50 -40 -50 -15 0 -40 31 -40 50 0 19 25 50 40 50 5 0
16 -7 24 -16z"/>
<path d="M2443 3423 c-35 -7 -73 -49 -73 -81 0 -22 11 -39 41 -66 22 -20 51
-42 65 -48 19 -9 24 -19 24 -48 0 -48 -21 -65 -77 -65 -36 0 -48 5 -74 33 -34
36 -68 41 -92 14 -64 -70 67 -185 191 -168 25 3 60 15 79 26 32 19 34 19 66 0
78 -45 182 -33 248 30 44 42 52 85 21 113 -28 26 -58 20 -91 -15 -26 -28 -38
-33 -74 -33 -56 0 -77 17 -77 65 0 29 5 39 24 48 14 6 43 28 65 48 30 27 41
44 41 66 0 35 -37 73 -81 82 -34 6 -190 6 -226 -1z m241 -49 c20 -20 20 -33
-1 -56 -21 -23 -36 -23 -28 0 3 11 -3 30 -16 45 l-20 27 25 0 c13 0 32 -7 40
-16z"/>
<path d="M2507 1309 c-37 -29 -53 -88 -38 -138 12 -43 61 -91 91 -91 30 0 79
48 91 91 23 75 -25 159 -91 159 -15 0 -39 -9 -53 -21z"/>
<path d="M2234 1203 c-53 -9 -91 -93 -72 -160 27 -98 127 -112 173 -23 44 84
-19 197 -101 183z"/>
<path d="M2833 1195 c-60 -25 -81 -125 -40 -186 70 -104 195 -22 166 109 -15
67 -70 100 -126 77z"/>
<path d="M2473 957 c-89 -34 -169 -123 -198 -219 -25 -84 9 -145 94 -168 106
-28 354 -20 421 15 67 35 80 104 37 198 -29 65 -95 134 -152 162 -48 23 -157
30 -202 12z"/>
</g>
</svg>
