<?xml version="1.0" standalone="no"?>
<!DOCTYPE svg PUBLIC "-//W3C//DTD SVG 20010904//EN"
 "http://www.w3.org/TR/2001/REC-SVG-20010904/DTD/svg10.dtd">
<svg version="1.0" xmlns="http://www.w3.org/2000/svg"
 width="512.000000pt" height="512.000000pt" viewBox="0 0 512.000000 512.000000"
 preserveAspectRatio="xMidYMid meet">

<g transform="translate(0.000000,512.000000) scale(0.100000,-0.100000)"
fill="#000000" stroke="none">
<path d="M1156 4629 c-39 -23 -148 -295 -201 -503 -70 -277 -69 -247 -75
-1316 l-5 -965 -166 -295 -165 -294 -78 -39 c-133 -67 -230 -184 -282 -337
-14 -40 -19 -84 -19 -160 0 -76 5 -120 19 -160 63 -187 189 -313 376 -376 76
-26 244 -26 320 0 142 48 267 148 326 260 16 31 31 56 34 56 3 0 18 -25 34
-56 59 -112 184 -212 326 -260 76 -26 244 -26 320 0 278 94 438 354 391 632
-37 212 -206 394 -416 448 l-50 12 -160 285 -160 284 -5 965 c-6 1069 -5 1039
-75 1316 -55 213 -163 481 -203 503 -26 14 -61 14 -86 0z m93 -405 c48 -147
85 -325 100 -478 7 -68 11 -452 11 -1019 l0 -910 150 -270 c83 -149 148 -272
146 -274 -2 -2 -19 -6 -37 -9 -34 -6 -36 -3 -307 301 l-272 306 0 877 c0 510
4 923 10 987 6 61 22 168 36 239 26 134 100 376 114 376 4 0 26 -57 49 -126z
m-164 -2655 c0 -3 -58 -72 -130 -153 -104 -118 -134 -146 -150 -142 -11 3 -30
6 -42 6 -19 0 -8 23 95 210 l117 210 55 -62 c30 -34 55 -65 55 -69z m238 -257
l114 -127 -66 -66 c-37 -36 -80 -91 -96 -122 -17 -31 -32 -57 -35 -57 -3 0
-18 25 -34 55 -32 61 -114 150 -177 192 l-40 26 24 26 c13 14 58 65 101 114
43 48 82 87 86 87 5 0 60 -57 123 -128z m611 -241 c76 -37 147 -110 184 -189
24 -50 27 -69 27 -162 0 -93 -3 -112 -27 -162 -94 -202 -334 -287 -532 -189
-236 116 -291 427 -110 621 116 124 304 157 458 81z m-1159 -296 c16 -15 25
-36 25 -55 0 -19 -9 -40 -25 -55 -15 -16 -36 -25 -55 -25 -19 0 -40 9 -55 25
-16 15 -25 36 -25 55 0 19 9 40 25 55 15 16 36 25 55 25 19 0 40 -9 55 -25z"/>
<path d="M1120 2160 l0 -80 80 0 80 0 0 80 0 80 -80 0 -80 0 0 -80z"/>
<path d="M1655 942 c-87 -42 -135 -121 -135 -224 1 -143 97 -238 242 -238 80
0 133 24 181 80 47 56 60 97 55 180 -4 81 -35 135 -107 185 -37 26 -53 30
-119 33 -59 2 -86 -2 -117 -16z m160 -167 c50 -49 15 -135 -55 -135 -19 0 -40
9 -55 25 -16 15 -25 36 -25 55 0 19 9 40 25 55 15 16 36 25 55 25 19 0 40 -9
55 -25z"/>
<path d="M2423 4625 c-194 -54 -370 -234 -473 -482 -95 -227 -131 -526 -95
-795 38 -290 136 -517 296 -682 l78 -82 36 -212 35 -212 -30 -298 c-28 -279
-29 -302 -15 -356 28 -105 99 -181 201 -212 125 -38 259 11 332 121 55 83 56
115 23 446 l-30 294 36 215 35 215 65 64 c146 145 252 366 300 624 24 129 24
447 0 574 -72 384 -263 669 -512 763 -77 29 -209 36 -282 15z m244 -175 c68
-30 134 -83 185 -147 373 -475 263 -1431 -189 -1635 -76 -35 -183 -31 -265 10
-156 77 -287 274 -351 529 -136 539 68 1163 412 1260 58 16 150 9 208 -17z
m-1 -1985 c-2 -11 -15 -84 -27 -162 l-23 -141 27 -274 c32 -326 33 -341 7
-383 -18 -29 -36 -41 -92 -58 -30 -10 -86 13 -117 49 -38 43 -39 45 -6 364 14
135 25 267 25 294 0 40 -28 237 -45 311 -4 19 1 20 126 20 125 0 130 -1 125
-20z"/>
<path d="M2300 4080 l0 -80 80 0 80 0 0 80 0 80 -80 0 -80 0 0 -80z"/>
<path d="M2620 4080 l0 -80 80 0 80 0 0 80 0 80 -80 0 -80 0 0 -80z"/>
<path d="M2300 3760 l0 -80 80 0 80 0 0 80 0 80 -80 0 -80 0 0 -80z"/>
<path d="M2620 3760 l0 -80 80 0 80 0 0 80 0 80 -80 0 -80 0 0 -80z"/>
<path d="M2300 3440 l0 -80 80 0 80 0 0 80 0 80 -80 0 -80 0 0 -80z"/>
<path d="M2620 3440 l0 -80 80 0 80 0 0 80 0 80 -80 0 -80 0 0 -80z"/>
<path d="M2300 3120 l0 -80 80 0 80 0 0 80 0 80 -80 0 -80 0 0 -80z"/>
<path d="M2620 3120 l0 -80 80 0 80 0 0 80 0 80 -80 0 -80 0 0 -80z"/>
<path d="M3545 4615 c-16 -15 -25 -36 -25 -55 0 -19 9 -40 25 -55 24 -25 24
-25 240 -25 l215 0 0 -80 0 -80 -215 0 c-216 0 -216 0 -240 -25 -16 -15 -25
-36 -25 -55 0 -19 9 -40 25 -55 24 -25 24 -25 240 -25 l215 0 0 -80 0 -80
-215 0 c-216 0 -216 0 -240 -25 -33 -32 -33 -78 0 -110 24 -25 24 -25 240 -25
l215 0 0 -80 0 -80 -215 0 c-216 0 -216 0 -240 -25 -16 -15 -25 -36 -25 -55 0
-19 9 -40 25 -55 24 -25 24 -25 240 -25 l215 0 0 -80 0 -80 -215 0 c-216 0
-216 0 -240 -25 -16 -15 -25 -36 -25 -55 0 -19 9 -40 25 -55 24 -25 24 -25
240 -25 l215 0 0 -80 0 -80 -215 0 c-216 0 -216 0 -240 -25 -33 -32 -33 -78 0
-110 24 -25 24 -25 240 -25 l215 0 0 -80 0 -80 -215 0 c-216 0 -216 0 -240
-25 -16 -15 -25 -36 -25 -55 0 -19 9 -40 25 -55 24 -25 24 -25 240 -25 l215 0
0 -80 0 -80 -215 0 c-216 0 -216 0 -240 -25 -16 -15 -25 -36 -25 -55 0 -19 9
-40 25 -55 24 -25 24 -25 240 -25 l215 0 0 -79 0 -78 -84 -6 c-146 -12 -319
-71 -444 -154 -83 -55 -216 -186 -268 -264 -60 -90 -107 -195 -135 -299 -34
-124 -34 -358 -1 -479 78 -285 270 -514 534 -636 314 -145 705 -101 977 110
460 355 510 1018 108 1433 -39 40 -102 93 -139 119 l-68 47 0 1239 c0 944 -3
1249 -12 1281 -16 55 -99 138 -154 154 -29 8 -146 12 -393 12 l-352 0 -24 -25z
m728 -146 c14 -6 30 -22 36 -36 8 -17 11 -363 11 -1214 0 -1129 -1 -1190 -17
-1185 -10 3 -38 10 -63 16 -25 6 -53 13 -62 16 -17 5 -18 71 -18 1210 l0 1204
45 0 c24 0 55 -5 68 -11z m-83 -2574 c36 -9 112 -39 170 -67 92 -45 117 -63
201 -147 84 -84 102 -109 147 -201 67 -136 85 -214 85 -360 0 -146 -18 -224
-85 -360 -45 -92 -63 -117 -147 -201 -85 -84 -108 -101 -201 -146 -139 -68
-216 -87 -360 -86 -133 0 -217 17 -324 67 -176 81 -307 207 -386 370 -65 137
-84 214 -83 356 0 145 18 224 85 360 45 93 61 115 147 200 103 103 191 157
321 199 132 43 289 48 430 16z"/>
<path d="M3930 1669 c-108 -44 -160 -169 -111 -274 47 -103 169 -144 271 -92
147 74 144 291 -5 358 -43 20 -115 24 -155 8z m107 -185 c10 -33 -43 -48 -63
-18 -13 19 -13 24 2 38 14 15 19 15 37 3 12 -7 22 -18 24 -23z"/>
<path d="M3475 1422 c-149 -70 -152 -285 -5 -359 134 -68 289 27 290 177 0
142 -156 242 -285 182z m112 -168 c11 -18 11 -23 -5 -37 -16 -15 -20 -15 -40
-1 -26 18 -27 27 -6 49 19 19 33 16 51 -11z"/>
<path d="M4355 1421 c-139 -64 -155 -257 -28 -345 105 -73 254 -28 299 89 64
169 -108 331 -271 256z m118 -166 c3 -7 -1 -22 -9 -33 -24 -34 -73 -7 -58 32
10 27 58 27 67 1z"/>
<path d="M3912 1185 c-53 -23 -98 -63 -122 -108 -15 -28 -39 -52 -73 -72 -34
-20 -62 -47 -82 -79 -27 -44 -30 -58 -30 -126 0 -68 3 -82 30 -126 19 -30 49
-60 79 -79 l49 -30 221 -3 c249 -4 276 2 341 65 100 97 101 248 1 345 -20 20
-49 41 -64 47 -16 7 -37 30 -51 56 -25 48 -70 87 -126 111 -43 18 -130 18
-173 -1z m140 -173 c10 -8 21 -31 24 -51 9 -48 37 -77 83 -85 70 -11 99 -82
52 -129 -21 -21 -29 -22 -211 -22 -182 0 -190 1 -211 22 -46 46 -19 117 50
129 43 8 81 40 81 68 1 76 78 116 132 68z"/>
</g>
</svg>
