<?xml version="1.0" standalone="no"?>
<!DOCTYPE svg PUBLIC "-//W3C//DTD SVG 20010904//EN"
 "http://www.w3.org/TR/2001/REC-SVG-20010904/DTD/svg10.dtd">
<svg version="1.0" xmlns="http://www.w3.org/2000/svg"
 width="512.000000pt" height="512.000000pt" viewBox="0 0 512.000000 512.000000"
 preserveAspectRatio="xMidYMid meet">

<g transform="translate(0.000000,512.000000) scale(0.100000,-0.100000)"
fill="#000000" stroke="none">
<path d="M496 4808 c-23 -79 -42 -112 -78 -138 -21 -16 -52 -32 -68 -35 -58
-13 -62 -65 -4 -65 44 0 134 -103 134 -154 0 -21 28 -46 44 -40 8 3 19 25 25
48 12 50 66 104 136 138 47 23 60 54 28 64 -82 27 -114 55 -153 136 -24 51
-56 74 -64 46z m105 -198 c20 -11 20 -12 -13 -36 -18 -13 -43 -36 -54 -50
l-21 -26 -22 36 c-13 20 -32 42 -42 50 -20 13 -19 16 28 62 l48 49 27 -37 c15
-20 37 -42 49 -48z"/>
<path d="M927 4613 c-4 -3 -7 -13 -7 -22 0 -42 -25 -97 -63 -139 -40 -43 -124
-92 -158 -92 -23 0 -41 -24 -33 -44 3 -9 15 -16 25 -16 33 0 92 -29 127 -63
37 -36 66 -87 92 -162 12 -36 23 -51 38 -53 16 -3 23 3 28 25 23 105 84 177
197 233 47 23 67 38 67 52 0 20 -3 21 -66 37 -64 17 -118 71 -165 167 -40 79
-61 99 -82 77z m86 -198 c16 -20 46 -49 68 -64 l39 -29 -38 -25 c-42 -28 -98
-82 -119 -114 -15 -22 -16 -22 -53 36 -21 32 -54 71 -74 86 l-37 28 50 33 c27
18 62 53 77 78 32 51 24 53 87 -29z"/>
<path d="M504 4282 c-6 -4 -15 -26 -22 -48 -18 -61 -49 -94 -119 -126 -35 -15
-63 -32 -63 -36 1 -17 17 -29 57 -40 51 -15 89 -59 118 -134 27 -68 55 -73 70
-13 12 50 72 112 138 143 33 16 47 28 47 42 0 21 -4 24 -55 35 -38 8 -100 75
-121 131 -16 43 -33 58 -50 46z m63 -171 l48 -48 -51 -47 -52 -46 -15 23 c-8
12 -26 34 -41 48 l-26 26 42 45 c24 25 44 46 45 47 2 0 24 -21 50 -48z"/>
<path d="M1750 4114 c-417 -39 -693 -114 -1026 -279 -144 -71 -370 -211 -407
-252 -16 -19 -11 -33 134 -394 83 -206 157 -380 164 -388 11 -11 43 -2 199 57
l186 70 0 -1302 c0 -999 3 -1305 12 -1314 9 -9 84 -12 274 -12 219 0 264 2
274 15 7 8 10 22 6 30 -5 13 -41 15 -251 15 l-245 0 0 1304 c0 717 -3 1311 -6
1320 -10 27 -44 19 -232 -53 l-181 -68 -111 276 c-62 152 -125 307 -140 344
l-29 69 122 79 c412 270 842 402 1379 424 l157 7 5 -23 c22 -115 31 -146 58
-201 41 -81 152 -194 230 -231 332 -159 709 38 764 399 l7 46 66 -6 c203 -20
461 -79 657 -151 133 -49 399 -182 504 -253 71 -48 87 -64 99 -98 l14 -41
-108 -269 c-59 -148 -109 -270 -109 -271 -1 -2 -26 6 -54 17 -64 24 -88 25
-100 3 -9 -15 -22 -12 -136 31 -69 26 -134 46 -144 44 -16 -3 -17 -77 -20
-1351 l-2 -1347 -979 0 c-1039 0 -1011 1 -978 -44 11 -15 116 -16 1162 -14
l1150 3 5 1312 5 1311 188 -71 c114 -43 191 -67 196 -61 18 19 313 764 308
777 -7 18 -208 152 -322 215 -328 179 -701 291 -1080 322 -106 9 -1575 12
-1665 4z"/>
<path d="M2478 2570 c-79 -42 -128 -138 -128 -250 0 -74 23 -138 67 -189 46
-54 86 -74 148 -74 62 0 102 20 148 74 113 131 79 367 -64 439 -49 25 -122 25
-171 0z"/>
<path d="M1951 2389 c-48 -15 -85 -45 -112 -92 -32 -56 -32 -169 -1 -239 29
-65 88 -127 147 -154 181 -85 333 74 270 282 -41 135 -192 237 -304 203z"/>
<path d="M3085 2391 c-147 -38 -251 -211 -216 -359 14 -58 61 -119 107 -138
43 -18 116 -18 159 0 50 21 123 93 153 151 35 67 38 188 6 250 -38 74 -131
116 -209 96z"/>
<path d="M1562 1939 c-46 -23 -72 -55 -90 -108 -16 -45 -15 -67 4 -131 21 -72
116 -169 188 -193 67 -23 147 -22 195 3 141 71 141 247 1 373 -85 77 -209 100
-298 56z"/>
<path d="M2481 1949 c-162 -32 -331 -184 -393 -354 -32 -89 -31 -205 2 -265
34 -60 97 -105 183 -132 66 -21 91 -23 292 -23 201 0 226 2 292 23 86 27 149
72 183 132 21 38 25 57 24 125 -1 99 -26 174 -91 268 -116 172 -312 261 -492
226z"/>
<path d="M3344 1936 c-111 -52 -184 -152 -184 -253 0 -118 78 -193 200 -193
110 0 218 69 269 172 48 95 37 193 -26 250 -58 53 -175 63 -259 24z"/>
</g>
</svg>
