<?xml version="1.0" standalone="no"?>
<!DOCTYPE svg PUBLIC "-//W3C//DTD SVG 20010904//EN"
 "http://www.w3.org/TR/2001/REC-SVG-20010904/DTD/svg10.dtd">
<svg version="1.0" xmlns="http://www.w3.org/2000/svg"
 width="512.000000pt" height="512.000000pt" viewBox="0 0 512.000000 512.000000"
 preserveAspectRatio="xMidYMid meet">

<g transform="translate(0.000000,512.000000) scale(0.100000,-0.100000)"
fill="#000000" stroke="none">
<path d="M4524 4376 c-52 -17 -100 -52 -124 -92 -16 -25 -71 -222 -231 -826
l-10 -38 -1995 0 c-1950 0 -1996 0 -2033 -19 -51 -27 -108 -92 -121 -139 -7
-28 -9 -403 -8 -1204 l3 -1165 30 -49 c19 -30 49 -60 79 -79 l49 -30 861 -3
c604 -2 869 1 887 8 26 11 49 47 49 76 0 8 -11 26 -25 39 l-24 25 -845 0
c-598 0 -852 3 -869 11 -14 6 -30 22 -36 36 -8 17 -11 348 -11 1158 l0 1134
23 26 22 25 1961 -2 1962 -3 -139 -520 c-91 -340 -139 -537 -139 -570 0 -66
27 -123 80 -168 l43 -37 -27 -102 c-14 -57 -26 -112 -26 -124 0 -29 41 -64 75
-64 40 0 63 25 81 89 8 31 22 79 30 107 l14 51 55 6 c91 9 162 61 193 142 6
17 48 167 92 334 44 168 82 307 85 309 3 3 5 -281 5 -631 0 -624 0 -637 20
-657 30 -30 83 -27 110 7 l21 27 -1 922 -2 922 57 214 c31 117 63 237 71 265
l15 53 27 -14 c59 -31 112 -112 112 -171 0 -15 -29 -136 -65 -270 -36 -135
-65 -255 -65 -269 0 -31 28 -63 61 -71 19 -5 33 0 53 17 23 20 37 60 97 283
62 229 69 268 66 327 -9 139 -90 244 -245 314 -2 1 4 29 12 62 9 33 16 77 16
98 0 59 -41 138 -91 174 -76 55 -209 81 -285 56z m148 -157 c44 -11 78 -44 78
-73 0 -18 -279 -1086 -287 -1095 -1 -2 -53 9 -115 26 -99 25 -113 32 -110 49
2 10 66 255 143 544 166 628 146 589 291 549z m-363 -1288 c58 -15 106 -32
108 -37 3 -11 -102 -412 -111 -421 -7 -7 -226 49 -226 58 0 4 25 100 55 214
30 113 55 208 55 211 0 7 11 5 119 -25z m-140 -585 c51 -14 95 -27 97 -29 2
-1 -9 -47 -24 -101 -35 -128 -55 -146 -139 -128 -113 24 -128 52 -93 187 27
107 27 107 48 101 10 -3 59 -17 111 -30z"/>
<path d="M478 3130 c-44 -13 -87 -49 -108 -90 -17 -34 -20 -60 -20 -200 0
-186 10 -220 82 -267 l42 -28 1349 -3 1350 -2 45 21 c29 15 54 37 73 67 29 46
29 46 29 211 0 157 -1 166 -25 207 -14 23 -42 53 -62 66 l-38 23 -1345 2
c-740 1 -1357 -2 -1372 -7z m2680 -152 c17 -17 17 -259 0 -276 -17 -17 -2629
-17 -2646 0 -17 17 -17 259 0 276 17 17 2629 17 2646 0z"/>
<path d="M400 2353 c-33 -12 -50 -37 -50 -73 0 -76 -87 -70 1088 -70 l1051 0
20 26 c27 35 26 57 -3 91 l-24 28 -1034 2 c-568 1 -1040 -1 -1048 -4z"/>
<path d="M376 1999 c-33 -26 -36 -79 -6 -109 20 -20 33 -20 1069 -20 l1050 0
20 26 c28 36 26 60 -8 95 l-29 29 -1035 0 c-1031 0 -1034 0 -1061 -21z"/>
<path d="M2176 1661 c-22 -25 -206 -524 -206 -561 0 -19 9 -35 26 -49 53 -42
98 -20 128 60 8 24 31 85 50 134 l34 90 11 -45 c30 -116 62 -208 78 -222 29
-25 60 -30 90 -14 29 15 158 144 255 256 l56 65 69 -66 c201 -193 346 -217
508 -85 150 122 164 126 232 66 25 -22 71 -52 102 -67 107 -53 293 -29 351 45
25 32 25 53 -1 86 -25 32 -55 33 -127 6 -90 -34 -145 -23 -231 49 -66 55 -103
71 -162 71 -65 0 -112 -22 -204 -96 -94 -76 -125 -94 -160 -94 -52 0 -135 58
-247 172 -63 64 -114 108 -126 108 -29 0 -58 -27 -187 -174 -66 -75 -122 -136
-126 -136 -7 0 -39 127 -75 295 -10 47 -25 89 -37 103 -26 28 -77 30 -101 3z"/>
<path d="M4583 1205 c-17 -7 -33 -20 -37 -30 -3 -9 -6 -66 -6 -127 0 -108 0
-110 -29 -139 l-29 -29 -1144 0 -1145 0 -21 -23 c-29 -31 -28 -72 3 -102 l24
-25 1144 0 c1232 0 1184 -2 1258 50 16 12 41 42 56 68 26 44 28 56 31 177 4
119 2 132 -17 156 -26 33 -50 40 -88 24z"/>
</g>
</svg>
