<svg id="svg" version="1.1" xmlns="http://www.w3.org/2000/svg" xmlns:xlink="http://www.w3.org/1999/xlink" width="400" height="400" viewBox="0, 0, 400,400"><g id="svgg"><path id="path0" d="M33.000 26.490 C 32.340 26.712,31.487 27.053,31.105 27.247 C 30.723 27.441,30.155 27.600,29.843 27.600 C 29.045 27.600,25.928 29.261,25.153 30.100 C 24.797 30.485,24.299 30.800,24.047 30.800 C 23.412 30.800,17.600 36.665,17.600 37.305 C 17.600 37.590,17.240 38.083,16.800 38.400 C 16.360 38.717,16.000 39.297,16.000 39.688 C 16.000 40.080,15.820 40.400,15.600 40.400 C 15.380 40.400,15.200 40.760,15.200 41.200 C 15.200 41.640,15.020 42.000,14.800 42.000 C 14.580 42.000,14.400 42.450,14.400 43.000 C 14.400 43.550,14.220 44.000,14.000 44.000 C 13.780 44.000,13.600 44.529,13.600 45.176 C 13.600 45.823,13.420 46.464,13.200 46.600 C 12.938 46.762,12.800 59.471,12.800 83.424 L 12.800 120.000 172.500 120.001 C 260.335 120.001,338.545 120.120,346.300 120.265 L 360.400 120.530 360.400 83.865 C 360.400 59.688,360.264 47.200,360.000 47.200 C 359.780 47.200,359.600 46.480,359.600 45.600 C 359.600 44.720,359.420 44.000,359.200 44.000 C 358.980 44.000,358.800 43.594,358.800 43.097 C 358.800 42.141,357.068 38.611,356.147 37.689 C 355.846 37.389,355.600 36.974,355.600 36.769 C 355.600 36.276,350.052 30.800,349.553 30.800 C 349.340 30.800,348.780 30.440,348.308 30.000 C 347.836 29.560,347.213 29.200,346.925 29.200 C 346.636 29.200,346.400 29.020,346.400 28.800 C 346.400 28.580,346.040 28.400,345.600 28.400 C 345.160 28.400,344.800 28.220,344.800 28.000 C 344.800 27.780,344.260 27.600,343.600 27.600 C 342.940 27.600,342.400 27.440,342.400 27.244 C 342.400 26.412,337.901 26.273,310.000 26.237 L 280.600 26.200 280.361 38.600 C 280.045 54.975,279.395 57.782,274.932 62.046 C 273.175 63.724,272.150 64.376,268.639 66.047 C 267.199 66.733,259.741 66.801,258.361 66.141 C 257.832 65.888,256.736 65.390,255.924 65.034 C 253.786 64.094,250.338 60.787,249.071 58.460 C 246.910 54.490,246.809 53.651,246.804 39.714 C 246.800 27.386,246.767 26.810,246.026 26.414 C 245.127 25.933,128.090 25.826,127.343 26.306 C 127.020 26.513,126.835 30.604,126.716 40.200 C 126.590 50.205,126.407 54.117,126.022 55.000 C 124.402 58.715,123.610 59.994,121.801 61.816 C 113.759 69.918,100.108 67.638,95.154 57.365 C 93.597 54.137,93.250 50.405,93.220 36.580 C 93.206 29.655,93.066 26.826,92.720 26.480 C 92.097 25.857,34.850 25.866,33.000 26.490 " stroke="none" fill="#f83554" fill-rule="evenodd"></path><path id="path1" d="M49.521 146.699 C 51.788 146.770,55.388 146.770,57.521 146.698 C 59.655 146.626,57.800 146.568,53.400 146.568 C 49.000 146.568,47.255 146.627,49.521 146.699 M102.721 146.699 C 104.988 146.770,108.588 146.770,110.721 146.698 C 112.855 146.626,111.000 146.568,106.600 146.568 C 102.200 146.568,100.455 146.627,102.721 146.699 M156.100 146.698 C 158.245 146.770,161.755 146.770,163.900 146.698 C 166.045 146.626,164.290 146.567,160.000 146.567 C 155.710 146.567,153.955 146.626,156.100 146.698 M209.521 146.699 C 211.788 146.770,215.388 146.770,217.521 146.698 C 219.655 146.626,217.800 146.568,213.400 146.568 C 209.000 146.568,207.255 146.627,209.521 146.699 M262.721 146.699 C 264.988 146.770,268.588 146.770,270.721 146.698 C 272.855 146.626,271.000 146.568,266.600 146.568 C 262.200 146.568,260.455 146.627,262.721 146.699 M316.100 146.698 C 318.245 146.770,321.755 146.770,323.900 146.698 C 326.045 146.626,324.290 146.567,320.000 146.567 C 315.710 146.567,313.955 146.626,316.100 146.698 M43.266 147.393 C 41.991 148.096,41.300 148.800,41.887 148.800 C 42.132 148.800,42.393 148.659,42.467 148.488 C 42.540 148.316,43.230 147.870,44.000 147.497 C 44.770 147.124,45.130 146.832,44.800 146.848 C 44.470 146.865,43.780 147.110,43.266 147.393 M62.999 147.430 C 63.659 147.774,64.479 148.268,64.821 148.528 C 65.164 148.787,64.901 148.505,64.237 147.900 C 63.573 147.295,62.753 146.801,62.415 146.802 C 62.077 146.804,62.340 147.086,62.999 147.430 M95.455 148.524 C 94.423 149.556,93.624 150.781,93.465 151.574 C 93.052 153.639,93.154 167.243,93.593 168.777 C 93.949 170.017,96.178 172.800,96.817 172.800 C 96.959 172.800,96.398 172.087,95.569 171.215 C 93.670 169.220,93.471 167.852,93.660 158.119 C 93.817 150.084,94.187 148.993,97.272 147.473 C 98.092 147.069,98.328 146.815,97.889 146.809 C 97.499 146.804,96.403 147.576,95.455 148.524 M149.696 147.598 C 146.969 149.261,146.803 149.965,146.801 159.920 C 146.800 170.369,146.996 171.033,150.695 173.100 C 151.684 173.653,168.222 173.828,169.063 173.294 C 169.318 173.132,165.504 173.054,160.587 173.121 L 151.647 173.242 149.997 172.151 C 147.286 170.357,147.200 169.978,147.201 159.920 C 147.203 149.830,147.368 149.175,150.283 147.636 C 151.117 147.196,151.620 146.828,151.400 146.819 C 151.180 146.810,150.413 147.161,149.696 147.598 M169.178 147.241 C 169.717 147.456,170.355 147.760,170.597 147.916 C 170.840 148.072,170.694 147.885,170.275 147.500 C 169.855 147.115,169.216 146.811,168.856 146.825 C 168.441 146.841,168.560 146.994,169.178 147.241 M203.106 147.462 C 200.410 148.882,199.999 150.546,200.006 160.035 C 200.009 164.746,200.144 168.808,200.306 169.063 C 200.468 169.318,200.545 165.554,200.478 160.700 C 200.331 150.116,200.553 149.326,204.200 147.429 C 204.860 147.086,205.130 146.823,204.800 146.845 C 204.470 146.867,203.708 147.144,203.106 147.462 M222.400 147.089 C 222.730 147.213,223.540 147.663,224.200 148.090 L 225.400 148.866 224.200 147.835 C 223.540 147.268,222.730 146.817,222.400 146.834 C 221.867 146.860,221.867 146.888,222.400 147.089 M256.200 147.703 C 254.844 148.694,254.032 149.617,254.013 150.185 C 254.006 150.397,254.495 149.995,255.100 149.292 C 255.705 148.590,256.740 147.742,257.400 147.410 C 258.060 147.077,258.330 146.810,258.000 146.815 C 257.670 146.821,256.860 147.220,256.200 147.703 M309.600 147.700 C 308.875 148.195,308.008 149.050,307.673 149.600 C 307.201 150.375,307.326 150.315,308.232 149.332 C 308.874 148.634,309.940 147.786,310.600 147.448 C 311.260 147.109,311.602 146.825,311.359 146.816 C 311.117 146.807,310.325 147.205,309.600 147.700 M118.246 148.953 C 119.420 150.425,120.010 150.645,119.168 149.298 C 118.901 148.869,118.330 148.299,117.901 148.031 C 117.339 147.680,117.435 147.937,118.246 148.953 M277.994 148.603 C 279.587 150.521,279.721 150.645,279.286 149.796 C 279.059 149.353,278.452 148.634,277.937 148.198 C 277.033 147.434,277.035 147.448,277.994 148.603 M172.611 150.421 C 173.143 151.449,173.223 153.054,173.121 160.584 C 173.055 165.503,173.132 169.318,173.294 169.063 C 174.425 167.280,173.411 149.200,172.179 149.200 C 172.069 149.200,172.264 149.749,172.611 150.421 M40.243 151.033 C 39.895 151.938,39.954 168.508,40.306 169.062 C 40.468 169.316,40.600 165.221,40.600 159.962 C 40.600 154.703,40.574 150.400,40.543 150.400 C 40.511 150.400,40.376 150.685,40.243 151.033 M119.800 160.000 C 119.800 165.018,119.932 168.916,120.094 168.662 C 120.256 168.408,120.388 164.510,120.388 160.000 C 120.388 155.490,120.256 151.592,120.094 151.338 C 119.932 151.084,119.800 154.982,119.800 160.000 M226.572 160.000 C 226.572 165.170,226.629 167.285,226.699 164.700 C 226.768 162.115,226.768 157.885,226.699 155.300 C 226.629 152.715,226.572 154.830,226.572 160.000 M253.443 151.433 C 253.096 152.338,253.154 168.108,253.506 168.662 C 253.668 168.916,253.800 165.001,253.800 159.962 C 253.800 154.923,253.774 150.800,253.743 150.800 C 253.711 150.800,253.576 151.085,253.443 151.433 M279.800 160.002 C 279.800 165.046,279.922 168.863,280.072 168.486 C 280.221 168.109,280.344 164.290,280.344 160.000 C 280.344 155.710,280.221 151.892,280.072 151.516 C 279.922 151.140,279.800 154.959,279.800 160.002 M306.654 152.656 C 306.311 155.162,306.419 166.703,306.800 168.200 C 306.970 168.866,307.126 165.263,307.153 160.100 C 307.201 150.662,307.111 149.324,306.654 152.656 M66.713 158.076 C 66.871 167.202,67.067 168.288,67.096 160.200 C 67.109 156.460,67.003 152.984,66.860 152.476 C 66.717 151.967,66.651 154.487,66.713 158.076 M333.292 159.867 C 333.241 164.524,333.096 168.664,332.970 169.067 C 332.760 169.734,332.779 169.739,333.178 169.121 C 333.470 168.668,333.577 165.609,333.500 159.921 L 333.383 151.400 333.292 159.867 M117.941 171.296 C 117.139 172.123,116.609 172.800,116.763 172.800 C 117.128 172.800,119.799 170.046,119.573 169.902 C 119.478 169.842,118.744 170.469,117.941 171.296 M224.764 171.227 C 223.974 172.092,223.460 172.800,223.622 172.800 C 223.927 172.800,226.400 170.117,226.400 169.786 C 226.400 169.469,226.243 169.607,224.764 171.227 M254.000 169.908 C 254.000 170.363,256.393 172.598,257.474 173.152 C 258.464 173.660,275.431 173.797,275.739 173.300 C 275.841 173.135,272.036 173.052,267.283 173.116 C 257.750 173.243,257.124 173.130,255.198 170.937 C 254.539 170.186,254.000 169.723,254.000 169.908 M277.941 171.296 C 277.139 172.123,276.609 172.800,276.763 172.800 C 277.128 172.800,279.799 170.046,279.573 169.902 C 279.478 169.842,278.744 170.469,277.941 171.296 M307.505 170.200 C 307.979 171.100,309.356 172.352,310.695 173.100 C 311.684 173.653,328.222 173.828,329.063 173.294 C 329.318 173.132,325.545 173.055,320.679 173.122 C 310.943 173.257,310.760 173.222,308.441 170.812 C 307.694 170.035,307.273 169.760,307.505 170.200 M41.203 170.719 C 41.531 171.225,42.430 172.007,43.200 172.458 C 43.970 172.908,44.240 172.986,43.800 172.631 C 43.360 172.275,42.461 171.493,41.803 170.892 C 40.758 169.938,40.682 169.916,41.203 170.719 M171.200 171.477 C 170.331 172.389,170.155 172.704,170.737 172.309 C 171.547 171.759,173.069 169.992,172.723 170.004 C 172.655 170.007,171.970 170.669,171.200 171.477 M201.219 170.719 C 201.539 171.225,202.430 172.007,203.200 172.458 C 203.970 172.908,204.240 172.991,203.800 172.643 C 203.360 172.295,202.469 171.512,201.819 170.905 C 200.802 169.953,200.719 169.927,201.219 170.719 M64.278 171.813 C 63.660 172.356,63.314 172.800,63.508 172.800 C 63.702 172.800,64.283 172.350,64.800 171.800 C 65.995 170.528,65.731 170.534,64.278 171.813 M97.862 173.300 C 97.964 173.465,101.986 173.600,106.800 173.600 C 111.614 173.600,115.636 173.465,115.738 173.300 C 115.840 173.135,111.818 173.000,106.800 173.000 C 101.782 173.000,97.760 173.135,97.862 173.300 M48.878 173.498 C 51.231 173.569,55.191 173.569,57.678 173.499 C 60.165 173.429,58.240 173.371,53.400 173.370 C 48.560 173.370,46.525 173.428,48.878 173.498 M208.878 173.498 C 211.231 173.569,215.191 173.569,217.678 173.499 C 220.165 173.429,218.240 173.371,213.400 173.370 C 208.560 173.370,206.525 173.428,208.878 173.498 M42.453 201.448 C 41.523 202.244,40.838 202.972,40.932 203.065 C 41.026 203.159,41.626 202.733,42.267 202.118 C 42.907 201.503,43.784 200.786,44.215 200.524 C 44.647 200.261,44.807 200.036,44.572 200.024 C 44.337 200.011,43.383 200.651,42.453 201.448 M96.555 200.762 C 93.534 202.604,93.400 203.141,93.400 213.400 C 93.400 223.692,93.506 224.120,96.462 225.728 C 97.335 226.204,97.522 226.240,97.000 225.833 C 93.596 223.180,93.452 222.562,93.663 211.556 C 93.822 203.246,93.965 202.786,96.951 200.996 C 97.858 200.452,98.420 200.007,98.200 200.005 C 97.980 200.004,97.240 200.345,96.555 200.762 M115.800 200.473 C 116.240 200.720,117.140 201.293,117.800 201.745 C 118.780 202.418,118.895 202.438,118.429 201.858 C 118.115 201.467,117.359 200.889,116.749 200.574 C 115.449 199.901,114.626 199.814,115.800 200.473 M203.209 201.021 C 200.221 203.131,200.004 203.967,200.004 213.400 C 200.003 222.334,200.220 223.413,202.351 225.100 C 203.876 226.307,204.463 226.367,203.050 225.171 C 200.578 223.079,200.400 222.269,200.401 213.113 C 200.403 203.909,200.521 203.476,203.647 201.212 C 204.567 200.545,205.158 200.009,204.960 200.020 C 204.762 200.030,203.974 200.481,203.209 201.021 M277.800 200.400 C 277.360 200.589,276.280 200.760,275.400 200.779 C 264.014 201.032,243.878 208.462,230.715 217.269 C 228.799 218.551,227.138 219.600,227.024 219.600 C 226.910 219.600,226.764 216.135,226.699 211.900 L 226.582 204.200 226.491 212.212 L 226.400 220.224 222.760 223.212 L 219.119 226.200 211.860 226.414 L 204.600 226.627 211.547 226.714 L 218.495 226.800 214.947 230.511 C 192.728 253.759,183.068 284.698,188.069 316.600 C 188.535 319.569,190.847 329.032,191.570 330.926 C 191.807 331.545,192.000 332.757,192.000 333.618 C 192.000 334.479,192.291 335.952,192.646 336.892 C 193.410 338.912,195.441 343.464,196.086 344.600 C 196.336 345.040,196.913 346.120,197.370 347.000 C 197.826 347.880,198.292 348.690,198.405 348.800 C 198.518 348.910,199.042 349.855,199.568 350.900 C 200.095 351.945,200.677 352.800,200.863 352.800 C 201.048 352.800,201.200 352.993,201.200 353.228 C 201.200 353.463,201.740 354.441,202.400 355.400 C 203.060 356.359,203.600 357.264,203.600 357.412 C 203.600 357.559,204.140 358.183,204.800 358.800 C 205.460 359.417,206.000 360.137,206.000 360.400 C 206.000 360.663,206.540 361.383,207.200 362.000 C 207.860 362.617,208.400 363.300,208.400 363.518 C 208.400 363.737,208.922 364.474,209.560 365.158 C 210.199 365.841,210.656 366.400,210.577 366.400 C 210.435 366.400,217.898 373.779,220.589 376.300 C 221.353 377.015,222.141 377.600,222.340 377.600 C 222.540 377.600,223.445 378.320,224.352 379.200 C 225.259 380.080,226.179 380.800,226.397 380.800 C 226.615 380.800,227.018 381.160,227.293 381.600 C 227.568 382.040,227.985 382.400,228.221 382.400 C 228.456 382.400,228.998 382.715,229.425 383.100 C 229.851 383.485,230.695 384.055,231.300 384.368 C 231.905 384.680,232.400 385.085,232.400 385.268 C 232.400 385.450,232.678 385.600,233.017 385.600 C 233.356 385.600,234.020 385.960,234.492 386.400 C 234.964 386.840,235.587 387.200,235.875 387.200 C 236.164 387.200,236.400 387.380,236.400 387.600 C 236.400 387.820,236.760 388.000,237.200 388.000 C 237.640 388.000,238.000 388.180,238.000 388.400 C 238.000 388.620,238.360 388.800,238.800 388.800 C 239.240 388.800,239.600 388.980,239.600 389.200 C 239.600 389.420,239.960 389.600,240.400 389.600 C 240.840 389.600,241.200 389.738,241.200 389.906 C 241.200 390.277,244.169 391.600,245.003 391.600 C 245.331 391.600,245.600 391.780,245.600 392.000 C 245.600 392.220,245.960 392.400,246.400 392.400 C 246.840 392.400,247.200 392.580,247.200 392.800 C 247.200 393.020,247.740 393.200,248.400 393.200 C 249.060 393.200,249.600 393.380,249.600 393.600 C 249.600 393.820,249.949 394.000,250.376 394.000 C 250.803 394.000,251.264 394.180,251.400 394.400 C 251.536 394.620,252.087 394.800,252.624 394.800 C 253.161 394.800,253.600 394.980,253.600 395.200 C 253.600 395.420,254.140 395.600,254.800 395.600 C 255.460 395.600,256.000 395.780,256.000 396.000 C 256.000 396.220,256.529 396.400,257.176 396.400 C 257.823 396.400,258.464 396.580,258.600 396.800 C 258.736 397.020,259.467 397.200,260.224 397.200 C 260.981 397.200,261.600 397.380,261.600 397.600 C 261.600 397.820,262.219 398.000,262.976 398.000 C 263.733 398.000,264.464 398.180,264.600 398.400 C 264.736 398.620,265.701 398.800,266.744 398.800 C 267.787 398.800,268.865 399.025,269.140 399.300 C 269.524 399.684,273.605 399.800,286.800 399.800 C 299.995 399.800,304.076 399.684,304.460 399.300 C 304.735 399.025,305.723 398.800,306.656 398.800 C 307.589 398.800,308.464 398.620,308.600 398.400 C 308.736 398.180,309.557 398.000,310.424 398.000 C 311.291 398.000,312.000 397.820,312.000 397.600 C 312.000 397.380,312.619 397.200,313.376 397.200 C 314.133 397.200,314.864 397.020,315.000 396.800 C 315.136 396.580,315.777 396.400,316.424 396.400 C 317.071 396.400,317.600 396.220,317.600 396.000 C 317.600 395.780,318.140 395.600,318.800 395.600 C 319.460 395.600,320.000 395.420,320.000 395.200 C 320.000 394.980,320.439 394.800,320.976 394.800 C 321.513 394.800,322.064 394.620,322.200 394.400 C 322.336 394.180,322.797 394.000,323.224 394.000 C 323.651 394.000,324.000 393.820,324.000 393.600 C 324.000 393.380,324.450 393.200,325.000 393.200 C 325.550 393.200,326.000 393.020,326.000 392.800 C 326.000 392.580,326.360 392.400,326.800 392.400 C 327.240 392.400,327.600 392.240,327.600 392.045 C 327.600 391.849,328.227 391.571,328.994 391.428 C 330.446 391.155,333.702 389.621,333.933 389.100 C 334.007 388.935,334.412 388.800,334.833 388.800 C 335.255 388.800,335.600 388.654,335.600 388.475 C 335.600 388.296,336.234 387.901,337.009 387.597 C 337.783 387.293,338.711 386.719,339.071 386.322 C 339.430 385.925,339.938 385.600,340.200 385.600 C 340.462 385.600,341.002 385.240,341.400 384.800 C 341.798 384.360,342.366 384.000,342.662 384.000 C 342.958 384.000,343.200 383.832,343.200 383.627 C 343.200 383.422,343.566 383.138,344.013 382.996 C 344.460 382.854,345.262 382.302,345.795 381.769 C 346.328 381.236,346.930 380.800,347.134 380.800 C 347.337 380.800,348.245 380.080,349.152 379.200 C 350.059 378.320,351.003 377.600,351.250 377.600 C 351.802 377.600,364.400 364.955,364.400 364.400 C 364.400 364.181,365.120 363.259,366.000 362.352 C 366.880 361.445,367.600 360.495,367.600 360.240 C 367.600 359.985,367.960 359.517,368.400 359.200 C 368.840 358.883,369.200 358.408,369.200 358.145 C 369.200 357.882,369.345 357.607,369.523 357.533 C 369.869 357.391,372.400 353.796,372.400 353.448 C 372.400 353.334,372.941 352.438,373.602 351.459 C 374.264 350.479,374.916 349.120,375.052 348.439 C 375.189 347.757,375.457 347.200,375.650 347.200 C 375.843 347.200,376.000 346.922,376.000 346.583 C 376.000 346.244,376.360 345.580,376.800 345.108 C 377.240 344.636,377.600 343.833,377.600 343.325 C 377.600 342.816,377.780 342.400,378.000 342.400 C 378.220 342.400,378.400 342.130,378.400 341.800 C 378.400 341.470,378.580 341.200,378.800 341.200 C 379.020 341.200,379.200 340.851,379.200 340.424 C 379.200 339.997,379.380 339.536,379.600 339.400 C 379.820 339.264,380.000 338.713,380.000 338.176 C 380.000 337.639,380.180 337.200,380.400 337.200 C 380.620 337.200,380.800 336.851,380.800 336.424 C 380.800 335.997,380.980 335.536,381.200 335.400 C 381.420 335.264,381.600 334.713,381.600 334.176 C 381.600 333.639,381.780 333.200,382.000 333.200 C 382.220 333.200,382.400 332.748,382.400 332.195 C 382.400 331.642,382.558 330.877,382.751 330.495 C 383.340 329.328,384.000 326.992,384.000 326.072 C 384.000 325.592,384.180 325.200,384.400 325.200 C 384.620 325.200,384.800 324.390,384.800 323.400 C 384.800 322.410,384.980 321.600,385.200 321.600 C 385.420 321.600,385.600 320.700,385.600 319.600 C 385.600 318.500,385.780 317.600,386.000 317.600 C 386.225 317.600,386.400 316.475,386.400 315.024 C 386.400 313.607,386.580 312.336,386.800 312.200 C 387.052 312.044,387.200 307.537,387.200 300.000 C 387.200 292.463,387.052 287.956,386.800 287.800 C 386.580 287.664,386.400 286.393,386.400 284.976 C 386.400 283.525,386.225 282.400,386.000 282.400 C 385.780 282.400,385.600 281.500,385.600 280.400 C 385.600 279.300,385.420 278.400,385.200 278.400 C 384.980 278.400,384.800 277.590,384.800 276.600 C 384.800 275.610,384.620 274.800,384.400 274.800 C 384.180 274.800,384.000 274.408,384.000 273.928 C 384.000 273.008,383.340 270.672,382.751 269.505 C 382.558 269.123,382.400 268.459,382.400 268.029 C 382.400 267.599,382.220 267.136,382.000 267.000 C 381.780 266.864,381.600 266.324,381.600 265.800 C 381.600 265.276,381.420 264.736,381.200 264.600 C 380.980 264.464,380.800 264.003,380.800 263.576 C 380.800 263.149,380.620 262.800,380.400 262.800 C 380.180 262.800,380.000 262.350,380.000 261.800 C 380.000 261.250,379.820 260.800,379.600 260.800 C 379.380 260.800,379.200 260.566,379.200 260.280 C 379.200 259.544,378.259 257.607,377.900 257.603 C 377.735 257.601,377.600 257.184,377.600 256.675 C 377.600 256.167,377.240 255.364,376.800 254.892 C 376.360 254.420,376.000 253.756,376.000 253.417 C 376.000 253.078,375.843 252.800,375.650 252.800 C 375.457 252.800,375.189 252.243,375.052 251.561 C 374.916 250.880,374.264 249.521,373.602 248.541 C 372.941 247.562,372.400 246.692,372.400 246.608 C 372.400 246.243,368.991 241.338,368.330 240.753 C 367.929 240.397,367.600 239.924,367.600 239.701 C 367.600 239.479,366.880 238.555,366.000 237.648 C 365.120 236.741,364.400 235.859,364.400 235.688 C 364.400 235.291,361.398 232.313,357.800 229.138 C 356.260 227.780,354.190 225.926,353.200 225.017 C 349.519 221.641,341.374 215.600,340.502 215.600 C 340.314 215.600,339.941 215.381,339.673 215.113 C 337.173 212.613,321.434 205.549,314.200 203.679 C 313.320 203.452,311.880 203.079,311.000 202.850 C 308.233 202.130,303.192 201.185,298.093 200.430 C 294.673 199.924,278.962 199.901,277.800 200.400 M148.889 201.519 C 146.948 203.013,146.800 203.864,146.800 213.555 L 146.800 222.618 148.031 224.112 C 148.709 224.933,149.654 225.799,150.131 226.035 C 150.609 226.272,150.411 225.984,149.692 225.397 C 147.300 223.444,147.200 222.952,147.200 213.092 L 147.200 204.144 148.631 202.472 C 150.206 200.633,150.249 200.472,148.889 201.519 M171.429 202.038 C 172.073 202.829,172.681 203.408,172.779 203.325 C 172.878 203.242,172.351 202.595,171.609 201.887 L 170.258 200.600 171.429 202.038 M40.185 204.518 C 39.510 207.208,40.193 222.734,41.037 223.872 C 43.149 226.720,43.546 226.810,53.559 226.708 L 62.600 226.616 53.800 226.503 C 40.260 226.328,40.600 226.674,40.600 213.100 C 40.600 203.357,40.580 202.943,40.185 204.518 M173.199 213.119 L 173.399 222.200 173.507 213.428 C 173.567 208.603,173.477 204.517,173.308 204.347 C 173.139 204.178,173.090 208.125,173.199 213.119 M119.800 213.400 C 119.800 218.308,119.932 222.116,120.094 221.862 C 120.482 221.252,120.488 204.901,120.100 204.662 C 119.935 204.560,119.800 208.492,119.800 213.400 M66.713 211.276 C 66.871 220.402,67.067 221.488,67.096 213.400 C 67.109 209.660,67.003 206.184,66.860 205.676 C 66.717 205.167,66.651 207.687,66.713 211.276 M64.462 224.685 C 62.749 226.468,62.911 226.678,64.737 225.040 C 65.524 224.334,66.683 222.716,66.314 222.838 C 66.251 222.858,65.418 223.689,64.462 224.685 M171.005 224.965 C 170.128 225.825,169.768 226.337,170.205 226.101 C 171.094 225.623,173.030 223.659,172.768 223.502 C 172.676 223.446,171.882 224.104,171.005 224.965 M107.000 226.400 L 97.800 226.623 106.876 226.711 C 112.593 226.767,116.044 226.652,116.200 226.400 C 116.336 226.180,116.392 226.040,116.324 226.089 C 116.256 226.137,112.060 226.278,107.000 226.400 M155.723 226.699 C 158.320 226.769,162.460 226.768,164.923 226.698 C 167.385 226.628,165.260 226.571,160.200 226.572 C 155.140 226.572,153.125 226.629,155.723 226.699 M300.083 227.738 C 309.253 229.648,316.276 232.236,322.741 236.086 C 324.138 236.919,325.369 237.600,325.475 237.600 C 325.774 237.600,329.095 239.963,332.199 242.385 C 335.828 245.216,342.505 251.994,344.800 255.176 C 345.790 256.548,347.005 258.150,347.500 258.736 C 347.994 259.321,348.399 259.948,348.400 260.128 C 348.400 260.308,348.916 261.208,349.547 262.128 C 350.489 263.501,353.800 270.075,355.224 273.400 C 360.837 286.505,361.444 307.918,356.618 322.600 C 356.040 324.360,355.412 326.160,355.224 326.600 C 355.036 327.040,354.574 328.120,354.197 329.000 C 353.212 331.303,351.436 334.966,351.190 335.200 C 351.075 335.310,350.535 336.255,349.991 337.300 C 349.447 338.345,348.866 339.200,348.701 339.200 C 348.535 339.200,348.400 339.436,348.400 339.725 C 348.400 340.013,348.040 340.636,347.600 341.108 C 347.160 341.580,346.800 342.082,346.800 342.222 C 346.800 343.589,336.578 354.250,331.400 358.283 C 325.964 362.518,314.545 368.800,312.284 368.800 C 311.996 368.800,311.589 368.949,311.380 369.130 C 311.171 369.312,310.190 369.693,309.200 369.977 C 308.210 370.261,306.950 370.635,306.400 370.808 C 297.353 373.661,283.632 374.325,274.200 372.366 C 266.516 370.771,264.367 370.129,258.200 367.589 C 237.152 358.921,220.659 339.551,215.407 317.329 C 215.052 315.828,214.678 314.240,214.574 313.800 C 214.064 311.621,213.216 303.004,213.216 300.000 C 213.217 291.600,215.242 281.100,218.384 273.200 C 225.089 256.341,237.788 242.453,253.800 234.469 C 255.920 233.412,257.232 232.821,260.200 231.585 C 263.673 230.140,270.432 228.296,274.800 227.604 C 276.450 227.342,278.070 227.066,278.400 226.989 C 280.240 226.565,297.272 227.152,300.083 227.738 M285.085 247.476 C 283.914 247.665,281.192 250.080,281.211 250.913 C 281.216 251.181,281.503 250.950,281.848 250.400 C 284.043 246.896,289.664 246.968,291.701 250.528 C 292.070 251.173,292.257 256.130,292.418 269.600 L 292.635 287.800 292.618 269.529 C 292.600 251.713,292.579 251.230,291.775 250.154 C 290.103 247.914,287.882 247.025,285.085 247.476 M280.652 252.500 C 280.300 253.815,280.346 287.119,280.700 287.338 C 280.865 287.440,281.000 279.440,281.000 269.562 C 281.000 259.683,280.976 251.600,280.947 251.600 C 280.917 251.600,280.785 252.005,280.652 252.500 M150.000 254.031 C 146.971 255.788,146.800 256.462,146.800 266.647 C 146.800 275.034,146.860 275.802,147.607 277.011 C 148.414 278.318,150.299 279.835,150.662 279.471 C 150.769 279.365,150.342 278.975,149.715 278.604 C 147.370 277.219,147.200 276.416,147.200 266.748 C 147.200 256.682,147.301 256.279,150.300 254.377 C 152.391 253.051,152.156 252.780,150.000 254.031 M42.096 254.900 C 40.120 257.010,40.005 257.666,40.009 266.800 C 40.011 271.530,40.144 275.608,40.306 275.863 C 40.468 276.118,40.541 272.700,40.469 268.268 C 40.305 258.207,40.446 257.180,42.240 255.387 C 43.003 254.624,43.472 254.000,43.283 254.000 C 43.094 254.000,42.560 254.405,42.096 254.900 M64.597 255.201 C 66.493 257.418,66.520 257.442,66.086 256.600 C 65.859 256.160,65.162 255.351,64.537 254.801 L 63.400 253.803 64.597 255.201 M170.600 254.625 C 171.040 254.954,171.731 255.623,172.135 256.112 C 172.539 256.600,172.737 256.730,172.575 256.400 C 172.098 255.427,170.695 253.999,170.230 254.013 C 169.994 254.020,170.160 254.295,170.600 254.625 M94.433 256.042 C 93.278 257.942,93.106 259.738,93.262 268.284 L 93.400 275.864 94.554 277.375 C 96.603 280.062,97.920 280.387,106.600 280.351 C 110.780 280.334,114.618 280.203,115.129 280.060 C 115.640 279.917,112.333 279.861,107.781 279.936 C 98.283 280.093,96.795 279.788,94.893 277.296 L 93.800 275.864 93.665 267.803 C 93.527 259.539,93.817 257.040,95.058 255.799 C 95.409 255.449,95.594 255.060,95.469 254.936 C 95.345 254.812,94.879 255.309,94.433 256.042 M119.800 266.600 C 119.800 271.508,119.932 275.316,120.094 275.062 C 120.256 274.808,120.388 271.000,120.388 266.600 C 120.388 262.200,120.256 258.392,120.094 258.138 C 119.932 257.884,119.800 261.692,119.800 266.600 M66.600 266.600 C 66.600 271.356,66.717 274.832,66.860 274.324 C 67.003 273.816,67.120 270.340,67.120 266.600 C 67.120 262.860,67.003 259.384,66.860 258.876 C 66.717 258.368,66.600 261.844,66.600 266.600 M173.199 266.881 C 173.090 271.875,173.139 275.822,173.308 275.653 C 173.477 275.483,173.567 271.397,173.507 266.572 L 173.399 257.800 173.199 266.881 M65.200 277.600 C 64.730 278.260,64.436 278.800,64.546 278.800 C 64.656 278.800,65.130 278.260,65.600 277.600 C 66.070 276.940,66.364 276.400,66.254 276.400 C 66.144 276.400,65.670 276.940,65.200 277.600 M171.141 278.096 C 170.339 278.923,169.809 279.600,169.963 279.600 C 170.328 279.600,172.999 276.846,172.773 276.702 C 172.678 276.642,171.944 277.269,171.141 278.096 M117.400 278.650 C 116.681 279.262,116.534 279.505,117.033 279.257 C 117.766 278.893,119.141 277.576,118.749 277.614 C 118.667 277.622,118.060 278.088,117.400 278.650 M45.115 280.072 C 45.492 280.221,49.220 280.344,53.400 280.344 C 57.580 280.344,61.308 280.221,61.685 280.072 C 62.062 279.922,58.334 279.800,53.400 279.800 C 48.466 279.800,44.738 279.922,45.115 280.072 M151.739 280.094 C 152.316 280.462,167.552 280.442,168.486 280.072 C 168.864 279.922,165.146 279.800,160.225 279.800 C 155.304 279.800,151.485 279.932,151.739 280.094 M310.400 294.386 C 324.590 294.643,325.603 295.029,325.599 300.161 C 325.594 305.134,323.742 305.800,309.923 305.800 C 303.820 305.800,299.240 305.945,299.722 306.124 C 301.733 306.867,320.878 306.261,322.595 305.400 C 327.070 303.155,327.191 297.071,322.806 294.741 C 321.532 294.063,320.438 294.007,310.006 294.086 L 298.600 294.171 310.400 294.386 " stroke="none" fill="#40a1f1" fill-rule="evenodd"></path><path id="path2" d="M44.000 147.492 C 40.552 149.153,40.285 150.203,40.469 161.405 C 40.613 170.187,40.630 170.255,43.198 172.100 L 44.728 173.200 53.384 173.200 C 63.043 173.200,63.525 173.094,65.479 170.531 L 66.600 169.062 66.600 160.000 L 66.600 150.937 65.523 149.525 C 63.602 147.008,62.681 146.799,53.540 146.809 C 46.740 146.817,45.169 146.929,44.000 147.492 M97.272 147.473 C 96.541 147.833,95.461 148.760,94.872 149.532 L 93.800 150.938 93.800 160.000 L 93.800 169.062 94.921 170.532 C 96.872 173.090,97.366 173.200,106.921 173.200 C 119.811 173.200,119.800 173.212,119.800 160.040 L 119.800 150.938 118.647 149.426 C 116.796 146.999,115.883 146.799,106.713 146.809 C 100.022 146.817,98.367 146.933,97.272 147.473 M150.283 147.636 C 147.368 149.175,147.203 149.830,147.201 159.920 C 147.200 169.978,147.286 170.357,149.997 172.151 L 151.647 173.242 160.523 173.121 C 173.260 172.947,172.947 173.260,173.121 160.525 C 173.306 146.941,173.161 146.789,159.974 146.818 C 152.590 146.834,151.653 146.913,150.283 147.636 M204.200 147.429 C 200.556 149.324,200.331 150.123,200.478 160.636 C 200.654 173.293,200.558 173.200,213.414 173.200 C 222.962 173.200,223.537 173.078,225.379 170.663 L 226.400 169.324 226.400 160.000 C 226.400 149.513,226.256 148.972,223.062 147.456 C 221.075 146.513,206.003 146.491,204.200 147.429 M257.272 147.473 C 256.541 147.833,255.461 148.760,254.872 149.532 L 253.800 150.938 253.800 160.040 C 253.800 173.231,253.769 173.200,266.800 173.200 C 279.831 173.200,279.800 173.231,279.800 160.040 L 279.800 150.939 278.647 149.427 C 276.796 146.999,275.883 146.799,266.713 146.809 C 260.022 146.817,258.367 146.933,257.272 147.473 M310.332 147.611 C 307.282 149.222,307.200 149.548,307.200 160.111 L 307.200 169.499 308.500 170.850 C 310.736 173.173,310.870 173.200,319.969 173.200 C 333.117 173.200,333.200 173.116,333.200 159.868 C 333.200 146.942,333.046 146.790,320.015 146.818 C 312.679 146.833,311.643 146.918,310.332 147.611 M43.836 200.803 C 43.195 201.212,42.205 202.049,41.636 202.664 L 40.600 203.781 40.600 213.190 C 40.600 226.724,40.275 226.400,53.872 226.400 L 62.821 226.400 64.574 224.647 C 66.725 222.496,66.979 220.902,66.727 211.097 C 66.530 203.412,66.298 202.745,63.158 200.831 C 61.193 199.633,45.701 199.610,43.836 200.803 M96.778 201.131 C 93.875 202.977,93.800 203.288,93.800 213.561 C 93.800 226.565,93.631 226.400,106.902 226.400 C 120.072 226.400,120.143 226.325,119.930 212.565 C 119.738 200.232,119.495 200.000,106.743 200.000 L 98.557 200.000 96.778 201.131 M150.546 200.767 C 149.857 201.188,148.822 202.149,148.246 202.904 L 147.200 204.276 147.200 213.158 C 147.200 222.986,147.313 223.530,149.737 225.379 L 151.076 226.400 160.200 226.400 L 169.324 226.400 170.663 225.379 C 173.079 223.537,173.200 222.963,173.200 213.400 C 173.200 203.263,172.987 202.558,169.305 200.500 C 167.684 199.594,152.107 199.816,150.546 200.767 M203.647 201.212 C 200.521 203.476,200.403 203.909,200.401 213.113 C 200.400 222.271,200.582 223.103,203.041 225.130 L 204.582 226.400 211.791 226.386 L 219.000 226.373 222.700 223.291 L 226.400 220.209 226.400 212.299 C 226.400 200.346,226.030 200.000,213.264 200.000 L 205.320 200.000 203.647 201.212 M285.097 247.935 C 281.027 248.912,280.771 250.282,280.896 270.459 L 281.000 287.400 282.000 287.260 C 283.950 286.986,290.216 287.065,291.300 287.377 L 292.400 287.693 292.398 270.347 C 292.396 259.613,292.238 252.431,291.981 251.508 C 291.260 248.913,288.023 247.233,285.097 247.935 M44.093 254.055 C 40.707 255.722,40.600 256.106,40.600 266.639 C 40.600 280.087,40.320 279.800,53.439 279.800 C 63.236 279.800,63.599 279.723,65.507 277.229 L 66.600 275.800 66.600 266.737 L 66.600 257.675 65.364 256.137 C 63.276 253.541,62.742 253.411,53.800 253.308 C 46.378 253.222,45.677 253.276,44.093 254.055 M97.460 254.001 C 93.896 255.780,93.489 257.258,93.665 267.803 L 93.800 275.864 94.893 277.296 C 96.790 279.781,98.295 280.093,107.653 279.936 C 119.697 279.735,119.737 279.694,119.932 267.600 C 120.153 253.836,119.541 253.187,106.354 253.216 C 99.921 253.230,98.807 253.328,97.460 254.001 M150.300 254.377 C 147.301 256.279,147.200 256.682,147.200 266.748 C 147.200 279.888,147.112 279.800,160.271 279.800 C 173.221 279.800,173.200 279.821,173.200 266.634 C 173.200 253.609,172.794 253.200,159.883 253.200 L 152.157 253.200 150.300 254.377 M299.435 295.700 C 299.866 297.368,299.869 302.621,299.441 304.273 C 298.991 306.008,299.544 306.084,311.407 305.927 C 323.705 305.764,325.646 304.952,325.569 300.000 C 325.491 294.908,324.101 294.400,310.256 294.400 L 299.100 294.400 299.435 295.700 " stroke="none" fill="#314b93" fill-rule="evenodd"></path><path id="path3" d="M103.605 0.278 C 103.058 0.389,102.130 0.822,101.543 1.240 C 100.957 1.658,100.366 2.000,100.231 2.000 C 99.799 2.000,95.005 7.032,94.870 7.627 C 94.799 7.942,94.574 8.260,94.370 8.333 C 94.167 8.407,94.000 8.724,94.000 9.039 C 94.000 9.353,93.842 9.923,93.649 10.305 C 93.456 10.687,93.096 11.643,92.849 12.428 C 92.286 14.220,92.244 25.857,92.800 26.200 C 93.048 26.353,93.208 30.193,93.220 36.324 C 93.250 50.671,93.587 54.222,95.226 57.450 C 96.691 60.337,100.257 63.948,102.705 65.024 C 103.527 65.386,104.632 65.888,105.161 66.141 C 107.366 67.195,113.945 66.667,117.000 65.190 C 121.301 63.112,123.629 60.483,126.023 55.000 C 126.409 54.115,126.591 50.200,126.716 40.100 C 126.810 32.447,127.043 26.400,127.243 26.400 C 127.743 26.400,127.701 14.910,127.200 14.600 C 126.980 14.464,126.800 13.463,126.800 12.376 C 126.800 11.289,126.620 10.400,126.400 10.400 C 126.180 10.400,126.000 10.040,126.000 9.600 C 126.000 9.160,125.856 8.800,125.680 8.800 C 125.505 8.800,125.129 8.159,124.846 7.376 C 124.274 5.796,121.306 2.615,120.024 2.208 C 119.571 2.064,119.200 1.778,119.200 1.573 C 119.200 1.368,118.855 1.200,118.433 1.200 C 118.012 1.200,117.592 0.975,117.500 0.700 C 117.330 0.187,105.776 -0.164,103.605 0.278 M256.900 0.265 C 256.405 0.370,256.000 0.623,256.000 0.828 C 256.000 1.033,255.640 1.200,255.200 1.200 C 254.760 1.200,254.400 1.380,254.400 1.600 C 254.400 1.820,254.126 2.000,253.791 2.000 C 253.107 2.000,248.800 6.148,248.800 6.808 C 248.800 7.042,248.440 7.620,248.000 8.092 C 247.560 8.564,247.200 9.367,247.200 9.875 C 247.200 10.384,247.020 10.800,246.800 10.800 C 246.580 10.800,246.400 11.419,246.400 12.176 C 246.400 12.933,246.220 13.664,246.000 13.800 C 245.293 14.237,245.482 26.269,246.200 26.545 C 246.716 26.743,246.801 28.581,246.804 39.687 C 246.809 53.660,246.909 54.487,249.078 58.472 C 250.311 60.737,253.870 64.127,256.000 65.065 C 256.770 65.404,257.804 65.873,258.297 66.107 C 259.663 66.754,266.310 66.694,268.400 66.015 C 275.233 63.796,279.220 58.335,279.958 50.184 C 280.563 43.505,280.941 13.334,280.424 13.015 C 280.191 12.871,280.000 12.133,280.000 11.376 C 280.000 10.619,279.820 10.000,279.600 10.000 C 279.380 10.000,279.200 9.640,279.200 9.200 C 279.200 8.760,279.020 8.400,278.800 8.400 C 278.580 8.400,278.400 8.153,278.400 7.851 C 278.400 7.174,273.504 2.000,272.864 2.000 C 272.609 2.000,272.400 1.820,272.400 1.600 C 272.400 1.380,272.055 1.200,271.633 1.200 C 271.212 1.200,270.792 0.975,270.700 0.700 C 270.533 0.196,258.956 -0.169,256.900 0.265 M12.800 216.072 C 12.800 311.594,12.821 313.264,14.049 315.695 C 14.242 316.077,14.400 316.654,14.400 316.977 C 14.400 317.300,14.940 318.481,15.600 319.600 C 16.260 320.719,16.800 321.768,16.800 321.929 C 16.800 322.091,17.160 322.483,17.600 322.800 C 18.040 323.117,18.400 323.532,18.400 323.723 C 18.400 324.230,22.827 328.400,23.365 328.400 C 23.617 328.400,24.083 328.760,24.400 329.200 C 24.717 329.640,25.207 330.000,25.488 330.000 C 25.770 330.000,26.000 330.180,26.000 330.400 C 26.000 330.620,26.360 330.800,26.800 330.800 C 27.240 330.800,27.600 330.980,27.600 331.200 C 27.600 331.420,27.949 331.600,28.376 331.600 C 28.803 331.600,29.264 331.780,29.400 332.000 C 29.536 332.220,29.997 332.400,30.424 332.400 C 30.851 332.400,31.200 332.580,31.200 332.800 C 31.200 333.020,31.819 333.200,32.576 333.200 C 33.333 333.200,34.064 333.380,34.200 333.600 C 34.363 333.864,61.137 334.000,113.224 334.000 L 192.000 334.000 192.000 333.026 C 192.000 332.490,191.807 331.545,191.570 330.926 C 179.586 299.530,189.441 257.198,214.947 230.511 L 218.495 226.800 211.727 226.800 C 200.711 226.800,200.000 225.988,200.000 213.400 C 200.000 200.337,200.343 200.000,213.654 200.000 L 222.524 200.000 223.896 201.046 C 226.640 203.139,226.797 203.736,226.799 212.100 C 226.799 216.225,226.897 219.600,227.015 219.600 C 227.134 219.600,228.799 218.551,230.715 217.269 C 242.951 209.082,257.831 203.253,271.600 201.253 C 273.250 201.013,275.320 200.704,276.200 200.566 C 279.474 200.053,294.207 199.929,297.600 200.385 C 303.741 201.211,308.484 202.144,314.000 203.613 C 321.687 205.661,337.145 212.585,339.673 215.113 C 339.941 215.381,340.314 215.600,340.502 215.600 C 340.993 215.600,345.331 218.576,348.600 221.157 C 351.314 223.298,352.898 224.693,357.621 229.100 C 358.859 230.255,359.991 231.200,360.136 231.200 C 360.281 231.200,360.400 206.299,360.400 175.865 L 360.400 120.530 346.300 120.265 C 338.545 120.120,260.335 120.001,172.500 120.001 L 12.800 120.000 12.800 216.072 M61.762 146.667 C 65.850 147.342,67.205 150.705,67.190 160.131 C 67.170 172.753,66.295 173.600,53.286 173.600 C 40.379 173.600,40.000 173.210,40.000 159.951 C 40.000 149.374,40.423 148.294,45.200 146.667 C 46.084 146.366,59.940 146.366,61.762 146.667 M117.296 147.600 C 121.435 150.366,122.055 168.138,118.133 171.600 C 115.918 173.555,115.667 173.600,106.867 173.600 C 93.839 173.600,93.200 172.972,93.200 160.153 C 93.200 146.873,93.655 146.436,107.400 146.538 C 115.645 146.599,115.828 146.618,117.296 147.600 M170.509 147.593 C 173.385 149.565,173.600 150.427,173.600 160.000 C 173.600 173.214,173.215 173.600,160.059 173.600 C 151.289 173.600,150.899 173.537,148.862 171.800 C 146.926 170.149,146.800 169.428,146.800 160.000 C 146.800 146.558,147.035 146.332,160.830 146.500 C 168.859 146.598,169.096 146.624,170.509 147.593 M223.659 147.319 C 224.241 147.714,225.186 148.714,225.759 149.540 L 226.800 151.043 226.800 159.948 C 226.800 169.136,226.714 169.705,225.050 171.535 C 223.379 173.372,222.083 173.600,213.286 173.600 C 200.379 173.600,200.000 173.210,200.000 159.951 C 200.000 149.342,200.352 148.441,205.200 146.650 C 206.874 146.031,222.602 146.601,223.659 147.319 M277.376 147.754 C 280.050 149.795,280.381 151.121,280.391 159.840 C 280.402 169.396,279.825 171.231,276.249 173.015 C 274.765 173.756,258.874 173.871,257.474 173.151 C 253.733 171.229,253.200 169.583,253.200 159.947 C 253.200 150.962,253.597 149.300,256.105 147.783 C 258.242 146.491,258.674 146.443,267.432 146.523 L 275.864 146.600 277.376 147.754 M329.996 147.201 C 333.252 149.160,333.600 150.420,333.600 160.233 C 333.600 173.166,333.162 173.600,320.126 173.600 C 306.922 173.600,306.600 173.267,306.600 159.600 C 306.600 149.658,307.027 148.452,311.074 146.962 C 313.287 146.147,328.564 146.340,329.996 147.201 M64.467 201.567 C 66.779 203.601,67.200 205.396,67.200 213.211 C 67.200 226.048,66.429 226.800,53.279 226.800 C 40.239 226.800,40.256 226.817,40.078 213.908 C 39.941 203.978,40.030 203.522,42.527 201.384 L 44.144 200.000 53.416 200.000 L 62.687 200.000 64.467 201.567 M117.191 200.900 C 120.038 202.857,120.400 204.247,120.400 213.215 C 120.400 226.399,120.003 226.800,106.943 226.800 C 93.441 226.800,93.400 226.759,93.400 213.400 C 93.400 203.141,93.534 202.604,96.555 200.762 C 98.620 199.503,115.321 199.614,117.191 200.900 M170.884 201.208 C 173.463 203.334,173.600 203.940,173.600 213.213 C 173.600 222.088,173.375 223.377,171.535 225.050 C 169.708 226.711,169.128 226.800,160.126 226.799 C 150.397 226.797,149.984 226.699,147.846 223.896 L 146.800 222.524 146.800 213.508 C 146.800 203.423,146.896 202.981,149.492 201.116 L 151.000 200.033 160.209 200.016 L 169.418 200.000 170.884 201.208 M278.400 226.989 C 278.070 227.066,276.450 227.342,274.800 227.604 C 270.432 228.296,263.673 230.140,260.200 231.585 C 257.232 232.821,255.920 233.412,253.800 234.469 C 235.895 243.398,221.648 260.384,216.367 279.100 C 214.863 284.429,214.460 286.438,213.780 292.000 C 212.952 298.763,213.302 308.370,214.574 313.800 C 214.678 314.240,215.052 315.828,215.407 317.329 C 220.659 339.551,237.152 358.921,258.200 367.589 C 264.367 370.129,266.516 370.771,274.200 372.366 C 283.632 374.325,297.353 373.661,306.400 370.808 C 306.950 370.635,308.210 370.261,309.200 369.977 C 310.190 369.693,311.171 369.312,311.380 369.130 C 311.589 368.949,311.996 368.800,312.284 368.800 C 314.545 368.800,325.964 362.518,331.400 358.283 C 336.578 354.250,346.800 343.589,346.800 342.222 C 346.800 342.082,347.160 341.580,347.600 341.108 C 348.040 340.636,348.400 340.013,348.400 339.725 C 348.400 339.436,348.535 339.200,348.701 339.200 C 348.866 339.200,349.447 338.345,349.991 337.300 C 350.535 336.255,351.075 335.310,351.190 335.200 C 351.436 334.966,353.212 331.303,354.197 329.000 C 354.574 328.120,355.036 327.040,355.224 326.600 C 356.760 323.011,358.285 317.117,359.312 310.800 C 359.942 306.925,359.942 293.075,359.312 289.200 C 358.285 282.883,356.759 276.984,355.224 273.400 C 353.800 270.075,350.489 263.501,349.547 262.128 C 348.916 261.208,348.400 260.308,348.400 260.128 C 348.399 259.948,347.994 259.321,347.500 258.736 C 347.005 258.150,345.790 256.548,344.800 255.176 C 342.505 251.994,335.828 245.216,332.199 242.385 C 329.095 239.963,325.774 237.600,325.475 237.600 C 325.369 237.600,324.138 236.919,322.741 236.086 C 316.276 232.236,309.253 229.648,300.083 227.738 C 297.272 227.152,280.240 226.565,278.400 226.989 M289.975 248.345 C 292.720 250.326,292.590 249.311,292.695 269.649 L 292.791 288.040 294.491 289.338 C 295.427 290.051,296.734 291.381,297.396 292.293 L 298.600 293.951 310.006 293.976 C 324.164 294.006,326.000 294.697,326.000 300.000 C 326.000 305.411,323.929 306.200,309.727 306.200 L 298.454 306.200 297.858 307.200 C 293.801 314.008,283.590 315.261,277.647 309.681 C 271.782 304.174,272.102 294.765,278.324 289.710 L 280.449 287.985 280.413 270.778 C 280.373 251.884,280.445 251.181,282.670 248.957 C 284.541 247.086,287.847 246.809,289.975 248.345 M62.905 253.700 C 66.489 255.703,67.200 257.813,67.200 266.442 C 67.200 279.350,66.136 280.407,53.154 280.391 C 40.452 280.376,39.881 279.745,40.077 265.950 L 40.200 257.335 41.306 255.887 C 43.217 253.384,43.644 253.290,53.305 253.242 C 59.595 253.212,62.259 253.339,62.905 253.700 M117.015 254.188 C 119.991 255.932,120.400 257.416,120.400 266.467 C 120.400 279.575,119.570 280.401,106.400 280.389 C 97.945 280.381,96.583 280.035,94.554 277.375 L 93.400 275.863 93.400 267.032 C 93.400 256.800,93.559 256.116,96.349 254.346 L 98.157 253.200 106.743 253.200 C 115.152 253.200,115.365 253.220,117.015 254.188 M169.659 253.767 C 173.135 255.219,173.600 256.747,173.600 266.719 C 173.600 279.761,172.962 280.400,159.936 280.400 C 147.186 280.400,146.800 279.997,146.800 266.702 C 146.800 256.456,146.968 255.790,150.000 254.031 C 151.810 252.981,167.281 252.773,169.659 253.767 " stroke="none" fill="#e7effb" fill-rule="evenodd"></path><path id="path4" d="M282.289 287.324 C 279.663 288.059,276.375 291.073,274.847 294.148 C 269.333 305.247,280.856 317.206,292.109 312.061 C 307.374 305.082,298.522 282.783,282.289 287.324 " stroke="none" fill="#fbd548" fill-rule="evenodd"></path></g></svg>