<svg id="svg" version="1.1" xmlns="http://www.w3.org/2000/svg" xmlns:xlink="http://www.w3.org/1999/xlink" width="400" height="400" viewBox="0, 0, 400,400"><g id="svgg"><path id="path0" d="M230.400 129.024 C 221.232 130.043,220.016 130.111,219.442 129.635 C 219.039 129.300,218.621 129.266,218.126 129.529 C 217.727 129.741,216.770 130.014,216.000 130.137 C 214.810 130.327,211.852 131.002,211.200 131.231 C 211.090 131.270,210.820 131.348,210.600 131.404 C 208.760 131.873,206.460 132.547,205.800 132.812 C 205.360 132.989,204.145 133.367,203.100 133.654 C 202.055 133.940,201.200 134.315,201.200 134.487 C 201.200 134.659,200.838 134.800,200.395 134.800 C 199.952 134.800,199.232 134.980,198.795 135.200 C 198.358 135.420,197.642 135.780,197.205 136.000 C 196.768 136.220,196.138 136.400,195.805 136.400 C 195.472 136.400,195.200 136.580,195.200 136.800 C 195.200 137.020,194.750 137.200,194.200 137.200 C 193.650 137.200,193.200 137.380,193.200 137.600 C 193.200 137.820,192.930 138.000,192.600 138.000 C 192.270 138.000,192.000 138.180,192.000 138.400 C 192.000 138.620,191.640 138.800,191.200 138.800 C 190.760 138.800,190.400 138.980,190.400 139.200 C 190.400 139.420,190.040 139.600,189.600 139.600 C 189.160 139.600,188.800 139.780,188.800 140.000 C 188.800 140.220,188.440 140.400,188.000 140.400 C 187.560 140.400,187.200 140.580,187.200 140.800 C 187.200 141.020,186.932 141.200,186.605 141.200 C 186.277 141.200,185.692 141.471,185.305 141.803 C 184.917 142.135,184.420 142.421,184.200 142.438 C 183.980 142.455,182.945 143.083,181.899 143.834 C 180.854 144.585,179.819 145.200,179.599 145.200 C 179.380 145.200,179.200 145.391,179.200 145.624 C 179.200 145.857,179.020 145.936,178.800 145.800 C 178.580 145.664,178.400 145.729,178.400 145.944 C 178.400 146.159,177.732 146.748,176.915 147.253 C 176.098 147.758,175.147 148.447,174.801 148.785 C 174.456 149.123,173.572 149.850,172.838 150.400 C 172.104 150.950,171.215 151.715,170.863 152.100 C 170.510 152.485,170.069 152.800,169.883 152.800 C 169.696 152.800,168.405 153.925,167.014 155.300 C 165.623 156.675,163.791 158.442,162.942 159.227 C 162.094 160.012,160.410 161.790,159.200 163.178 C 157.990 164.566,156.595 166.121,156.100 166.633 C 155.605 167.145,155.200 167.718,155.200 167.907 C 155.200 168.096,154.660 168.768,154.000 169.400 C 153.340 170.032,152.800 170.694,152.800 170.870 C 152.800 171.047,152.540 171.508,152.222 171.895 C 150.326 174.208,148.000 177.584,148.000 178.023 C 148.000 178.306,147.738 178.827,147.417 179.181 C 146.744 179.925,144.486 183.866,144.141 184.900 C 144.012 185.285,143.748 185.600,143.553 185.600 C 143.359 185.600,143.200 185.949,143.200 186.376 C 143.200 186.803,143.017 187.266,142.793 187.404 C 142.570 187.542,142.483 187.810,142.600 188.000 C 142.717 188.190,142.630 188.458,142.407 188.596 C 142.183 188.734,142.000 189.197,142.000 189.624 C 142.000 190.051,141.820 190.400,141.600 190.400 C 141.380 190.400,141.200 190.665,141.200 190.988 C 141.200 191.311,140.840 192.217,140.400 193.000 C 139.960 193.783,139.600 194.655,139.600 194.937 C 139.600 195.219,139.240 196.195,138.800 197.106 C 138.360 198.016,138.000 199.119,138.000 199.557 C 138.000 199.995,137.820 200.464,137.600 200.600 C 137.380 200.736,137.200 201.276,137.200 201.800 C 137.200 202.324,137.020 202.864,136.800 203.000 C 136.580 203.136,136.400 203.856,136.400 204.600 C 136.400 205.344,136.220 206.064,136.000 206.200 C 135.780 206.336,135.600 206.966,135.600 207.600 C 135.600 208.234,135.420 208.864,135.200 209.000 C 134.980 209.136,134.800 209.946,134.800 210.800 C 134.800 211.654,134.620 212.464,134.400 212.600 C 134.180 212.736,134.000 213.611,134.000 214.544 C 134.000 215.477,133.835 216.411,133.632 216.620 C 131.619 218.701,133.182 246.110,135.981 257.800 C 136.192 258.680,136.476 259.940,136.612 260.600 C 136.749 261.260,137.003 262.160,137.178 262.600 C 138.302 265.433,139.205 268.954,138.986 269.646 C 138.844 270.093,138.947 271.031,139.214 271.729 C 140.303 274.570,140.609 275.200,140.898 275.200 C 141.064 275.200,141.200 275.614,141.200 276.120 C 141.200 276.626,141.350 277.211,141.534 277.420 C 141.718 277.629,142.187 278.666,142.577 279.726 C 143.295 281.677,147.942 289.688,148.498 289.933 C 148.664 290.007,148.800 290.412,148.800 290.833 C 148.800 291.255,148.950 291.600,149.132 291.600 C 149.315 291.600,149.720 292.095,150.032 292.700 C 150.344 293.305,150.735 293.901,150.902 294.025 C 151.069 294.149,150.754 294.643,150.203 295.123 C 149.651 295.602,149.200 295.879,149.200 295.738 C 149.200 295.597,148.790 296.091,148.288 296.835 C 147.786 297.579,146.931 298.413,146.388 298.688 C 145.845 298.963,145.568 299.191,145.774 299.194 C 146.199 299.201,134.950 310.623,133.952 311.199 C 133.352 311.545,124.106 302.914,123.666 301.597 C 123.592 301.376,123.394 301.280,123.226 301.384 C 123.058 301.488,122.683 301.129,122.393 300.586 C 122.102 300.044,121.615 299.600,121.309 299.600 C 121.003 299.600,120.864 299.420,121.000 299.200 C 121.136 298.980,120.977 298.800,120.646 298.800 C 120.316 298.800,119.762 298.395,119.415 297.900 C 119.068 297.405,118.682 297.063,118.557 297.141 C 118.431 297.219,117.895 296.905,117.364 296.444 C 116.834 295.983,116.400 295.690,116.400 295.793 C 116.400 295.896,115.905 295.783,115.300 295.543 C 111.138 293.888,105.952 293.675,102.153 295.002 C 100.652 295.527,99.362 295.896,99.288 295.822 C 99.214 295.748,98.584 296.208,97.888 296.844 C 97.191 297.480,96.488 298.000,96.324 298.000 C 95.578 298.000,91.138 303.192,91.873 303.206 C 92.053 303.209,92.020 303.344,91.800 303.506 C 91.155 303.980,90.400 305.525,90.400 306.371 C 90.400 306.801,90.220 307.264,90.000 307.400 C 89.780 307.536,89.600 308.141,89.600 308.744 C 89.600 309.347,89.375 310.082,89.100 310.379 C 88.700 310.810,88.700 310.861,89.100 310.635 C 89.375 310.480,89.600 310.543,89.600 310.776 C 89.600 311.009,89.420 311.200,89.200 311.200 C 88.678 311.200,88.678 314.678,89.200 315.000 C 89.420 315.136,89.600 316.047,89.600 317.024 C 89.600 318.001,89.780 318.800,90.000 318.800 C 90.220 318.800,90.400 319.250,90.400 319.800 C 90.400 320.350,90.580 320.800,90.800 320.800 C 91.020 320.800,91.200 321.049,91.200 321.354 C 91.200 322.699,92.824 324.649,99.615 331.459 L 106.854 338.718 105.173 340.259 C 104.248 341.106,98.889 346.423,93.265 352.074 C 87.640 357.724,82.894 362.258,82.719 362.150 C 82.544 362.041,82.400 362.169,82.400 362.432 C 82.400 362.696,81.230 364.064,79.800 365.474 C 78.370 366.883,77.200 368.195,77.200 368.391 C 77.200 368.586,76.840 368.860,76.400 369.000 C 75.709 369.219,75.373 369.752,75.700 370.109 C 75.755 370.170,75.395 370.653,74.900 371.185 C 74.405 371.716,74.000 372.387,74.000 372.675 C 74.000 372.964,73.820 373.200,73.600 373.200 C 73.380 373.200,73.200 373.560,73.200 374.000 C 73.200 374.440,73.059 374.800,72.887 374.800 C 72.715 374.800,72.536 375.260,72.490 375.821 C 72.443 376.383,72.224 377.181,72.003 377.595 C 71.496 378.542,71.469 386.000,71.972 386.000 C 72.177 386.000,72.406 386.405,72.482 386.900 C 72.557 387.395,72.850 387.752,73.133 387.692 C 73.415 387.633,74.845 387.793,76.310 388.048 C 84.250 389.431,86.360 388.095,104.202 370.377 C 122.771 351.938,121.378 352.494,129.410 360.323 C 132.853 363.680,133.590 364.600,133.377 365.273 C 133.210 365.798,133.266 366.006,133.530 365.843 C 133.758 365.702,134.228 365.990,134.573 366.482 C 134.918 366.975,135.203 367.203,135.206 366.989 C 135.209 366.775,135.375 366.857,135.573 367.170 C 135.772 367.484,136.297 367.796,136.741 367.864 C 137.185 367.932,138.566 368.453,139.809 369.021 C 151.933 374.567,165.600 365.851,165.600 352.572 C 165.600 349.817,165.135 347.972,163.139 342.806 C 162.364 340.800,160.327 338.400,159.399 338.400 C 158.730 338.400,151.412 330.802,150.655 329.320 C 148.971 326.028,149.404 325.315,159.173 315.289 C 171.319 302.823,171.486 302.756,178.598 307.584 C 180.027 308.554,183.144 310.427,186.600 312.391 C 197.215 318.427,206.386 321.774,218.600 324.073 C 222.217 324.754,238.813 324.746,244.000 324.060 C 252.486 322.939,263.301 320.372,267.800 318.411 C 268.240 318.219,269.410 317.736,270.400 317.337 C 281.905 312.700,291.884 305.825,302.115 295.489 C 306.746 290.809,307.835 289.514,312.554 283.058 C 334.524 253.005,338.116 210.753,321.605 176.600 C 318.184 169.525,312.413 160.147,309.495 156.920 C 309.057 156.437,308.802 155.771,308.929 155.441 C 309.078 155.054,308.973 154.912,308.634 155.042 C 308.296 155.172,308.021 154.807,307.864 154.022 C 307.730 153.350,307.442 152.800,307.224 152.800 C 306.834 152.800,306.286 152.369,303.669 150.003 C 302.937 149.341,302.247 148.800,302.135 148.800 C 301.922 148.800,298.350 146.364,298.000 145.981 C 297.347 145.265,295.269 144.064,295.055 144.278 C 294.915 144.419,294.800 144.323,294.800 144.067 C 294.800 143.810,294.524 143.600,294.187 143.600 C 293.851 143.600,293.476 143.341,293.354 143.024 C 293.233 142.708,292.608 142.334,291.967 142.193 C 291.325 142.052,290.799 141.816,290.799 141.668 C 290.798 141.521,289.808 140.950,288.600 140.400 C 287.392 139.850,286.402 139.265,286.401 139.100 C 286.401 138.935,286.040 138.800,285.600 138.800 C 285.160 138.800,284.800 138.620,284.800 138.400 C 284.800 138.180,284.440 138.000,284.000 138.000 C 283.560 138.000,283.200 137.820,283.200 137.600 C 283.200 137.380,282.935 137.200,282.612 137.200 C 282.289 137.200,281.383 136.840,280.600 136.400 C 279.817 135.960,278.836 135.600,278.421 135.600 C 278.006 135.600,277.607 135.465,277.533 135.300 C 277.368 134.929,273.792 133.563,272.300 133.302 C 271.695 133.196,271.200 132.950,271.200 132.755 C 271.200 132.560,270.690 132.400,270.067 132.400 C 269.443 132.400,268.805 132.271,268.647 132.114 C 268.271 131.737,264.846 130.840,263.700 130.818 C 263.205 130.808,262.800 130.620,262.800 130.400 C 262.800 129.792,261.315 129.922,261.074 130.552 C 260.910 130.980,260.472 131.027,259.131 130.762 C 252.171 129.388,235.952 128.407,230.400 129.024 M247.833 165.213 C 258.108 167.008,267.040 169.903,267.479 171.579 C 267.596 172.029,268.168 172.461,268.841 172.609 C 269.478 172.749,270.000 173.029,270.000 173.232 C 270.000 173.434,270.360 173.600,270.800 173.600 C 271.240 173.600,271.600 173.789,271.600 174.021 C 271.600 174.252,272.140 174.630,272.800 174.860 C 273.460 175.090,274.000 175.441,274.000 175.639 C 274.000 175.838,274.270 176.000,274.600 176.000 C 274.930 176.000,275.200 176.180,275.200 176.400 C 275.200 176.620,275.448 176.800,275.751 176.800 C 276.054 176.800,276.530 177.074,276.808 177.410 C 277.086 177.745,277.396 177.937,277.497 177.836 C 277.676 177.658,279.419 179.088,281.718 181.300 C 282.347 181.905,282.994 182.400,283.155 182.400 C 283.317 182.400,284.203 183.215,285.124 184.211 C 286.046 185.207,286.800 185.914,286.800 185.782 C 286.800 185.651,287.070 185.813,287.400 186.143 C 287.730 186.473,288.000 186.892,288.000 187.075 C 288.000 187.258,288.360 187.632,288.800 187.907 C 289.240 188.182,289.600 188.686,289.600 189.027 C 289.600 189.368,289.780 189.536,290.000 189.400 C 290.220 189.264,290.400 189.444,290.400 189.800 C 290.400 190.156,290.580 190.336,290.800 190.200 C 291.020 190.064,291.200 190.244,291.200 190.600 C 291.200 190.956,291.361 191.148,291.558 191.026 C 291.882 190.826,292.478 191.712,292.565 192.521 C 292.584 192.698,292.969 193.238,293.421 193.721 C 294.646 195.033,296.098 197.200,295.751 197.200 C 295.584 197.200,295.737 197.425,296.091 197.700 C 296.849 198.288,299.600 203.410,299.600 204.233 C 299.600 204.545,299.735 204.801,299.900 204.803 C 300.259 204.807,301.200 206.744,301.200 207.480 C 301.200 207.766,301.380 208.000,301.600 208.000 C 301.820 208.000,302.000 208.450,302.000 209.000 C 302.000 209.550,302.180 210.000,302.400 210.000 C 302.620 210.000,302.800 210.439,302.800 210.976 C 302.800 211.513,302.980 212.064,303.200 212.200 C 303.420 212.336,303.600 212.977,303.600 213.624 C 303.600 214.271,303.761 214.800,303.958 214.800 C 304.155 214.800,304.413 215.475,304.532 216.300 C 304.651 217.125,304.957 218.700,305.213 219.800 C 305.468 220.900,305.765 222.925,305.873 224.300 C 305.980 225.675,306.241 226.800,306.452 226.800 C 307.162 226.800,306.397 244.434,305.611 246.200 C 305.257 246.994,304.957 248.420,304.535 251.300 C 304.415 252.125,304.155 252.800,303.958 252.800 C 303.761 252.800,303.600 253.239,303.600 253.776 C 303.600 254.313,303.420 254.864,303.200 255.000 C 302.980 255.136,302.800 255.651,302.800 256.144 C 302.800 256.637,302.651 257.211,302.470 257.420 C 302.288 257.629,301.899 258.565,301.606 259.500 C 301.312 260.435,300.921 261.200,300.736 261.200 C 300.551 261.200,300.400 261.452,300.400 261.759 C 300.400 262.299,299.610 263.885,296.795 269.000 C 296.068 270.320,294.332 272.888,292.937 274.706 C 291.542 276.525,290.400 278.190,290.400 278.406 C 290.400 278.623,290.265 278.800,290.100 278.801 C 289.935 278.802,287.865 280.692,285.500 283.001 C 283.135 285.310,281.020 287.200,280.800 287.200 C 280.580 287.200,280.400 287.350,280.400 287.532 C 280.400 287.715,279.905 288.117,279.300 288.425 C 278.695 288.733,277.703 289.483,277.097 290.092 C 276.490 290.702,275.817 291.200,275.601 291.200 C 275.386 291.200,274.841 291.515,274.392 291.900 C 273.942 292.285,273.445 292.613,273.287 292.629 C 272.636 292.693,270.800 293.753,270.800 294.064 C 270.800 294.249,270.562 294.400,270.271 294.400 C 269.981 294.400,269.037 294.743,268.174 295.163 C 267.311 295.583,266.469 295.842,266.302 295.740 C 266.136 295.637,266.000 295.743,266.000 295.976 C 266.000 296.209,265.640 296.400,265.200 296.400 C 264.760 296.400,264.400 296.550,264.400 296.732 C 264.400 297.089,259.206 298.933,258.203 298.933 C 257.871 298.933,257.600 299.083,257.600 299.267 C 257.600 299.450,257.161 299.600,256.624 299.600 C 256.087 299.600,255.536 299.780,255.400 300.000 C 255.264 300.220,254.454 300.400,253.600 300.400 C 252.746 300.400,251.936 300.580,251.800 300.800 C 251.664 301.020,250.404 301.200,249.000 301.200 C 247.596 301.200,246.336 301.380,246.200 301.600 C 246.049 301.844,242.996 302.000,238.376 302.000 C 233.592 302.000,230.800 301.853,230.800 301.600 C 230.800 301.371,229.600 301.200,228.000 301.200 C 226.400 301.200,225.200 301.029,225.200 300.800 C 225.200 300.580,224.491 300.400,223.624 300.400 C 222.757 300.400,221.936 300.220,221.800 300.000 C 221.664 299.780,220.944 299.600,220.200 299.600 C 219.456 299.600,218.736 299.420,218.600 299.200 C 218.464 298.980,218.001 298.800,217.571 298.800 C 217.141 298.800,216.477 298.641,216.095 298.447 C 215.410 298.098,214.256 297.614,212.100 296.769 C 211.495 296.532,210.145 295.902,209.100 295.369 C 208.055 294.836,206.930 294.400,206.600 294.400 C 206.270 294.400,206.000 294.220,206.000 294.000 C 206.000 293.780,205.730 293.600,205.400 293.600 C 205.070 293.600,204.800 293.434,204.800 293.231 C 204.800 293.028,204.170 292.654,203.400 292.400 C 202.630 292.146,202.000 291.772,202.000 291.569 C 202.000 291.366,201.764 291.200,201.475 291.200 C 201.187 291.200,200.602 290.876,200.175 290.480 C 199.749 290.084,198.755 289.319,197.966 288.780 C 194.862 286.658,192.105 284.139,188.290 279.942 C 187.020 278.544,185.355 276.733,184.590 275.918 C 183.826 275.103,183.200 274.158,183.200 273.818 C 183.200 273.478,183.050 273.200,182.868 273.200 C 182.685 273.200,182.294 272.750,182.000 272.199 C 181.705 271.649,180.893 270.862,180.194 270.450 C 175.494 267.676,167.036 239.190,169.530 234.531 C 169.763 234.096,169.993 232.621,170.043 231.253 C 170.092 229.885,170.283 228.672,170.466 228.559 C 170.650 228.446,170.800 227.196,170.800 225.782 C 170.800 224.368,170.998 222.354,171.241 221.306 C 171.483 220.258,171.826 218.770,172.003 218.000 C 172.181 217.230,172.645 215.520,173.035 214.200 C 173.425 212.880,173.790 211.548,173.846 211.240 C 173.901 210.932,174.153 210.553,174.404 210.397 C 174.656 210.242,174.819 209.864,174.768 209.557 C 174.670 208.975,174.999 207.887,175.629 206.705 C 175.833 206.323,176.000 205.738,176.000 205.405 C 176.000 205.072,176.146 204.800,176.325 204.800 C 176.504 204.800,176.898 204.170,177.200 203.400 C 177.502 202.630,177.896 202.000,178.075 202.000 C 178.254 202.000,178.400 201.640,178.400 201.200 C 178.400 200.760,178.559 200.400,178.753 200.400 C 178.948 200.400,179.207 200.085,179.329 199.700 C 179.659 198.658,180.904 196.691,181.700 195.954 C 182.085 195.598,182.400 195.137,182.400 194.931 C 182.400 194.725,183.030 193.869,183.800 193.028 C 184.570 192.187,185.200 191.340,185.200 191.146 C 185.200 190.638,195.108 180.800,195.620 180.800 C 195.855 180.800,195.936 180.620,195.800 180.400 C 195.664 180.180,195.832 180.000,196.173 180.000 C 196.514 180.000,197.290 179.505,197.897 178.900 C 199.069 177.731,200.943 176.495,202.100 176.129 C 202.485 176.007,202.800 175.748,202.800 175.553 C 202.800 175.359,203.042 175.200,203.338 175.200 C 203.634 175.200,204.202 174.840,204.600 174.400 C 204.998 173.960,205.501 173.600,205.717 173.600 C 205.934 173.600,207.613 172.880,209.448 172.000 C 212.831 170.377,218.300 168.388,219.657 168.286 C 220.066 168.255,220.400 168.088,220.400 167.915 C 220.400 167.742,221.019 167.600,221.776 167.600 C 222.533 167.600,223.264 167.420,223.400 167.200 C 223.536 166.980,224.312 166.797,225.124 166.794 C 226.887 166.787,229.791 165.969,230.472 165.288 C 231.091 164.669,244.390 164.612,247.833 165.213 " stroke="none" fill="#fb8383" fill-rule="evenodd"></path><path id="path1" d="M308.566 2.733 C 311.028 7.621,311.156 9.623,309.654 19.633 C 308.946 24.345,307.925 31.170,307.384 34.800 C 306.386 41.489,305.088 50.141,304.397 54.702 C 304.189 56.078,303.823 58.508,303.584 60.102 C 303.345 61.696,302.990 63.990,302.795 65.200 C 302.601 66.410,302.243 68.840,302.000 70.600 C 301.757 72.360,301.402 74.790,301.210 76.000 C 300.434 80.883,300.030 83.551,299.602 86.600 C 298.705 92.997,297.133 96.719,293.984 99.901 C 292.053 101.853,286.915 104.800,285.444 104.800 C 283.174 104.800,282.686 106.157,284.437 107.600 C 285.104 108.150,286.081 109.005,286.607 109.500 C 287.133 109.995,287.842 110.400,288.182 110.400 C 288.522 110.400,288.800 110.580,288.800 110.800 C 288.800 111.020,289.034 111.200,289.320 111.200 C 290.056 111.200,291.993 112.141,291.997 112.500 C 291.999 112.665,293.035 112.813,294.300 112.828 C 295.955 112.848,296.376 112.953,295.800 113.200 C 295.268 113.429,296.172 113.553,298.500 113.572 C 300.585 113.589,302.000 113.438,302.000 113.200 C 302.000 112.980,302.731 112.800,303.624 112.800 C 304.604 112.800,305.149 112.642,305.000 112.400 C 304.864 112.180,305.088 112.000,305.497 112.000 C 306.409 112.000,308.393 111.111,308.397 110.700 C 308.399 110.535,308.586 110.400,308.814 110.400 C 309.042 110.400,309.627 110.038,310.114 109.596 C 313.652 106.385,314.400 105.588,314.400 105.031 C 314.400 104.684,314.580 104.400,314.800 104.400 C 315.020 104.400,315.200 104.130,315.200 103.800 C 315.200 103.470,315.380 103.200,315.600 103.200 C 315.820 103.200,316.000 102.750,316.000 102.200 C 316.000 101.650,316.180 101.200,316.400 101.200 C 316.620 101.200,316.800 100.480,316.800 99.600 C 316.800 98.720,316.980 98.000,317.200 98.000 C 317.426 98.000,317.600 96.859,317.600 95.376 C 317.600 93.729,317.749 92.845,318.000 93.000 C 318.251 93.155,318.400 92.271,318.400 90.624 C 318.400 89.141,318.574 88.000,318.800 88.000 C 319.025 88.000,319.200 86.875,319.200 85.424 C 319.200 84.007,319.380 82.736,319.600 82.600 C 319.820 82.464,320.000 81.283,320.000 79.976 C 320.000 78.659,320.178 77.600,320.400 77.600 C 320.625 77.600,320.800 76.475,320.800 75.024 C 320.800 73.607,320.980 72.336,321.200 72.200 C 321.420 72.064,321.600 70.894,321.600 69.600 C 321.600 68.306,321.780 67.136,322.000 67.000 C 322.220 66.864,322.400 65.694,322.400 64.400 C 322.400 63.106,322.580 61.936,322.800 61.800 C 323.020 61.664,323.200 60.519,323.200 59.256 C 323.200 57.993,323.365 56.789,323.566 56.580 C 323.768 56.371,324.033 55.120,324.156 53.800 C 324.940 45.364,325.438 41.224,325.700 40.964 C 325.865 40.801,326.000 39.617,326.000 38.333 C 326.000 37.044,326.179 36.000,326.400 36.000 C 326.626 36.000,326.800 34.867,326.800 33.400 C 326.800 31.933,326.974 30.800,327.200 30.800 C 327.429 30.800,327.600 29.600,327.600 28.000 C 327.600 26.400,327.771 25.200,328.000 25.200 C 328.249 25.200,328.400 22.867,328.400 19.000 C 328.400 15.133,328.249 12.800,328.000 12.800 C 327.780 12.800,327.600 12.260,327.600 11.600 C 327.600 10.940,327.420 10.400,327.200 10.400 C 326.980 10.400,326.800 10.029,326.800 9.576 C 326.800 9.123,326.620 8.864,326.400 9.000 C 326.180 9.136,326.000 8.959,326.000 8.607 C 326.000 7.865,325.781 7.582,322.722 4.383 C 321.469 3.072,320.164 2.000,319.822 2.000 C 319.480 2.000,319.200 1.820,319.200 1.600 C 319.200 1.380,318.855 1.200,318.433 1.200 C 318.012 1.200,317.598 0.994,317.514 0.742 C 317.414 0.443,315.575 0.215,312.248 0.086 L 307.134 -0.111 308.566 2.733 M248.700 51.647 C 247.215 53.184,246.000 54.615,246.000 54.827 C 246.000 55.039,247.350 53.863,249.000 52.213 C 250.650 50.563,252.000 49.120,252.000 49.006 C 252.000 48.429,251.156 49.105,248.700 51.647 M277.283 52.350 C 276.301 52.618,269.958 58.867,248.282 80.919 C 232.195 97.284,231.787 97.865,231.819 104.361 C 231.839 108.504,232.807 111.290,235.699 115.530 C 237.080 117.554,239.549 121.976,241.238 125.451 C 242.590 128.233,242.332 128.128,249.600 128.848 C 251.690 129.055,254.570 129.405,256.000 129.626 C 260.804 130.367,260.983 130.346,261.132 129.043 C 261.205 128.407,261.115 127.777,260.932 127.643 C 260.341 127.210,259.600 125.632,259.600 124.805 C 259.600 124.362,259.443 124.000,259.250 124.000 C 258.923 124.000,258.228 121.766,258.346 121.100 C 258.376 120.935,258.220 120.800,258.000 120.800 C 257.780 120.800,257.600 120.440,257.600 120.000 C 257.600 119.560,257.420 119.200,257.200 119.200 C 256.980 119.200,256.800 118.840,256.800 118.400 C 256.800 117.960,256.620 117.600,256.400 117.600 C 256.180 117.600,256.000 117.240,256.000 116.800 C 256.000 116.360,255.820 116.000,255.600 116.000 C 255.380 116.000,255.200 115.655,255.200 115.233 C 255.200 114.812,255.065 114.407,254.900 114.333 C 254.524 114.166,253.225 112.036,252.929 111.100 C 252.807 110.715,252.548 110.400,252.353 110.400 C 252.159 110.400,252.000 110.170,252.000 109.888 C 252.000 109.607,251.640 109.117,251.200 108.800 C 250.760 108.483,250.400 107.903,250.400 107.512 C 250.400 107.120,250.220 106.800,250.000 106.800 C 248.850 106.800,250.035 105.142,254.013 101.187 C 256.440 98.774,258.320 96.800,258.192 96.800 C 258.063 96.800,259.232 95.585,260.788 94.100 C 263.357 91.649,271.125 83.924,277.475 77.503 C 278.836 76.126,280.465 74.550,281.094 74.000 C 283.681 71.739,283.957 69.813,283.041 60.381 C 282.334 53.103,281.056 51.320,277.283 52.350 M244.468 56.127 C 243.235 57.440,243.387 57.849,244.642 56.594 C 245.216 56.021,245.606 55.473,245.511 55.377 C 245.415 55.282,244.946 55.619,244.468 56.127 M156.216 59.973 C 156.089 60.179,156.439 60.299,156.993 60.240 C 158.386 60.091,158.768 59.600,157.490 59.600 C 156.917 59.600,156.343 59.768,156.216 59.973 M239.600 61.000 C 239.083 61.550,238.806 62.000,238.983 62.000 C 239.284 62.000,240.800 60.447,240.800 60.139 C 240.800 59.829,240.494 60.049,239.600 61.000 M147.600 60.711 C 147.600 60.881,148.320 60.952,149.200 60.869 C 150.080 60.785,150.800 60.645,150.800 60.558 C 150.800 60.471,150.080 60.400,149.200 60.400 C 148.320 60.400,147.600 60.540,147.600 60.711 M233.573 66.827 C 231.124 69.262,229.214 71.348,229.329 71.462 C 229.444 71.577,231.624 69.585,234.173 67.035 C 236.723 64.486,238.632 62.400,238.417 62.400 C 238.202 62.400,236.022 64.392,233.573 66.827 M227.600 73.000 C 227.083 73.550,226.806 74.000,226.983 74.000 C 227.284 74.000,228.800 72.447,228.800 72.139 C 228.800 71.829,228.494 72.049,227.600 73.000 M225.260 75.442 C 224.962 75.778,224.799 76.132,224.895 76.229 C 224.992 76.326,225.398 76.044,225.798 75.602 C 226.197 75.161,226.361 74.807,226.162 74.815 C 225.963 74.824,225.557 75.105,225.260 75.442 M279.206 93.100 C 279.211 93.957,279.298 94.068,279.600 93.600 C 280.106 92.817,280.106 92.000,279.600 92.000 C 279.380 92.000,279.203 92.495,279.206 93.100 M279.206 95.500 C 279.203 95.995,279.380 96.400,279.600 96.400 C 280.101 96.400,280.101 95.976,279.600 95.200 C 279.286 94.715,279.211 94.772,279.206 95.500 M80.600 97.033 C 79.940 97.790,79.330 98.632,79.245 98.904 C 79.160 99.177,79.160 99.307,79.245 99.194 C 79.330 99.080,80.112 98.225,80.981 97.294 C 81.851 96.362,82.391 95.613,82.181 95.629 C 81.972 95.644,81.260 96.276,80.600 97.033 M118.100 113.398 C 117.357 114.242,117.494 114.473,118.400 113.907 C 118.840 113.632,119.200 113.271,119.200 113.104 C 119.200 112.627,118.649 112.775,118.100 113.398 M249.412 166.321 C 249.296 166.438,249.200 167.192,249.200 167.996 C 249.200 171.277,247.478 180.963,245.827 186.964 C 236.773 219.883,211.115 247.332,179.200 258.243 C 174.241 259.938,174.253 259.543,178.905 268.132 C 179.730 269.655,181.095 270.893,181.403 270.396 C 181.537 270.178,181.862 270.003,182.124 270.006 C 182.410 270.010,182.361 270.167,182.000 270.400 C 181.483 270.734,181.493 270.789,182.076 270.794 C 182.448 270.797,182.864 270.620,183.000 270.400 C 183.136 270.180,183.777 270.000,184.424 270.000 C 185.071 270.000,185.600 269.820,185.600 269.600 C 185.600 269.380,186.194 269.200,186.920 269.200 C 187.646 269.200,188.482 268.975,188.779 268.700 C 189.210 268.300,189.261 268.300,189.035 268.700 C 188.880 268.975,188.943 269.200,189.176 269.200 C 189.409 269.200,189.600 269.020,189.600 268.800 C 189.600 268.580,189.960 268.400,190.400 268.400 C 190.840 268.400,191.200 268.220,191.200 268.000 C 191.200 267.780,191.391 267.600,191.624 267.600 C 191.857 267.600,191.936 267.780,191.800 268.000 C 191.664 268.220,191.743 268.400,191.976 268.400 C 192.209 268.400,192.400 268.220,192.400 268.000 C 192.400 267.780,192.670 267.600,193.000 267.600 C 193.330 267.600,193.600 267.420,193.600 267.200 C 193.600 266.980,194.410 266.800,195.400 266.800 C 196.390 266.800,197.200 266.620,197.200 266.400 C 197.200 266.180,197.700 266.000,198.312 266.000 C 198.965 266.000,199.661 265.670,200.000 265.200 C 200.398 264.647,201.035 264.400,202.061 264.400 C 203.195 264.400,203.606 264.211,203.800 263.600 C 204.080 262.719,204.793 262.508,204.812 263.300 C 204.819 263.575,205.025 263.440,205.271 263.000 C 205.931 261.819,206.012 261.772,206.378 262.364 C 206.633 262.777,206.779 262.697,206.992 262.024 C 207.160 261.496,207.493 261.227,207.823 261.354 C 208.126 261.470,208.483 261.390,208.615 261.176 C 208.747 260.962,209.023 260.891,209.228 261.017 C 209.432 261.144,209.600 261.057,209.600 260.824 C 209.600 260.591,209.960 260.400,210.400 260.400 C 210.840 260.400,211.200 260.220,211.200 260.000 C 211.200 259.780,211.494 259.600,211.853 259.600 C 212.212 259.600,212.842 259.212,213.253 258.739 C 213.664 258.265,214.000 258.082,214.000 258.332 C 214.000 258.631,214.479 258.559,215.400 258.119 C 216.170 257.752,216.800 257.305,216.800 257.126 C 216.800 256.947,217.160 256.800,217.600 256.800 C 218.040 256.800,218.400 256.650,218.400 256.468 C 218.400 256.285,218.895 255.880,219.500 255.568 C 220.105 255.255,220.949 254.685,221.375 254.300 C 221.802 253.915,222.347 253.600,222.587 253.600 C 222.827 253.600,223.283 253.240,223.600 252.800 C 223.917 252.360,224.452 251.997,224.788 251.994 C 225.329 251.988,225.331 251.943,224.800 251.600 C 224.304 251.280,224.341 251.211,225.012 251.206 C 225.458 251.203,226.083 250.840,226.400 250.400 C 226.717 249.960,227.307 249.600,227.712 249.600 C 228.116 249.600,228.336 249.420,228.200 249.200 C 228.064 248.980,228.155 248.800,228.402 248.800 C 228.650 248.800,229.740 247.888,230.826 246.773 C 231.912 245.659,232.800 244.931,232.800 245.157 C 232.800 245.383,234.195 244.211,235.900 242.553 C 237.605 240.895,238.951 239.359,238.890 239.140 C 238.830 238.920,238.943 238.841,239.141 238.964 C 239.340 239.086,240.006 238.425,240.622 237.493 C 241.238 236.562,242.430 235.118,243.271 234.285 C 244.112 233.451,244.800 232.596,244.800 232.385 C 244.800 232.174,245.520 231.259,246.400 230.352 C 247.280 229.445,248.000 228.495,248.000 228.240 C 248.000 227.985,248.360 227.517,248.800 227.200 C 249.240 226.883,249.600 226.343,249.600 226.000 C 249.600 225.657,249.960 225.117,250.400 224.800 C 250.840 224.483,251.200 223.993,251.200 223.712 C 251.200 223.430,251.380 223.200,251.600 223.200 C 251.820 223.200,252.000 222.964,252.000 222.675 C 252.000 222.387,252.360 221.764,252.800 221.292 C 253.240 220.820,253.600 220.156,253.600 219.817 C 253.600 219.478,253.780 219.200,254.000 219.200 C 254.220 219.200,254.400 218.840,254.400 218.400 C 254.400 217.960,254.554 217.600,254.742 217.600 C 255.201 217.600,258.224 211.316,258.601 209.579 C 258.765 208.820,259.237 207.722,259.650 207.138 C 260.062 206.554,260.400 205.699,260.400 205.238 C 260.400 204.777,260.580 204.400,260.800 204.400 C 261.020 204.400,261.200 204.051,261.200 203.624 C 261.200 203.197,261.380 202.736,261.600 202.600 C 261.820 202.464,262.000 201.924,262.000 201.400 C 262.000 200.876,262.180 200.336,262.400 200.200 C 262.620 200.064,262.800 199.524,262.800 199.000 C 262.800 198.476,262.980 197.936,263.200 197.800 C 263.420 197.664,263.600 196.944,263.600 196.200 C 263.600 195.456,263.780 194.736,264.000 194.600 C 264.220 194.464,264.400 193.733,264.400 192.976 C 264.400 192.219,264.580 191.600,264.800 191.600 C 265.020 191.600,265.200 190.981,265.200 190.224 C 265.200 189.467,265.380 188.736,265.600 188.600 C 265.820 188.464,266.000 187.373,266.000 186.176 C 266.000 184.979,266.180 184.000,266.400 184.000 C 266.629 184.000,266.800 182.800,266.800 181.200 C 266.800 179.527,266.968 178.400,267.216 178.400 C 267.480 178.400,267.590 177.193,267.516 175.100 L 267.400 171.800 265.788 171.000 C 263.257 169.744,261.181 168.915,258.800 168.211 C 255.627 167.273,249.661 166.072,249.412 166.321 M210.648 213.038 C 209.794 214.007,209.239 214.800,209.413 214.800 C 209.796 214.800,212.399 211.924,212.400 211.500 C 212.400 211.062,212.346 211.110,210.648 213.038 M114.202 215.202 C 114.602 215.644,115.011 215.922,115.112 215.821 C 115.328 215.605,114.188 214.400,113.767 214.400 C 113.607 214.400,113.803 214.761,114.202 215.202 M188.842 228.434 C 188.315 228.645,187.984 228.917,188.107 229.040 C 188.229 229.162,188.840 228.986,189.465 228.647 C 190.721 227.966,190.339 227.835,188.842 228.434 M78.137 232.196 C 78.392 232.745,78.741 233.195,78.914 233.197 C 79.282 233.201,78.563 231.748,78.035 231.422 C 77.837 231.299,77.883 231.648,78.137 232.196 M113.316 260.316 C 113.282 260.773,113.722 261.217,114.531 261.542 C 115.229 261.823,116.113 262.221,116.495 262.426 C 116.877 262.632,117.462 262.800,117.795 262.800 C 118.128 262.800,118.400 262.980,118.400 263.200 C 118.400 263.420,118.760 263.600,119.200 263.600 C 119.640 263.600,120.000 263.780,120.000 264.000 C 120.000 264.220,120.439 264.400,120.976 264.400 C 121.513 264.400,122.064 264.580,122.200 264.800 C 122.336 265.020,123.022 265.203,123.724 265.206 C 124.695 265.211,124.857 265.305,124.400 265.600 C 123.945 265.894,124.114 265.989,125.100 265.994 C 125.815 265.997,126.400 266.180,126.400 266.400 C 126.400 266.620,126.850 266.800,127.400 266.800 C 127.950 266.800,128.400 266.957,128.400 267.150 C 128.400 267.343,128.888 267.500,129.483 267.500 C 130.079 267.500,130.634 267.703,130.717 267.950 C 130.799 268.197,131.572 268.400,132.433 268.400 C 133.295 268.400,134.000 268.580,134.000 268.800 C 134.000 269.020,134.720 269.200,135.600 269.200 C 136.480 269.200,137.200 269.380,137.200 269.600 C 137.200 269.820,137.359 270.000,137.553 270.000 C 138.247 270.000,138.323 268.338,137.725 266.237 L 137.118 264.102 133.459 263.643 C 127.908 262.946,122.848 262.037,118.416 260.940 C 117.215 260.643,115.730 260.400,115.116 260.400 C 114.502 260.400,114.000 260.220,114.000 260.000 C 114.000 259.287,113.372 259.577,113.316 260.316 " stroke="none" fill="#64b4fb" fill-rule="evenodd"></path><path id="path2" d="M302.800 0.293 C 302.030 0.383,301.229 0.624,301.020 0.829 C 300.811 1.033,299.881 1.200,298.953 1.200 C 298.026 1.200,297.207 1.370,297.133 1.578 C 297.060 1.786,296.055 1.998,294.900 2.049 C 293.745 2.101,292.800 2.291,292.800 2.471 C 292.800 2.652,291.911 2.800,290.824 2.800 C 289.737 2.800,288.736 2.980,288.600 3.200 C 288.464 3.420,287.654 3.600,286.800 3.600 C 285.946 3.600,285.136 3.780,285.000 4.000 C 284.864 4.220,283.784 4.400,282.600 4.400 C 281.416 4.400,280.336 4.580,280.200 4.800 C 280.064 5.020,279.279 5.200,278.456 5.200 C 277.633 5.200,276.789 5.363,276.580 5.561 C 276.203 5.920,274.308 6.229,269.900 6.651 C 268.635 6.772,267.600 7.035,267.600 7.236 C 267.600 7.436,266.916 7.600,266.080 7.600 C 265.244 7.600,264.389 7.761,264.180 7.958 C 263.971 8.155,262.630 8.406,261.200 8.515 C 258.709 8.706,257.585 8.897,256.021 9.393 C 255.627 9.518,254.607 9.641,253.753 9.666 C 252.899 9.691,252.020 9.843,251.800 10.003 C 251.580 10.164,250.590 10.407,249.600 10.545 C 246.304 11.001,245.012 11.230,243.600 11.607 C 241.937 12.052,239.740 12.408,237.000 12.677 C 235.900 12.785,234.829 13.037,234.620 13.237 C 234.411 13.437,233.824 13.600,233.315 13.600 C 232.806 13.600,232.077 13.753,231.695 13.941 C 231.313 14.128,230.123 14.713,229.052 15.241 C 227.980 15.768,226.902 16.515,226.655 16.900 C 226.409 17.285,225.998 17.600,225.741 17.600 C 225.485 17.600,224.673 18.341,223.937 19.247 C 223.202 20.153,222.420 21.098,222.200 21.347 C 221.555 22.077,220.000 25.228,220.000 25.804 C 220.000 26.095,219.814 26.395,219.588 26.471 C 219.026 26.658,219.023 37.341,219.585 37.528 C 219.813 37.604,220.000 38.102,220.000 38.633 C 220.000 39.165,220.180 39.600,220.400 39.600 C 220.620 39.600,220.800 39.870,220.800 40.200 C 220.800 40.530,220.980 40.800,221.200 40.800 C 221.420 40.800,221.600 41.160,221.600 41.600 C 221.600 42.040,221.780 42.400,222.000 42.400 C 222.220 42.400,222.400 42.655,222.400 42.966 C 222.400 44.027,227.935 48.800,229.165 48.800 C 229.404 48.800,229.600 48.980,229.600 49.200 C 229.600 49.420,230.039 49.600,230.576 49.600 C 231.113 49.600,231.664 49.780,231.800 50.000 C 231.936 50.220,232.746 50.400,233.600 50.400 C 234.454 50.400,235.243 50.546,235.353 50.724 C 235.645 51.196,239.188 51.307,239.735 50.861 C 239.991 50.653,241.100 50.379,242.200 50.252 C 247.174 49.679,248.224 49.499,248.580 49.161 C 248.970 48.791,252.000 48.644,252.000 48.995 C 252.000 49.381,229.587 71.600,229.198 71.600 C 228.979 71.600,228.800 71.752,228.800 71.939 C 228.800 72.418,227.378 74.000,226.948 74.000 C 226.751 74.000,226.412 74.390,226.195 74.867 C 225.978 75.344,225.458 75.929,225.039 76.167 C 224.621 76.405,223.791 77.095,223.196 77.700 C 221.869 79.049,221.997 79.052,220.364 77.626 C 219.624 76.980,218.160 76.050,217.110 75.558 C 216.059 75.066,215.200 74.514,215.200 74.332 C 215.200 74.149,214.840 74.000,214.400 74.000 C 213.960 74.000,213.600 73.820,213.600 73.600 C 213.600 73.380,213.240 73.200,212.800 73.200 C 212.360 73.200,212.000 73.020,212.000 72.800 C 212.000 72.580,211.640 72.400,211.200 72.400 C 210.760 72.400,210.399 72.265,210.397 72.100 C 210.393 71.749,208.463 70.800,207.754 70.800 C 207.486 70.800,207.207 70.665,207.133 70.500 C 206.941 70.068,203.628 68.400,202.962 68.400 C 202.653 68.400,202.400 68.220,202.400 68.000 C 202.400 67.780,201.965 67.600,201.433 67.600 C 200.902 67.600,200.407 67.422,200.333 67.203 C 200.260 66.985,199.705 66.766,199.100 66.716 C 198.495 66.666,198.000 66.485,198.000 66.313 C 198.000 66.141,197.561 66.000,197.024 66.000 C 196.487 66.000,195.936 65.820,195.800 65.600 C 195.664 65.380,195.023 65.200,194.376 65.200 C 193.729 65.200,193.200 65.020,193.200 64.800 C 193.200 64.580,192.780 64.400,192.267 64.400 C 191.753 64.400,191.209 64.275,191.056 64.123 C 190.904 63.971,190.379 63.789,189.890 63.720 C 189.400 63.650,188.550 63.428,188.000 63.227 C 187.450 63.026,185.515 62.635,183.700 62.359 C 181.885 62.082,180.400 61.740,180.400 61.599 C 180.400 61.458,179.466 61.300,178.324 61.248 C 177.183 61.196,176.081 61.050,175.876 60.924 C 175.672 60.797,174.401 60.640,173.052 60.574 C 171.703 60.508,168.890 60.317,166.800 60.149 C 160.841 59.670,153.086 60.117,144.600 61.428 C 143.720 61.564,142.190 61.766,141.200 61.876 C 140.210 61.987,139.229 62.240,139.020 62.439 C 138.811 62.637,137.956 62.800,137.120 62.800 C 136.284 62.800,135.600 62.980,135.600 63.200 C 135.600 63.420,135.006 63.600,134.280 63.600 C 133.554 63.600,132.786 63.774,132.573 63.987 C 132.361 64.199,131.617 64.416,130.921 64.469 C 130.225 64.523,129.744 64.709,129.851 64.883 C 129.959 65.057,129.497 65.200,128.824 65.200 C 128.151 65.200,127.600 65.380,127.600 65.600 C 127.600 65.820,127.161 66.000,126.624 66.000 C 126.087 66.000,125.536 66.180,125.400 66.400 C 125.264 66.620,124.713 66.800,124.176 66.800 C 123.639 66.800,123.200 66.980,123.200 67.200 C 123.200 67.420,122.750 67.600,122.200 67.600 C 121.650 67.600,121.200 67.780,121.200 68.000 C 121.200 68.220,120.750 68.400,120.200 68.400 C 119.650 68.400,119.199 68.535,119.197 68.700 C 119.193 69.059,117.256 70.000,116.520 70.000 C 116.234 70.000,116.000 70.180,116.000 70.400 C 116.000 70.620,115.766 70.800,115.480 70.800 C 114.744 70.800,112.807 71.741,112.803 72.100 C 112.801 72.265,112.485 72.404,112.100 72.409 C 111.715 72.414,110.950 72.770,110.400 73.200 C 109.850 73.630,109.175 73.986,108.900 73.991 C 108.625 73.996,108.400 74.180,108.400 74.400 C 108.400 74.620,108.040 74.800,107.600 74.800 C 107.160 74.800,106.800 74.953,106.800 75.139 C 106.800 75.326,106.080 75.803,105.200 76.200 C 104.320 76.597,103.600 77.074,103.600 77.261 C 103.600 77.447,103.370 77.600,103.089 77.600 C 102.808 77.600,102.270 77.960,101.893 78.400 C 101.516 78.840,100.955 79.200,100.647 79.200 C 100.338 79.200,99.972 79.496,99.833 79.857 C 99.695 80.219,99.475 80.409,99.346 80.279 C 99.216 80.149,98.545 80.573,97.855 81.220 C 97.165 81.867,96.364 82.397,96.076 82.398 C 95.788 82.399,95.664 82.580,95.800 82.800 C 95.936 83.020,95.879 83.200,95.674 83.200 C 94.602 83.200,81.379 96.407,78.035 100.817 C 76.625 102.678,75.320 104.260,75.135 104.333 C 74.951 104.407,74.800 104.772,74.800 105.145 C 74.800 105.518,74.440 106.083,74.000 106.400 C 73.560 106.717,73.200 107.257,73.200 107.600 C 73.200 107.943,72.850 108.476,72.421 108.785 C 71.993 109.093,71.725 109.478,71.825 109.641 C 71.925 109.803,71.774 110.175,71.490 110.468 C 70.820 111.156,68.854 114.450,67.591 117.000 C 67.046 118.100,66.465 119.060,66.300 119.133 C 66.135 119.207,66.000 119.612,66.000 120.033 C 66.000 120.455,65.820 120.800,65.600 120.800 C 65.380 120.800,65.200 121.036,65.200 121.325 C 65.200 121.614,64.840 122.595,64.400 123.506 C 63.960 124.416,63.600 125.316,63.600 125.506 C 63.600 125.695,63.259 126.559,62.843 127.425 C 62.127 128.912,60.420 133.978,59.027 138.746 C 58.682 139.926,58.400 141.491,58.400 142.222 C 58.400 142.954,58.220 143.664,58.000 143.800 C 57.780 143.936,57.600 145.037,57.600 146.247 C 57.600 147.486,57.439 148.348,57.232 148.220 C 56.396 147.703,55.561 177.321,56.388 178.148 C 56.615 178.375,56.800 179.773,56.800 181.256 C 56.800 182.739,56.980 184.064,57.200 184.200 C 57.420 184.336,57.600 185.337,57.600 186.424 C 57.600 187.511,57.780 188.400,58.000 188.400 C 58.220 188.400,58.400 189.109,58.400 189.976 C 58.400 190.843,58.564 191.654,58.764 191.778 C 58.965 191.902,59.081 192.317,59.022 192.702 C 58.963 193.086,59.151 194.075,59.440 194.900 C 59.728 195.725,59.860 196.400,59.733 196.400 C 59.606 196.400,59.693 196.631,59.927 196.912 C 60.161 197.194,60.437 197.869,60.539 198.412 C 60.786 199.722,61.914 203.104,62.597 204.584 C 62.898 205.235,63.056 205.910,62.948 206.084 C 62.841 206.258,62.943 206.400,63.176 206.400 C 63.409 206.400,63.600 206.760,63.600 207.200 C 63.600 207.640,63.780 208.000,64.000 208.000 C 64.220 208.000,64.400 208.360,64.400 208.800 C 64.400 209.240,64.580 209.600,64.800 209.600 C 65.020 209.600,65.200 209.874,65.200 210.209 C 65.200 210.975,68.235 217.051,68.789 217.393 C 69.015 217.533,69.200 217.997,69.200 218.424 C 69.200 218.851,69.358 219.200,69.551 219.200 C 69.745 219.200,70.127 219.740,70.400 220.400 C 70.673 221.060,71.055 221.600,71.249 221.600 C 71.442 221.600,71.600 221.836,71.600 222.125 C 71.600 222.413,71.960 223.036,72.400 223.508 C 72.840 223.980,73.200 224.554,73.200 224.783 C 73.200 225.012,73.380 225.200,73.600 225.200 C 73.820 225.200,74.000 225.425,74.001 225.700 C 74.001 225.975,74.541 226.830,75.200 227.600 C 75.859 228.370,76.399 229.158,76.399 229.352 C 76.400 229.545,77.039 230.445,77.820 231.352 C 78.601 232.258,79.366 233.186,79.520 233.414 C 80.147 234.340,87.429 242.212,87.800 242.364 C 88.020 242.454,88.834 243.219,89.609 244.064 C 90.384 244.909,91.135 245.600,91.278 245.600 C 91.421 245.600,92.244 246.320,93.107 247.200 C 93.969 248.080,94.819 248.800,94.994 248.800 C 95.170 248.800,95.791 249.295,96.374 249.900 C 96.957 250.505,97.919 251.254,98.511 251.564 C 99.102 251.874,99.914 252.414,100.315 252.764 C 100.716 253.114,101.317 253.580,101.651 253.800 C 101.985 254.020,103.145 254.779,104.229 255.486 C 105.313 256.193,106.425 256.965,106.700 257.202 C 106.975 257.438,107.200 257.521,107.200 257.387 C 107.200 257.252,107.674 257.515,108.254 257.971 C 108.834 258.427,109.644 258.800,110.054 258.800 C 110.464 258.800,110.800 258.980,110.800 259.200 C 110.800 259.420,111.149 259.600,111.576 259.600 C 112.003 259.600,112.464 259.780,112.600 260.000 C 112.736 260.220,113.027 260.400,113.247 260.400 C 113.467 260.400,113.536 260.220,113.400 260.000 C 113.264 259.780,113.343 259.600,113.576 259.600 C 113.809 259.600,114.000 259.740,114.000 259.911 C 114.000 260.083,115.215 260.436,116.700 260.697 C 118.185 260.958,120.210 261.360,121.200 261.591 C 124.135 262.274,135.129 263.986,136.653 263.997 C 136.970 263.999,136.931 263.491,136.523 262.307 C 134.555 256.593,132.802 243.954,132.795 235.412 C 132.792 232.105,132.684 229.007,132.555 228.527 C 132.363 227.812,129.955 226.206,129.200 226.290 C 129.090 226.302,128.522 225.972,127.938 225.556 C 127.354 225.140,126.679 224.800,126.438 224.800 C 126.197 224.800,126.000 224.620,126.000 224.400 C 126.000 224.180,125.764 224.000,125.475 224.000 C 125.187 224.000,124.602 223.678,124.175 223.283 C 123.749 222.889,122.521 221.964,121.447 221.228 C 119.447 219.856,118.629 219.166,115.194 215.956 C 114.109 214.942,113.126 214.207,113.010 214.323 C 112.895 214.439,112.800 214.345,112.800 214.115 C 112.800 213.885,112.125 212.993,111.300 212.133 C 107.021 207.673,99.600 196.277,99.600 194.166 C 99.600 193.855,99.420 193.600,99.200 193.600 C 98.980 193.600,98.800 193.240,98.800 192.800 C 98.800 192.360,98.620 192.000,98.400 192.000 C 98.180 192.000,98.000 191.460,98.000 190.800 C 98.000 190.140,97.820 189.600,97.600 189.600 C 97.380 189.600,97.200 189.060,97.200 188.400 C 97.200 187.740,97.020 187.200,96.800 187.200 C 96.580 187.200,96.400 186.761,96.400 186.224 C 96.400 185.687,96.220 185.136,96.000 185.000 C 95.780 184.864,95.600 184.133,95.600 183.376 C 95.600 182.619,95.420 182.000,95.200 182.000 C 94.980 182.000,94.800 181.226,94.800 180.280 C 94.800 179.334,94.635 178.389,94.434 178.180 C 93.612 177.328,92.832 160.208,93.580 159.460 C 93.811 159.229,94.000 157.906,94.000 156.520 C 94.000 155.107,94.176 154.000,94.400 154.000 C 94.620 154.000,94.800 153.201,94.800 152.224 C 94.800 151.247,94.980 150.336,95.200 150.200 C 95.420 150.064,95.600 149.434,95.600 148.800 C 95.600 148.166,95.780 147.536,96.000 147.400 C 96.220 147.264,96.400 146.623,96.400 145.976 C 96.400 145.329,96.580 144.800,96.800 144.800 C 97.020 144.800,97.200 144.260,97.200 143.600 C 97.200 142.940,97.380 142.400,97.600 142.400 C 97.820 142.400,98.000 142.051,98.000 141.624 C 98.000 141.197,98.180 140.736,98.400 140.600 C 98.620 140.464,98.800 140.003,98.800 139.576 C 98.800 139.149,98.980 138.800,99.200 138.800 C 99.420 138.800,99.600 138.548,99.600 138.241 C 99.600 137.598,100.891 135.091,104.062 129.575 C 104.358 129.060,105.005 128.182,105.500 127.624 C 105.995 127.065,106.400 126.415,106.400 126.179 C 106.400 125.943,106.940 125.232,107.600 124.600 C 108.260 123.968,108.800 123.277,108.800 123.065 C 108.800 122.586,118.648 112.800,119.131 112.800 C 119.324 112.800,120.046 112.260,120.737 111.600 C 121.428 110.940,122.174 110.400,122.396 110.400 C 122.618 110.400,122.800 110.220,122.800 110.000 C 122.800 109.780,123.070 109.600,123.400 109.600 C 123.730 109.600,124.000 109.420,124.000 109.200 C 124.000 108.980,124.257 108.800,124.571 108.800 C 124.886 108.800,125.381 108.564,125.671 108.275 C 127.551 106.407,141.477 100.400,143.928 100.400 C 144.408 100.400,144.800 100.220,144.800 100.000 C 144.800 99.780,145.599 99.600,146.576 99.600 C 147.553 99.600,148.464 99.420,148.600 99.200 C 148.736 98.980,149.827 98.800,151.024 98.800 C 152.221 98.800,153.200 98.620,153.200 98.400 C 153.200 98.146,156.267 98.000,161.600 98.000 C 166.411 98.000,170.000 98.156,170.000 98.366 C 170.000 98.567,171.125 98.827,172.500 98.944 C 176.253 99.262,178.380 99.643,178.626 100.042 C 178.748 100.239,179.366 100.400,180.000 100.400 C 180.634 100.400,181.264 100.580,181.400 100.800 C 181.536 101.020,181.999 101.200,182.429 101.200 C 182.859 101.200,183.568 101.380,184.005 101.600 C 184.442 101.820,185.158 102.180,185.595 102.400 C 186.032 102.620,186.752 102.800,187.195 102.800 C 187.638 102.800,188.000 102.980,188.000 103.200 C 188.000 103.420,188.243 103.600,188.540 103.600 C 189.577 103.600,199.430 108.973,200.673 110.216 C 200.994 110.537,201.418 110.800,201.615 110.800 C 201.812 110.800,202.603 111.430,203.373 112.200 C 204.143 112.970,204.940 113.600,205.143 113.600 C 205.581 113.600,211.938 119.922,213.743 122.153 C 214.434 123.007,215.360 124.087,215.800 124.553 C 216.240 125.019,216.855 125.895,217.168 126.500 C 217.480 127.105,217.885 127.600,218.068 127.600 C 218.250 127.600,218.400 127.952,218.400 128.382 C 218.400 129.274,220.569 129.883,222.105 129.422 C 223.419 129.028,230.598 128.373,236.951 128.067 L 242.502 127.800 240.503 124.000 C 237.860 118.973,236.921 117.322,235.612 115.402 C 232.808 111.289,231.839 108.469,231.819 104.361 C 231.800 100.508,231.867 100.233,233.748 96.517 C 235.157 93.735,275.841 52.600,277.498 52.283 C 279.039 51.989,281.137 52.732,281.854 53.826 C 283.139 55.787,284.026 69.374,282.998 71.346 C 282.669 71.976,282.400 73.335,282.400 74.366 C 282.400 75.397,282.239 76.411,282.042 76.620 C 281.845 76.829,281.578 78.170,281.448 79.600 C 281.318 81.030,281.021 83.370,280.788 84.800 C 279.717 91.372,279.520 94.006,279.849 97.350 C 280.122 100.129,282.688 105.496,283.627 105.251 C 283.942 105.168,284.813 104.956,285.563 104.779 C 293.316 102.943,298.197 96.623,299.602 86.600 C 300.030 83.551,300.434 80.883,301.210 76.000 C 301.402 74.790,301.757 72.360,302.000 70.600 C 302.243 68.840,302.601 66.410,302.795 65.200 C 302.990 63.990,303.345 61.696,303.584 60.102 C 303.823 58.508,304.189 56.078,304.397 54.702 C 305.088 50.141,306.386 41.489,307.384 34.800 C 307.925 31.170,308.946 24.345,309.654 19.633 C 311.152 9.650,311.024 7.614,308.594 2.789 C 307.051 -0.276,307.177 -0.222,302.800 0.293 M232.600 165.397 C 232.380 165.470,231.705 165.639,231.100 165.773 C 230.039 166.007,230.000 166.107,230.000 168.584 C 230.000 169.997,229.845 171.249,229.655 171.366 C 229.465 171.484,229.277 172.964,229.238 174.655 C 229.199 176.346,229.050 177.919,228.907 178.150 C 228.666 178.540,228.275 180.326,227.734 183.504 C 227.612 184.221,227.351 184.906,227.156 185.027 C 226.960 185.148,226.800 185.676,226.800 186.200 C 226.800 186.724,226.620 187.264,226.400 187.400 C 226.180 187.536,225.999 188.042,225.998 188.524 C 225.996 189.006,225.726 189.916,225.398 190.546 C 225.069 191.176,224.800 192.121,224.800 192.646 C 224.800 193.171,224.620 193.600,224.400 193.600 C 224.180 193.600,224.000 193.960,224.000 194.400 C 224.000 194.840,223.854 195.200,223.675 195.200 C 223.496 195.200,223.102 195.830,222.800 196.600 C 222.498 197.370,222.104 198.000,221.925 198.000 C 221.746 198.000,221.600 198.360,221.600 198.800 C 221.600 199.240,221.420 199.600,221.200 199.600 C 220.980 199.600,220.800 199.870,220.800 200.200 C 220.800 200.530,220.620 200.800,220.400 200.800 C 220.180 200.800,220.000 201.070,220.000 201.400 C 220.000 201.730,219.820 202.000,219.600 202.000 C 219.380 202.000,219.200 202.320,219.200 202.712 C 219.200 203.103,218.840 203.683,218.400 204.000 C 217.960 204.317,217.600 204.887,217.600 205.266 C 217.600 205.645,217.271 206.190,216.869 206.477 C 216.467 206.765,215.972 207.293,215.769 207.651 C 214.465 209.951,204.598 220.000,203.644 220.000 C 203.465 220.000,202.754 220.540,202.063 221.200 C 201.372 221.860,200.660 222.400,200.479 222.400 C 200.299 222.400,199.802 222.725,199.375 223.122 C 198.949 223.520,198.015 224.103,197.300 224.420 C 196.585 224.736,196.000 225.092,196.000 225.210 C 196.000 225.327,195.100 225.773,194.000 226.200 C 192.900 226.627,192.000 227.116,192.000 227.288 C 192.000 227.460,191.717 227.600,191.371 227.600 C 191.026 227.600,190.473 227.870,190.143 228.199 C 189.814 228.529,189.062 228.906,188.472 229.037 C 187.882 229.168,186.860 229.511,186.200 229.799 C 182.921 231.232,181.808 231.600,180.751 231.600 C 180.118 231.600,179.600 231.780,179.600 232.000 C 179.600 232.220,178.891 232.400,178.024 232.400 C 177.157 232.400,176.336 232.580,176.200 232.800 C 176.064 233.020,175.254 233.200,174.400 233.200 C 173.546 233.200,172.736 233.380,172.600 233.600 C 172.464 233.820,171.827 234.000,171.184 234.000 C 168.928 234.000,169.543 243.500,172.400 252.800 C 172.569 253.350,172.941 254.610,173.226 255.600 C 173.511 256.590,173.867 257.580,174.017 257.800 C 174.167 258.020,174.413 258.717,174.565 259.349 C 174.796 260.316,174.916 260.405,175.320 259.909 C 175.584 259.586,176.880 258.997,178.200 258.600 C 185.918 256.285,197.715 250.239,205.400 244.662 C 231.105 226.007,245.965 199.847,249.319 167.343 L 249.449 166.085 245.997 165.643 C 242.869 165.241,233.577 165.071,232.600 165.397 M138.000 269.400 C 138.000 269.730,138.180 270.000,138.400 270.000 C 138.620 270.000,138.800 269.730,138.800 269.400 C 138.800 269.070,138.620 268.800,138.400 268.800 C 138.180 268.800,138.000 269.070,138.000 269.400 " stroke="none" fill="#8bcbfb" fill-rule="evenodd"></path><path id="path3" d="M300.794 147.982 C 301.341 148.402,301.868 148.666,301.965 148.569 C 302.191 148.342,300.729 147.227,300.200 147.222 C 299.980 147.220,300.247 147.561,300.794 147.982 M308.000 154.443 C 308.000 155.014,308.186 155.214,308.580 155.063 C 308.974 154.912,309.086 155.033,308.929 155.441 C 308.802 155.771,309.057 156.437,309.495 156.920 C 324.279 173.263,334.215 206.814,331.588 231.523 C 329.233 253.668,322.717 269.761,308.515 288.501 C 300.036 299.691,283.907 311.893,270.400 317.337 C 269.410 317.736,268.240 318.219,267.800 318.411 C 263.301 320.372,252.486 322.939,244.000 324.060 C 238.813 324.746,222.217 324.754,218.600 324.073 C 206.386 321.774,197.215 318.427,186.600 312.391 C 183.144 310.427,180.027 308.554,178.598 307.584 C 171.486 302.756,171.319 302.823,159.173 315.289 C 149.403 325.316,148.971 326.029,150.655 329.320 C 152.149 332.237,160.393 339.789,161.165 338.947 C 161.294 338.806,161.175 338.610,160.900 338.512 C 160.028 338.200,160.361 337.666,161.300 337.872 C 162.023 338.031,162.082 337.985,161.600 337.641 C 161.084 337.272,161.099 337.211,161.714 337.206 C 162.107 337.203,165.925 333.684,170.198 329.387 C 178.697 320.840,178.134 321.170,180.555 323.300 C 180.993 323.685,181.510 324.000,181.704 324.000 C 181.898 324.000,182.327 324.270,182.657 324.600 C 182.987 324.930,183.604 325.200,184.029 325.200 C 184.453 325.200,184.800 325.380,184.800 325.600 C 184.800 325.820,185.300 326.000,185.912 326.000 C 186.565 326.000,187.261 326.330,187.600 326.800 C 187.917 327.240,188.497 327.600,188.888 327.600 C 189.280 327.600,189.600 327.780,189.600 328.000 C 189.600 328.220,189.960 328.400,190.400 328.400 C 190.840 328.400,191.200 328.546,191.200 328.725 C 191.200 328.904,191.830 329.298,192.600 329.600 C 193.370 329.902,194.000 330.318,194.000 330.524 C 194.000 330.730,194.305 330.651,194.677 330.349 C 195.049 330.047,195.237 329.996,195.094 330.235 C 194.795 330.733,197.677 332.400,198.838 332.400 C 199.257 332.400,199.600 332.580,199.600 332.800 C 199.600 333.020,199.791 333.200,200.024 333.200 C 200.257 333.200,200.320 332.975,200.165 332.700 C 199.939 332.300,199.990 332.300,200.421 332.700 C 200.718 332.975,201.419 333.203,201.980 333.206 C 202.785 333.211,202.874 333.294,202.400 333.600 C 201.932 333.902,202.043 333.989,202.900 333.994 C 203.505 333.997,204.000 334.180,204.000 334.400 C 204.000 334.620,204.191 334.800,204.424 334.800 C 204.657 334.800,204.736 334.620,204.600 334.400 C 204.188 333.734,204.780 333.951,205.692 334.800 C 206.164 335.240,207.046 335.600,207.652 335.600 C 208.257 335.600,208.864 335.780,209.000 336.000 C 209.136 336.220,209.867 336.400,210.624 336.400 C 211.381 336.400,212.000 336.580,212.000 336.800 C 212.000 337.020,212.720 337.200,213.600 337.200 C 214.480 337.200,215.200 337.380,215.200 337.600 C 215.200 337.820,216.100 338.000,217.200 338.000 C 218.300 338.000,219.200 338.180,219.200 338.400 C 219.200 338.628,220.392 338.800,221.976 338.800 C 223.503 338.800,224.864 338.980,225.000 339.200 C 225.140 339.426,227.111 339.600,229.544 339.600 C 232.072 339.600,234.017 339.777,234.270 340.030 C 234.550 340.310,235.999 340.377,238.450 340.221 C 240.512 340.089,244.405 339.885,247.100 339.768 C 249.795 339.650,252.000 339.385,252.000 339.177 C 252.000 338.970,253.159 338.800,254.576 338.800 C 255.993 338.800,257.264 338.620,257.400 338.400 C 257.536 338.180,258.447 338.000,259.424 338.000 C 260.401 338.000,261.200 337.820,261.200 337.600 C 261.200 337.380,261.931 337.200,262.824 337.200 C 263.717 337.200,264.364 337.065,264.262 336.900 C 264.161 336.735,264.825 336.548,265.739 336.485 C 266.652 336.421,267.460 336.196,267.533 335.985 C 267.607 335.773,268.271 335.600,269.010 335.600 C 269.748 335.600,270.464 335.420,270.600 335.200 C 270.736 334.980,271.276 334.800,271.800 334.800 C 272.324 334.800,272.864 334.620,273.000 334.400 C 273.136 334.180,273.687 334.000,274.224 334.000 C 274.761 334.000,275.200 333.820,275.200 333.600 C 275.200 333.380,275.560 333.200,276.000 333.200 C 276.440 333.200,276.800 333.020,276.800 332.800 C 276.800 332.580,277.160 332.400,277.600 332.400 C 278.040 332.400,278.400 332.209,278.400 331.976 C 278.400 331.743,278.565 331.655,278.768 331.780 C 278.970 331.905,279.407 331.736,279.739 331.404 C 280.071 331.072,280.896 330.800,281.571 330.800 C 282.247 330.800,282.800 330.620,282.800 330.400 C 282.800 330.180,283.250 330.000,283.800 330.000 C 284.350 330.000,284.800 329.820,284.800 329.600 C 284.800 329.380,285.083 329.200,285.429 329.200 C 285.774 329.200,286.329 328.928,286.661 328.596 C 286.993 328.264,287.430 328.095,287.632 328.220 C 287.835 328.345,288.000 328.257,288.000 328.024 C 288.000 327.791,288.270 327.600,288.600 327.600 C 288.930 327.600,289.200 327.420,289.200 327.200 C 289.200 326.980,289.470 326.800,289.800 326.800 C 290.130 326.800,290.400 326.620,290.400 326.400 C 290.400 326.180,290.670 326.000,291.000 326.000 C 291.330 326.000,291.600 325.820,291.600 325.600 C 291.600 325.380,291.947 325.200,292.371 325.200 C 292.796 325.200,293.413 324.930,293.743 324.600 C 294.073 324.270,294.626 324.000,294.971 324.000 C 295.317 324.000,295.600 323.864,295.600 323.698 C 295.600 323.531,296.141 323.156,296.802 322.863 C 297.464 322.570,297.915 322.186,297.805 322.008 C 297.695 321.831,298.048 321.574,298.589 321.439 C 299.129 321.303,300.020 320.744,300.568 320.196 C 301.115 319.648,301.770 319.200,302.021 319.200 C 302.273 319.200,302.983 318.660,303.600 318.000 C 304.217 317.340,304.964 316.797,305.260 316.794 C 305.673 316.789,305.658 316.696,305.200 316.400 C 304.702 316.078,304.736 316.009,305.400 315.993 C 306.346 315.971,307.701 315.034,307.327 314.660 C 307.184 314.517,307.367 314.400,307.733 314.400 C 308.100 314.400,308.400 314.220,308.400 314.000 C 308.400 313.505,311.558 310.400,312.062 310.400 C 312.458 310.400,315.200 307.774,315.200 307.394 C 315.200 307.266,316.460 305.919,318.000 304.400 C 319.540 302.881,320.800 301.485,320.800 301.297 C 320.800 301.110,321.430 300.269,322.200 299.428 C 322.970 298.587,323.600 297.770,323.600 297.611 C 323.600 297.452,323.960 296.907,324.400 296.400 C 324.840 295.893,325.200 295.217,325.200 294.899 C 325.200 294.581,325.740 293.817,326.400 293.200 C 327.060 292.583,327.600 291.781,327.600 291.416 C 327.600 291.051,327.780 290.864,328.000 291.000 C 328.220 291.136,328.400 290.877,328.400 290.424 C 328.400 289.971,328.591 289.600,328.824 289.600 C 329.057 289.600,329.136 289.420,329.000 289.200 C 328.864 288.980,329.033 288.800,329.376 288.800 C 329.733 288.800,330.000 288.458,330.000 288.000 C 330.000 287.560,330.180 287.200,330.400 287.200 C 330.620 287.200,330.800 286.840,330.800 286.400 C 330.800 285.960,330.980 285.600,331.200 285.600 C 331.420 285.600,331.600 285.240,331.600 284.800 C 331.600 284.360,331.735 283.999,331.900 283.997 C 332.259 283.993,333.200 282.056,333.200 281.320 C 333.200 281.034,333.380 280.800,333.600 280.800 C 333.820 280.800,334.000 280.440,334.000 280.000 C 334.000 279.560,334.180 279.200,334.400 279.200 C 334.620 279.200,334.800 278.840,334.800 278.400 C 334.800 277.960,334.980 277.600,335.200 277.600 C 335.420 277.600,335.600 277.240,335.600 276.800 C 335.600 276.360,335.780 276.000,336.000 276.000 C 336.220 276.000,336.400 275.640,336.400 275.200 C 336.400 274.760,336.580 274.400,336.800 274.400 C 337.020 274.400,337.200 273.961,337.200 273.424 C 337.200 272.887,337.380 272.336,337.600 272.200 C 337.820 272.064,338.000 271.513,338.000 270.976 C 338.000 270.439,338.180 270.000,338.400 270.000 C 338.620 270.000,338.800 269.471,338.800 268.824 C 338.800 268.177,338.980 267.536,339.200 267.400 C 339.420 267.264,339.600 266.728,339.600 266.210 C 339.600 265.691,339.772 265.207,339.982 265.133 C 340.193 265.060,340.410 264.325,340.464 263.500 C 340.519 262.675,340.696 262.000,340.858 262.000 C 341.019 262.000,341.276 260.740,341.427 259.200 C 341.579 257.660,341.860 256.400,342.052 256.400 C 342.243 256.400,342.400 255.410,342.400 254.200 C 342.400 252.990,342.580 252.000,342.800 252.000 C 343.035 252.000,343.200 250.600,343.200 248.600 C 343.200 246.600,343.365 245.200,343.600 245.200 C 344.151 245.200,344.148 220.916,343.597 220.732 C 343.375 220.658,343.175 219.383,343.153 217.899 C 343.131 216.415,342.952 215.200,342.756 215.200 C 342.560 215.200,342.400 214.585,342.400 213.833 C 342.400 213.082,342.175 212.376,341.900 212.265 C 341.502 212.104,341.503 212.057,341.903 212.032 C 342.261 212.009,342.296 211.798,342.022 211.300 C 341.811 210.915,341.525 209.385,341.387 207.900 C 341.249 206.415,340.971 205.200,340.768 205.200 C 340.566 205.200,340.400 204.808,340.400 204.328 C 340.400 203.408,339.740 201.072,339.151 199.905 C 338.958 199.523,338.800 198.944,338.800 198.618 C 338.800 198.291,338.440 197.383,338.000 196.600 C 337.560 195.817,337.200 194.821,337.200 194.388 C 337.200 193.955,337.020 193.600,336.800 193.600 C 336.580 193.600,336.400 193.240,336.400 192.800 C 336.400 192.360,336.220 192.000,336.000 192.000 C 335.780 192.000,335.600 191.460,335.600 190.800 C 335.600 190.140,335.420 189.600,335.200 189.600 C 334.980 189.600,334.800 189.240,334.800 188.800 C 334.800 188.360,334.620 188.000,334.400 188.000 C 334.180 188.000,334.000 187.640,334.000 187.200 C 334.000 186.760,333.820 186.400,333.600 186.400 C 333.380 186.400,333.200 186.040,333.200 185.600 C 333.200 185.160,333.020 184.800,332.800 184.800 C 332.580 184.800,332.400 184.440,332.400 184.000 C 332.400 183.560,332.220 183.200,332.000 183.200 C 331.780 183.200,331.600 182.880,331.600 182.488 C 331.600 182.097,331.240 181.517,330.800 181.200 C 330.360 180.883,330.000 180.303,330.000 179.912 C 330.000 179.520,329.820 179.200,329.600 179.200 C 329.380 179.200,329.200 178.880,329.200 178.488 C 329.200 178.097,328.840 177.517,328.400 177.200 C 327.960 176.883,327.600 176.395,327.600 176.115 C 327.600 175.836,327.240 175.382,326.800 175.107 C 326.360 174.832,326.000 174.291,326.000 173.904 C 326.000 173.517,325.838 173.200,325.639 173.200 C 325.441 173.200,325.099 172.687,324.881 172.060 C 324.662 171.433,324.015 170.451,323.442 169.878 C 322.869 169.305,322.400 168.670,322.400 168.466 C 322.400 168.263,321.724 167.400,320.898 166.548 C 320.072 165.697,318.987 164.426,318.488 163.724 C 317.473 162.298,314.800 159.461,314.800 159.810 C 314.800 159.934,313.368 158.587,311.617 156.817 C 308.136 153.299,308.000 153.209,308.000 154.443 M164.623 156.999 C 163.574 157.989,162.870 158.800,163.058 158.800 C 163.544 158.800,166.958 155.625,166.724 155.391 C 166.618 155.284,165.672 156.008,164.623 156.999 M205.786 173.581 C 205.338 173.762,204.708 174.230,204.386 174.621 C 203.712 175.438,204.654 175.033,206.200 173.842 C 207.091 173.155,206.991 173.092,205.786 173.581 M278.400 178.567 C 278.400 178.988,279.605 180.128,279.821 179.912 C 279.922 179.811,279.644 179.402,279.202 179.002 C 278.761 178.603,278.400 178.407,278.400 178.567 M283.200 182.567 C 283.200 182.988,284.405 184.128,284.621 183.912 C 284.722 183.811,284.444 183.402,284.002 183.002 C 283.561 182.603,283.200 182.407,283.200 182.567 M286.667 185.867 C 286.541 185.992,286.708 186.365,287.038 186.695 C 287.368 187.025,287.741 187.192,287.867 187.067 C 287.992 186.941,287.825 186.568,287.495 186.238 C 287.165 185.908,286.792 185.741,286.667 185.867 M172.846 214.267 C 172.821 214.524,172.684 215.064,172.541 215.467 C 172.340 216.036,172.394 216.097,172.779 215.742 C 173.052 215.491,173.189 214.951,173.084 214.542 C 172.979 214.134,172.872 214.010,172.846 214.267 M295.257 270.857 C 294.975 271.309,294.832 271.766,294.940 271.873 C 295.047 271.981,295.344 271.678,295.600 271.200 C 296.205 270.070,295.924 269.790,295.257 270.857 M186.364 277.933 C 186.580 278.336,187.074 278.921,187.463 279.233 C 187.964 279.635,187.904 279.422,187.257 278.500 C 186.269 277.091,185.731 276.749,186.364 277.933 M281.500 286.157 C 280.769 286.712,280.584 287.200,281.104 287.200 C 281.271 287.200,281.632 286.840,281.907 286.400 C 282.489 285.468,282.444 285.440,281.500 286.157 M146.073 287.000 C 146.323 287.550,146.684 288.000,146.873 288.000 C 147.063 288.000,146.924 287.550,146.563 287.000 C 146.203 286.450,145.843 286.000,145.763 286.000 C 145.683 286.000,145.822 286.450,146.073 287.000 M111.400 294.400 C 112.501 294.873,112.892 294.873,112.600 294.400 C 112.464 294.180,111.958 294.013,111.476 294.028 C 110.631 294.055,110.629 294.069,111.400 294.400 M97.029 297.009 C 96.605 297.329,96.335 297.668,96.429 297.761 C 96.523 297.855,97.025 297.587,97.544 297.166 C 98.638 296.279,98.179 296.139,97.029 297.009 M147.234 297.753 L 146.269 299.000 147.413 297.912 C 148.043 297.314,148.477 296.753,148.379 296.665 C 148.280 296.577,147.765 297.067,147.234 297.753 M144.086 300.654 C 143.583 301.174,143.330 301.600,143.524 301.600 C 143.948 301.600,145.397 300.055,145.164 299.851 C 145.074 299.772,144.589 300.133,144.086 300.654 M132.001 310.200 C 132.551 310.860,133.045 311.475,133.100 311.567 C 133.155 311.658,133.288 311.645,133.396 311.538 C 133.504 311.430,133.009 310.815,132.297 310.171 L 131.003 309.000 132.001 310.200 M93.509 325.624 C 94.420 326.853,99.200 331.626,99.200 331.306 C 99.200 331.127,97.816 329.634,96.124 327.990 C 94.432 326.345,93.255 325.281,93.509 325.624 M102.492 334.938 C 103.651 336.115,104.679 337.011,104.776 336.929 C 105.006 336.736,101.128 332.800,100.707 332.800 C 100.530 332.800,101.333 333.762,102.492 334.938 M105.200 337.538 C 105.200 337.792,105.367 338.000,105.572 338.000 C 105.777 338.000,106.004 338.405,106.076 338.900 C 106.183 339.635,106.257 339.679,106.477 339.138 C 106.645 338.725,106.455 338.212,105.973 337.776 C 105.526 337.371,105.200 337.271,105.200 337.538 M161.651 340.300 C 161.953 340.685,162.290 341.090,162.400 341.200 C 162.638 341.438,163.332 343.217,164.639 346.938 C 169.843 361.763,154.254 375.628,139.809 369.021 C 138.566 368.453,137.164 367.928,136.695 367.857 C 136.226 367.785,135.772 367.517,135.687 367.261 C 135.602 367.005,135.372 366.894,135.177 367.014 C 134.982 367.135,136.352 368.764,138.222 370.634 C 140.092 372.504,141.777 373.938,141.966 373.821 C 142.155 373.704,142.285 373.922,142.255 374.304 C 142.221 374.739,142.462 374.979,142.900 374.944 C 143.285 374.914,143.600 375.125,143.600 375.413 C 143.600 376.081,146.669 379.200,147.327 379.200 C 147.600 379.200,148.083 379.560,148.400 380.000 C 148.717 380.440,149.297 380.800,149.688 380.800 C 150.080 380.800,150.400 380.980,150.400 381.200 C 150.400 381.420,150.760 381.600,151.200 381.600 C 151.640 381.600,152.000 381.780,152.000 382.000 C 152.000 382.220,152.540 382.400,153.200 382.400 C 153.860 382.400,154.400 382.580,154.400 382.800 C 154.400 383.358,163.489 383.334,163.675 382.776 C 163.752 382.543,164.404 382.335,165.122 382.315 C 165.841 382.294,166.523 382.125,166.638 381.939 C 166.753 381.752,167.197 381.600,167.624 381.600 C 168.051 381.600,168.400 381.420,168.400 381.200 C 168.400 380.980,168.661 380.800,168.980 380.800 C 169.299 380.800,169.744 380.485,169.968 380.100 C 170.192 379.715,170.381 379.545,170.388 379.723 C 170.409 380.296,175.200 375.174,175.200 374.577 C 175.200 374.260,175.380 374.000,175.600 374.000 C 175.820 374.000,176.000 373.640,176.000 373.200 C 176.000 372.760,176.180 372.400,176.400 372.400 C 176.620 372.400,176.800 372.076,176.800 371.680 C 176.800 371.284,177.016 370.744,177.280 370.480 C 177.653 370.107,177.653 370.000,177.280 370.000 C 177.016 370.000,176.800 369.809,176.800 369.576 C 176.800 369.343,176.980 369.264,177.200 369.400 C 177.444 369.551,177.600 368.937,177.600 367.824 C 177.600 366.821,177.780 366.000,178.000 366.000 C 178.220 366.000,178.400 365.291,178.400 364.424 C 178.400 363.557,178.220 362.736,178.000 362.600 C 177.780 362.464,177.600 361.463,177.600 360.376 C 177.600 359.289,177.420 358.400,177.200 358.400 C 176.980 358.400,176.800 357.860,176.800 357.200 C 176.800 356.540,176.620 356.000,176.400 356.000 C 176.180 356.000,176.000 355.640,176.000 355.200 C 176.000 354.720,175.733 354.400,175.333 354.400 C 174.967 354.400,174.779 354.287,174.917 354.149 C 175.453 353.614,173.852 351.509,169.810 347.438 C 167.495 345.106,165.600 343.279,165.600 343.380 C 165.600 343.480,164.709 342.670,163.619 341.581 C 161.678 339.639,160.565 338.915,161.651 340.300 M99.260 345.442 C 98.962 345.778,98.799 346.132,98.895 346.229 C 98.992 346.326,99.398 346.044,99.798 345.602 C 100.197 345.161,100.361 344.807,100.162 344.815 C 99.963 344.824,99.557 345.105,99.260 345.442 M97.286 347.454 C 96.783 347.974,96.530 348.400,96.724 348.400 C 97.148 348.400,98.597 346.855,98.364 346.651 C 98.274 346.572,97.789 346.933,97.286 347.454 M94.860 349.851 C 94.343 350.402,93.996 350.929,94.089 351.022 C 94.182 351.115,94.774 350.654,95.404 349.996 C 96.034 349.338,96.381 348.811,96.175 348.824 C 95.969 348.838,95.377 349.300,94.860 349.851 M120.001 355.495 C 119.354 355.616,113.783 360.863,104.201 370.379 C 86.421 388.034,84.311 389.378,76.387 388.093 C 73.136 387.566,72.400 387.598,72.400 388.267 C 72.400 388.560,72.580 388.800,72.800 388.800 C 73.020 388.800,73.203 389.295,73.206 389.900 C 73.211 390.757,73.298 390.868,73.600 390.400 C 73.906 389.927,73.989 390.016,73.994 390.825 C 73.997 391.388,74.367 392.243,74.816 392.725 C 75.264 393.206,75.561 393.600,75.476 393.600 C 75.390 393.600,76.279 394.590,77.451 395.800 C 78.623 397.010,79.856 398.000,80.191 398.000 C 80.526 398.000,80.800 398.180,80.800 398.400 C 80.800 398.620,81.145 398.800,81.567 398.800 C 81.988 398.800,82.408 399.025,82.500 399.300 C 82.625 399.676,84.528 399.800,90.199 399.800 C 95.870 399.800,97.774 399.676,97.900 399.300 C 97.991 399.025,98.412 398.800,98.833 398.800 C 99.255 398.800,99.600 398.620,99.600 398.400 C 99.600 398.180,99.960 398.000,100.400 398.000 C 100.840 398.000,101.200 397.850,101.200 397.668 C 101.200 397.485,101.695 397.080,102.299 396.768 C 103.551 396.121,108.540 391.200,107.944 391.200 C 107.729 391.200,107.666 391.017,107.804 390.793 C 107.942 390.570,108.207 390.481,108.393 390.596 C 108.578 390.710,109.465 390.098,110.364 389.235 C 111.402 388.237,111.815 387.592,111.498 387.464 C 111.207 387.347,111.297 387.250,111.713 387.232 C 112.638 387.191,115.191 384.638,115.232 383.713 C 115.249 383.319,115.351 383.217,115.460 383.486 C 115.595 383.817,115.947 383.690,116.567 383.086 C 117.068 382.599,117.317 382.094,117.120 381.965 C 116.923 381.835,117.075 381.475,117.458 381.165 C 117.907 380.800,118.047 380.777,117.853 381.100 C 117.361 381.920,117.967 381.669,119.018 380.618 C 119.558 380.078,120.000 379.358,120.000 379.018 C 120.000 378.678,120.135 378.421,120.300 378.447 C 121.203 378.590,121.603 378.305,121.632 377.500 C 121.649 377.005,121.752 376.820,121.861 377.089 C 122.116 377.717,124.053 375.844,123.905 375.114 C 123.847 374.831,124.087 374.620,124.438 374.645 C 124.789 374.670,125.297 374.336,125.568 373.903 C 125.854 373.444,125.880 373.227,125.630 373.382 C 125.393 373.528,125.200 373.437,125.200 373.181 C 125.200 372.924,125.476 372.820,125.813 372.950 C 126.612 373.256,132.978 366.939,133.345 365.475 C 133.583 364.530,133.167 363.986,129.395 360.309 C 124.248 355.292,123.406 354.860,120.001 355.495 M80.914 363.880 C 80.427 364.386,80.174 364.800,80.352 364.800 C 80.742 364.800,82.198 363.245,81.964 363.077 C 81.874 363.013,81.401 363.374,80.914 363.880 " stroke="none" fill="#fc646c" fill-rule="evenodd"></path><path id="path4" d="M218.406 31.833 C 218.409 32.255,218.595 32.870,218.818 33.200 C 219.115 33.638,219.152 33.476,218.956 32.600 C 218.627 31.129,218.398 30.810,218.406 31.833 M164.100 59.876 C 164.485 59.976,165.115 59.976,165.500 59.876 C 165.885 59.775,165.570 59.693,164.800 59.693 C 164.030 59.693,163.715 59.775,164.100 59.876 M232.359 128.163 C 232.117 128.416,224.053 129.252,220.920 129.348 C 219.886 129.380,219.383 129.543,219.612 129.772 C 219.840 130.000,221.716 129.923,224.492 129.572 C 233.811 128.390,249.941 128.943,259.109 130.757 C 260.048 130.944,260.900 130.962,261.001 130.799 C 261.101 130.636,260.423 130.389,259.492 130.251 C 258.561 130.112,256.630 129.814,255.200 129.588 C 248.747 128.569,232.916 127.581,232.359 128.163 M230.349 165.475 C 229.860 166.076,229.888 166.114,230.600 165.819 C 236.528 163.370,264.582 167.882,267.322 171.725 C 267.559 172.057,267.615 172.019,267.509 171.600 C 267.081 169.913,258.318 167.071,247.833 165.218 C 243.676 164.484,231.004 164.670,230.349 165.475 M132.705 234.526 C 132.820 241.675,133.593 249.233,134.837 255.380 C 135.755 259.914,138.752 269.782,139.104 269.429 C 139.308 269.225,138.049 264.752,137.182 262.600 C 137.005 262.160,136.749 261.260,136.612 260.600 C 136.476 259.940,136.192 258.680,135.981 257.800 C 134.447 251.393,133.611 244.680,133.345 236.625 C 133.206 232.431,132.982 228.787,132.847 228.526 C 132.711 228.265,132.647 230.965,132.705 234.526 M169.384 234.851 C 168.624 237.246,170.423 248.660,172.628 255.424 C 174.594 261.457,179.224 270.910,179.887 270.246 C 179.997 270.136,179.730 269.541,179.293 268.923 C 178.327 267.557,175.504 261.929,174.818 260.000 C 174.544 259.230,174.176 258.240,174.000 257.800 C 173.527 256.615,172.955 254.827,172.400 252.800 C 172.129 251.810,171.766 250.550,171.594 250.000 C 171.422 249.450,171.088 247.740,170.851 246.200 C 169.783 239.264,169.514 236.683,169.724 235.389 C 169.976 233.836,169.796 233.552,169.384 234.851 " stroke="none" fill="#b8aecc" fill-rule="evenodd"></path></g></svg>