<?xml version="1.0" standalone="no"?>
<!DOCTYPE svg PUBLIC "-//W3C//DTD SVG 20010904//EN"
 "http://www.w3.org/TR/2001/REC-SVG-20010904/DTD/svg10.dtd">
<svg version="1.0" xmlns="http://www.w3.org/2000/svg"
 width="512.000000pt" height="512.000000pt" viewBox="0 0 512.000000 512.000000"
 preserveAspectRatio="xMidYMid meet">

<g transform="translate(0.000000,512.000000) scale(0.100000,-0.100000)"
fill="#000000" stroke="none">
<path d="M2465 4599 c-675 -50 -1187 -675 -1105 -1349 53 -433 376 -1105 885
-1839 139 -201 303 -421 312 -421 12 1 233 303 368 504 387 574 615 1003 750
1411 61 182 81 279 91 427 21 319 -109 663 -339 900 -254 262 -599 393 -962
367z m237 -749 c354 -109 459 -560 190 -812 -96 -90 -200 -132 -332 -132 -355
-1 -590 369 -436 689 59 125 153 207 286 252 86 30 203 31 292 3z"/>
</g>
</svg>
