<?xml version="1.0" standalone="no"?>
<!DOCTYPE svg PUBLIC "-//W3C//DTD SVG 20010904//EN"
 "http://www.w3.org/TR/2001/REC-SVG-20010904/DTD/svg10.dtd">
<svg version="1.0" xmlns="http://www.w3.org/2000/svg"
 width="512.000000pt" height="512.000000pt" viewBox="0 0 512.000000 512.000000"
 preserveAspectRatio="xMidYMid meet">

<g transform="translate(0.000000,512.000000) scale(0.100000,-0.100000)"
fill="#000000" stroke="none">
<path d="M349 5110 c-169 -22 -318 -171 -338 -339 -9 -78 4 -400 24 -573 67
-595 231 -1133 508 -1662 443 -849 1144 -1550 1993 -1993 529 -277 1067 -441
1662 -508 173 -20 495 -33 573 -24 82 9 161 49 225 113 65 66 103 142 115 234
12 93 11 952 -1 1037 -18 120 -81 222 -178 284 -72 46 -132 60 -277 66 -286
13 -520 49 -784 124 -158 45 -233 51 -317 26 -64 -19 -78 -28 -433 -298 -165
-125 -304 -227 -308 -227 -15 0 -246 134 -343 199 -361 242 -659 540 -901 901
-64 96 -199 328 -199 342 0 5 102 144 228 309 272 360 279 370 297 433 25 85
19 168 -24 322 -76 271 -105 454 -121 748 -6 110 -15 187 -25 216 -53 149
-173 248 -328 271 -72 10 -966 10 -1048 -1z"/>
<path d="M3065 5113 c-105 -27 -130 -178 -39 -238 21 -13 60 -20 153 -26 69
-4 158 -13 196 -19 557 -91 1044 -450 1293 -956 111 -223 164 -426 181 -695 9
-136 20 -168 72 -195 57 -29 139 -11 172 39 26 40 29 86 17 230 -83 991 -858
1772 -1845 1856 -126 11 -167 12 -200 4z"/>
<path d="M3043 4025 c-64 -28 -93 -123 -57 -185 26 -43 64 -59 168 -70 172
-18 307 -80 421 -195 115 -114 177 -249 195 -421 6 -54 17 -108 26 -124 51
-86 191 -77 230 15 18 44 18 101 -1 209 -70 400 -371 701 -771 771 -106 18
-169 19 -211 0z"/>
</g>
</svg>
