<svg id="svg" version="1.1" xmlns="http://www.w3.org/2000/svg" xmlns:xlink="http://www.w3.org/1999/xlink" width="400" height="400" viewBox="0, 0, 400,400"><g id="svgg"><path id="path0" d="M146.400 25.036 C 143.715 25.483,140.961 26.163,140.620 26.464 C 140.411 26.649,139.736 26.800,139.120 26.800 C 138.504 26.800,138.000 26.980,138.000 27.200 C 138.000 27.420,137.561 27.600,137.024 27.600 C 136.487 27.600,135.936 27.780,135.800 28.000 C 135.664 28.220,135.203 28.400,134.776 28.400 C 134.349 28.400,134.000 28.580,134.000 28.800 C 134.000 29.020,133.640 29.200,133.200 29.200 C 132.760 29.200,132.400 29.380,132.400 29.600 C 132.400 29.820,132.040 30.000,131.600 30.000 C 131.160 30.000,130.800 30.180,130.800 30.400 C 130.800 30.620,130.440 30.800,130.000 30.800 C 129.560 30.800,129.200 30.980,129.200 31.200 C 129.200 31.420,128.964 31.600,128.675 31.600 C 128.387 31.600,127.764 31.960,127.292 32.400 C 126.820 32.840,126.286 33.200,126.105 33.200 C 125.924 33.200,125.517 33.560,125.200 34.000 C 124.883 34.440,124.375 34.800,124.072 34.800 C 123.769 34.800,123.017 35.340,122.400 36.000 C 121.783 36.660,121.100 37.200,120.881 37.200 C 120.416 37.200,112.800 44.553,112.800 45.002 C 112.800 45.169,112.470 45.597,112.066 45.953 C 111.013 46.881,108.400 50.697,108.400 51.308 C 108.400 51.591,108.040 52.083,107.600 52.400 C 107.160 52.717,106.800 53.297,106.800 53.688 C 106.800 54.080,106.620 54.400,106.400 54.400 C 106.180 54.400,106.000 54.760,106.000 55.200 C 106.000 55.640,105.820 56.000,105.600 56.000 C 105.380 56.000,105.200 56.360,105.200 56.800 C 105.200 57.240,105.020 57.600,104.800 57.600 C 104.580 57.600,104.400 57.870,104.400 58.200 C 104.400 58.530,104.220 58.800,104.000 58.800 C 103.780 58.800,103.600 59.160,103.600 59.600 C 103.600 60.040,103.420 60.400,103.200 60.400 C 102.980 60.400,102.800 60.760,102.800 61.200 C 102.800 61.640,102.620 62.000,102.400 62.000 C 102.180 62.000,102.000 62.439,102.000 62.976 C 102.000 63.513,101.820 64.064,101.600 64.200 C 101.380 64.336,101.200 64.797,101.200 65.224 C 101.200 65.651,101.020 66.000,100.800 66.000 C 100.580 66.000,100.400 66.540,100.400 67.200 C 100.400 67.860,100.220 68.400,100.000 68.400 C 99.780 68.400,99.600 68.929,99.600 69.576 C 99.600 70.223,99.420 70.864,99.200 71.000 C 98.980 71.136,98.800 71.946,98.800 72.800 C 98.800 73.654,98.620 74.464,98.400 74.600 C 98.180 74.736,98.000 75.431,98.000 76.144 C 98.000 76.857,97.835 77.611,97.632 77.820 C 96.797 78.684,96.010 99.370,96.784 100.144 C 97.013 100.373,97.200 101.784,97.200 103.280 C 97.200 104.827,97.373 106.000,97.600 106.000 C 97.820 106.000,98.000 106.810,98.000 107.800 C 98.000 108.790,98.180 109.600,98.400 109.600 C 98.620 109.600,98.800 110.320,98.800 111.200 C 98.800 112.080,98.980 112.800,99.200 112.800 C 99.420 112.800,99.600 113.340,99.600 114.000 C 99.600 114.660,99.780 115.200,100.000 115.200 C 100.220 115.200,100.400 115.740,100.400 116.400 C 100.400 117.060,100.580 117.600,100.800 117.600 C 101.020 117.600,101.200 118.140,101.200 118.800 C 101.200 119.460,101.380 120.000,101.600 120.000 C 101.820 120.000,102.000 120.360,102.000 120.800 C 102.000 121.240,102.180 121.600,102.400 121.600 C 102.620 121.600,102.800 122.050,102.800 122.600 C 102.800 123.150,102.980 123.600,103.200 123.600 C 103.420 123.600,103.600 123.960,103.600 124.400 C 103.600 124.840,103.780 125.200,104.000 125.200 C 104.220 125.200,104.400 125.478,104.400 125.817 C 104.400 126.156,104.760 126.820,105.200 127.292 C 105.640 127.764,106.000 128.387,106.000 128.675 C 106.000 128.964,106.180 129.200,106.400 129.200 C 106.620 129.200,106.800 129.560,106.800 130.000 C 106.800 130.440,106.935 130.803,107.100 130.806 C 107.265 130.810,107.835 131.699,108.367 132.782 C 108.899 133.866,109.709 135.174,110.167 135.689 C 110.625 136.205,111.619 137.431,112.377 138.413 C 113.134 139.396,114.099 140.470,114.521 140.800 C 114.943 141.130,116.796 142.885,118.639 144.700 C 120.481 146.515,122.221 148.000,122.506 148.000 C 122.791 148.000,123.283 148.360,123.600 148.800 C 123.917 149.240,124.392 149.600,124.655 149.600 C 124.918 149.600,125.193 149.745,125.267 149.923 C 125.459 150.391,129.065 152.800,129.572 152.800 C 129.807 152.800,130.000 152.980,130.000 153.200 C 130.000 153.420,130.360 153.600,130.800 153.600 C 131.240 153.600,131.600 153.780,131.600 154.000 C 131.600 154.220,131.960 154.400,132.400 154.400 C 132.840 154.400,133.200 154.547,133.200 154.728 C 133.200 154.908,134.100 155.300,135.200 155.600 C 136.300 155.900,137.200 156.292,137.200 156.472 C 137.200 156.653,137.740 156.800,138.400 156.800 C 139.060 156.800,139.600 156.980,139.600 157.200 C 139.600 157.420,140.104 157.600,140.720 157.600 C 141.336 157.600,142.023 157.783,142.246 158.006 C 142.469 158.229,144.395 158.526,146.526 158.666 C 148.657 158.806,150.400 159.074,150.400 159.260 C 150.400 159.447,152.830 159.600,155.800 159.600 C 158.770 159.600,161.200 159.447,161.200 159.260 C 161.200 159.074,162.989 158.812,165.176 158.679 C 167.363 158.545,169.478 158.263,169.876 158.052 C 170.274 157.840,171.994 157.247,173.698 156.733 C 175.402 156.220,176.797 155.665,176.798 155.500 C 176.799 155.335,177.160 155.200,177.600 155.200 C 178.040 155.200,178.400 155.020,178.400 154.800 C 178.400 154.580,178.760 154.400,179.200 154.400 C 179.640 154.400,180.000 154.220,180.000 154.000 C 180.000 153.780,180.360 153.600,180.800 153.600 C 181.240 153.600,181.600 153.420,181.600 153.200 C 181.600 152.980,181.960 152.800,182.400 152.800 C 182.840 152.800,183.200 152.620,183.200 152.400 C 183.200 152.180,183.494 152.000,183.853 152.000 C 184.212 152.000,184.797 151.684,185.153 151.297 C 185.509 150.911,186.295 150.340,186.900 150.030 C 187.505 149.719,188.000 149.315,188.000 149.132 C 188.000 148.950,188.193 148.800,188.429 148.800 C 188.664 148.800,189.094 148.575,189.384 148.300 C 189.674 148.025,190.246 147.513,190.655 147.162 C 191.065 146.812,191.665 146.137,191.988 145.662 C 192.312 145.188,192.852 144.796,193.188 144.791 C 193.525 144.787,194.340 144.139,195.000 143.351 C 195.660 142.564,197.325 140.747,198.700 139.314 C 200.075 137.880,201.200 136.498,201.200 136.242 C 201.200 135.986,201.560 135.517,202.000 135.200 C 202.440 134.883,202.800 134.343,202.800 134.000 C 202.800 133.657,203.160 133.117,203.600 132.800 C 204.040 132.483,204.400 131.986,204.400 131.695 C 204.400 131.404,204.760 130.780,205.200 130.308 C 205.640 129.836,206.000 129.213,206.000 128.925 C 206.000 128.636,206.180 128.400,206.400 128.400 C 206.620 128.400,206.800 128.040,206.800 127.600 C 206.800 127.160,206.980 126.800,207.200 126.800 C 207.420 126.800,207.600 126.440,207.600 126.000 C 207.600 125.560,207.772 125.200,207.982 125.200 C 208.192 125.200,208.482 124.570,208.626 123.800 C 208.771 123.030,209.049 122.400,209.245 122.400 C 209.440 122.400,209.600 121.961,209.600 121.424 C 209.600 120.887,209.780 120.336,210.000 120.200 C 210.220 120.064,210.400 119.603,210.400 119.176 C 210.400 118.749,210.580 118.400,210.800 118.400 C 211.020 118.400,211.200 117.860,211.200 117.200 C 211.200 116.540,211.380 116.000,211.600 116.000 C 211.820 116.000,212.000 115.460,212.000 114.800 C 212.000 114.140,212.180 113.600,212.400 113.600 C 212.620 113.600,212.800 112.880,212.800 112.000 C 212.800 111.120,212.980 110.400,213.200 110.400 C 213.420 110.400,213.600 109.590,213.600 108.600 C 213.600 107.610,213.780 106.800,214.000 106.800 C 214.222 106.800,214.400 105.741,214.400 104.424 C 214.400 103.117,214.580 101.936,214.800 101.800 C 215.049 101.646,215.200 97.937,215.200 92.000 C 215.200 86.063,215.049 82.354,214.800 82.200 C 214.580 82.064,214.400 80.894,214.400 79.600 C 214.400 78.306,214.220 77.136,214.000 77.000 C 213.780 76.864,213.600 76.144,213.600 75.400 C 213.600 74.656,213.420 73.936,213.200 73.800 C 212.980 73.664,212.800 72.933,212.800 72.176 C 212.800 71.419,212.620 70.800,212.400 70.800 C 212.180 70.800,212.000 70.181,212.000 69.424 C 212.000 68.667,211.820 67.936,211.600 67.800 C 211.380 67.664,211.200 67.124,211.200 66.600 C 211.200 66.076,211.020 65.536,210.800 65.400 C 210.580 65.264,210.400 64.803,210.400 64.376 C 210.400 63.949,210.220 63.600,210.000 63.600 C 209.780 63.600,209.600 63.240,209.600 62.800 C 209.600 62.360,209.420 62.000,209.200 62.000 C 208.980 62.000,208.800 61.624,208.800 61.164 C 208.800 60.200,205.377 53.380,204.314 52.225 C 203.921 51.798,203.600 51.213,203.600 50.925 C 203.600 50.636,203.450 50.400,203.268 50.400 C 203.085 50.400,202.680 49.905,202.368 49.300 C 202.055 48.695,201.305 47.723,200.700 47.140 C 200.095 46.556,199.600 45.903,199.600 45.688 C 199.600 45.473,198.925 44.645,198.100 43.848 C 197.275 43.051,195.208 41.049,193.506 39.399 C 191.805 37.750,190.270 36.400,190.095 36.400 C 189.920 36.400,189.517 36.040,189.200 35.600 C 188.883 35.160,188.393 34.800,188.112 34.800 C 187.830 34.800,187.600 34.620,187.600 34.400 C 187.600 34.180,187.370 34.000,187.088 34.000 C 186.807 34.000,186.317 33.640,186.000 33.200 C 185.683 32.760,185.103 32.400,184.712 32.400 C 184.320 32.400,184.000 32.220,184.000 32.000 C 184.000 31.780,183.640 31.600,183.200 31.600 C 182.760 31.600,182.400 31.420,182.400 31.200 C 182.400 30.980,182.175 30.796,181.900 30.791 C 181.625 30.786,180.950 30.430,180.400 30.000 C 179.850 29.570,178.995 29.214,178.500 29.209 C 178.005 29.204,177.600 29.020,177.600 28.800 C 177.600 28.580,177.240 28.400,176.800 28.400 C 176.360 28.400,176.000 28.259,176.000 28.087 C 176.000 27.915,175.145 27.539,174.100 27.252 C 173.055 26.964,171.930 26.624,171.600 26.497 C 168.433 25.272,166.956 25.116,157.400 24.996 C 151.900 24.927,146.950 24.945,146.400 25.036 M273.200 56.400 C 273.200 56.620,272.221 56.800,271.024 56.800 C 269.827 56.800,268.736 56.980,268.600 57.200 C 268.464 57.420,267.823 57.600,267.176 57.600 C 266.529 57.600,266.000 57.756,266.000 57.946 C 266.000 58.136,265.218 58.398,264.263 58.529 C 262.378 58.788,256.800 61.136,256.800 61.671 C 256.800 61.852,256.440 62.000,256.000 62.000 C 255.560 62.000,255.200 62.180,255.200 62.400 C 255.200 62.620,254.840 62.800,254.400 62.800 C 253.960 62.800,253.600 62.980,253.600 63.200 C 253.600 63.420,253.280 63.600,252.888 63.600 C 252.497 63.600,251.917 63.960,251.600 64.400 C 251.283 64.840,250.743 65.200,250.400 65.200 C 250.057 65.200,249.517 65.560,249.200 66.000 C 248.883 66.440,248.415 66.800,248.160 66.800 C 247.905 66.800,246.955 67.520,246.048 68.400 C 245.141 69.280,244.306 70.000,244.192 70.000 C 243.902 70.000,238.800 75.132,238.800 75.424 C 238.800 75.555,238.080 76.354,237.200 77.200 C 236.320 78.046,235.600 78.905,235.600 79.109 C 235.600 79.314,235.060 80.046,234.400 80.737 C 233.740 81.428,233.200 82.225,233.200 82.508 C 233.200 82.791,232.840 83.283,232.400 83.600 C 231.960 83.917,231.600 84.497,231.600 84.888 C 231.600 85.280,231.420 85.600,231.200 85.600 C 230.980 85.600,230.800 85.960,230.800 86.400 C 230.800 86.840,230.641 87.200,230.447 87.200 C 229.653 87.200,224.800 98.359,224.800 100.184 C 224.800 100.717,224.620 101.264,224.400 101.400 C 224.180 101.536,224.000 102.267,224.000 103.024 C 224.000 103.781,223.820 104.400,223.600 104.400 C 223.380 104.400,223.200 105.109,223.200 105.976 C 223.200 106.843,223.020 107.664,222.800 107.800 C 222.580 107.936,222.400 108.926,222.400 110.000 C 222.400 111.074,222.220 112.064,222.000 112.200 C 221.752 112.353,221.600 115.937,221.600 121.624 C 221.600 127.475,221.745 130.800,222.000 130.800 C 222.222 130.800,222.400 131.867,222.400 133.200 C 222.400 134.533,222.578 135.600,222.800 135.600 C 223.020 135.600,223.200 136.320,223.200 137.200 C 223.200 138.080,223.380 138.800,223.600 138.800 C 223.820 138.800,224.000 139.430,224.000 140.200 C 224.000 140.970,224.160 141.600,224.356 141.600 C 224.552 141.600,224.803 142.185,224.914 142.900 C 225.311 145.465,228.910 153.600,229.648 153.600 C 229.841 153.600,230.000 153.960,230.000 154.400 C 230.000 154.840,230.180 155.200,230.400 155.200 C 230.620 155.200,230.800 155.378,230.800 155.595 C 230.800 155.967,231.560 157.015,232.700 158.216 C 232.975 158.506,233.200 158.850,233.200 158.981 C 233.200 159.288,243.097 169.200,243.403 169.200 C 243.530 169.200,244.020 169.560,244.492 170.000 C 244.964 170.440,245.587 170.800,245.875 170.800 C 246.164 170.800,246.400 170.947,246.400 171.127 C 246.400 171.629,252.807 174.704,254.500 175.014 C 255.325 175.165,256.000 175.449,256.000 175.645 C 256.000 175.840,256.630 176.000,257.400 176.000 C 258.170 176.000,258.800 176.180,258.800 176.400 C 258.800 176.620,259.520 176.800,260.400 176.800 C 261.280 176.800,262.000 176.980,262.000 177.200 C 262.000 177.422,263.067 177.600,264.400 177.600 C 265.733 177.600,266.800 177.778,266.800 178.000 C 266.800 178.249,269.133 178.400,273.000 178.400 C 276.867 178.400,279.200 178.249,279.200 178.000 C 279.200 177.780,280.089 177.600,281.176 177.600 C 282.263 177.600,283.264 177.420,283.400 177.200 C 283.536 176.980,284.267 176.800,285.024 176.800 C 285.781 176.800,286.400 176.620,286.400 176.400 C 286.400 176.180,287.019 176.000,287.776 176.000 C 288.533 176.000,289.264 175.820,289.400 175.600 C 289.536 175.380,290.042 175.199,290.524 175.198 C 291.006 175.196,291.916 174.926,292.546 174.598 C 293.176 174.269,293.941 174.000,294.246 174.000 C 294.551 174.000,294.800 173.820,294.800 173.600 C 294.800 173.380,295.160 173.200,295.600 173.200 C 296.040 173.200,296.400 173.043,296.400 172.850 C 296.400 172.657,296.918 172.396,297.552 172.270 C 298.185 172.143,298.950 171.805,299.252 171.520 C 299.553 171.234,300.295 170.745,300.900 170.432 C 301.505 170.120,302.000 169.715,302.000 169.532 C 302.000 169.350,302.236 169.200,302.525 169.200 C 302.813 169.200,303.436 168.840,303.908 168.400 C 304.380 167.960,304.919 167.600,305.105 167.600 C 305.673 167.600,315.200 158.735,315.200 158.206 C 315.200 158.078,315.785 157.373,316.500 156.640 C 318.077 155.022,319.200 153.665,319.200 153.379 C 319.200 153.262,319.560 152.780,320.000 152.308 C 320.440 151.836,320.800 151.213,320.800 150.925 C 320.800 150.636,320.980 150.400,321.200 150.400 C 321.420 150.400,321.600 150.122,321.600 149.783 C 321.600 149.444,321.960 148.780,322.400 148.308 C 322.840 147.836,323.200 147.213,323.200 146.925 C 323.200 146.636,323.380 146.400,323.600 146.400 C 323.820 146.400,324.000 146.117,324.000 145.771 C 324.000 145.426,324.270 144.873,324.600 144.543 C 324.930 144.213,325.200 143.416,325.200 142.771 C 325.200 142.127,325.335 141.599,325.500 141.597 C 325.906 141.593,326.800 139.614,326.800 138.720 C 326.800 138.324,326.980 138.000,327.200 138.000 C 327.420 138.000,327.600 137.640,327.600 137.200 C 327.600 136.760,327.780 136.400,328.000 136.400 C 328.220 136.400,328.400 135.860,328.400 135.200 C 328.400 134.540,328.580 134.000,328.800 134.000 C 329.020 134.000,329.200 133.460,329.200 132.800 C 329.200 132.140,329.380 131.600,329.600 131.600 C 329.820 131.600,330.000 130.880,330.000 130.000 C 330.000 129.120,330.180 128.400,330.400 128.400 C 330.620 128.400,330.800 127.601,330.800 126.624 C 330.800 125.647,330.980 124.736,331.200 124.600 C 331.420 124.464,331.600 123.204,331.600 121.800 C 331.600 120.396,331.780 119.136,332.000 119.000 C 332.239 118.853,332.400 116.270,332.400 112.600 C 332.400 108.930,332.239 106.347,332.000 106.200 C 331.780 106.064,331.600 104.703,331.600 103.176 C 331.600 101.592,331.428 100.400,331.200 100.400 C 330.980 100.400,330.800 99.601,330.800 98.624 C 330.800 97.647,330.620 96.736,330.400 96.600 C 330.180 96.464,330.000 95.733,330.000 94.976 C 330.000 94.219,329.820 93.600,329.600 93.600 C 329.380 93.600,329.200 93.060,329.200 92.400 C 329.200 91.740,329.020 91.200,328.800 91.200 C 328.580 91.200,328.400 90.851,328.400 90.424 C 328.400 89.997,328.220 89.536,328.000 89.400 C 327.780 89.264,327.600 88.713,327.600 88.176 C 327.600 87.639,327.420 87.200,327.200 87.200 C 326.980 87.200,326.800 86.840,326.800 86.400 C 326.800 85.960,326.620 85.600,326.400 85.600 C 326.180 85.600,326.000 85.240,326.000 84.800 C 326.000 84.360,325.843 84.000,325.650 84.000 C 325.457 84.000,325.190 83.452,325.056 82.781 C 324.922 82.111,324.270 80.773,323.606 79.809 C 322.943 78.845,322.400 77.944,322.400 77.806 C 322.400 77.669,321.861 76.981,321.202 76.278 C 320.543 75.575,320.003 74.863,320.002 74.695 C 319.999 74.297,311.702 66.000,311.305 65.999 C 311.137 65.999,310.386 65.474,309.636 64.832 C 308.886 64.191,307.806 63.427,307.236 63.134 C 306.666 62.841,306.110 62.502,306.000 62.381 C 305.771 62.129,301.317 59.948,299.140 59.022 C 298.336 58.680,297.211 58.400,296.640 58.400 C 296.068 58.400,295.600 58.220,295.600 58.000 C 295.600 57.780,294.880 57.600,294.000 57.600 C 293.120 57.600,292.400 57.420,292.400 57.200 C 292.400 56.980,291.500 56.800,290.400 56.800 C 289.300 56.800,288.400 56.620,288.400 56.400 C 288.400 56.147,285.600 56.000,280.800 56.000 C 276.000 56.000,273.200 56.147,273.200 56.400 M44.400 101.600 C 44.400 101.833,43.067 102.000,41.200 102.000 C 39.333 102.000,38.000 102.167,38.000 102.400 C 38.000 102.620,37.280 102.800,36.400 102.800 C 35.520 102.800,34.800 102.980,34.800 103.200 C 34.800 103.420,34.260 103.600,33.600 103.600 C 32.940 103.600,32.400 103.780,32.400 104.000 C 32.400 104.220,31.860 104.400,31.200 104.400 C 30.540 104.400,30.000 104.580,30.000 104.800 C 30.000 105.020,29.550 105.200,29.000 105.200 C 28.450 105.200,28.000 105.380,28.000 105.600 C 28.000 105.820,27.640 106.000,27.200 106.000 C 26.760 106.000,26.400 106.180,26.400 106.400 C 26.400 106.620,26.080 106.800,25.688 106.800 C 25.297 106.800,24.717 107.160,24.400 107.600 C 24.083 108.040,23.584 108.400,23.292 108.400 C 22.497 108.400,20.289 109.616,19.553 110.459 C 19.197 110.867,18.707 111.200,18.463 111.200 C 17.971 111.200,10.800 118.287,10.800 118.773 C 10.800 118.940,10.419 119.510,9.953 120.039 C 9.487 120.567,8.929 121.495,8.714 122.100 C 8.498 122.705,8.159 123.200,7.961 123.200 C 7.762 123.200,7.600 123.494,7.600 123.853 C 7.600 124.212,7.271 124.797,6.870 125.153 C 6.468 125.509,5.884 126.385,5.572 127.100 C 5.260 127.815,4.869 128.400,4.702 128.400 C 4.536 128.400,4.400 128.839,4.400 129.376 C 4.400 129.913,4.220 130.464,4.000 130.600 C 3.780 130.736,3.600 131.197,3.600 131.624 C 3.600 132.051,3.420 132.400,3.200 132.400 C 2.980 132.400,2.800 132.940,2.800 133.600 C 2.800 134.260,2.620 134.800,2.400 134.800 C 2.180 134.800,2.000 135.340,2.000 136.000 C 2.000 136.660,1.820 137.200,1.600 137.200 C 1.380 137.200,1.200 137.905,1.200 138.767 C 1.200 139.664,0.987 140.405,0.700 140.500 C -0.025 140.742,-0.025 167.335,0.700 168.060 C 0.975 168.335,1.200 169.143,1.200 169.856 C 1.200 170.569,1.380 171.264,1.600 171.400 C 1.820 171.536,2.000 172.076,2.000 172.600 C 2.000 173.124,2.180 173.664,2.400 173.800 C 2.620 173.936,2.800 174.487,2.800 175.024 C 2.800 175.561,2.980 176.000,3.200 176.000 C 3.420 176.000,3.600 176.540,3.600 177.200 C 3.600 177.860,3.780 178.400,4.000 178.400 C 4.220 178.400,4.400 178.760,4.400 179.200 C 4.400 179.640,4.580 180.000,4.800 180.000 C 5.020 180.000,5.200 180.360,5.200 180.800 C 5.200 181.240,5.380 181.600,5.600 181.600 C 5.820 181.600,6.000 181.960,6.000 182.400 C 6.000 182.840,6.180 183.200,6.400 183.200 C 6.620 183.200,6.800 183.560,6.800 184.000 C 6.800 184.440,6.980 184.800,7.200 184.800 C 7.420 184.800,7.600 185.160,7.600 185.600 C 7.600 186.040,7.780 186.400,8.000 186.400 C 8.220 186.400,8.400 186.593,8.400 186.830 C 8.400 187.493,11.956 192.836,13.160 193.981 C 13.749 194.541,14.668 195.630,15.201 196.400 C 16.320 198.015,20.341 202.000,20.852 202.000 C 21.041 202.000,22.069 202.855,23.137 203.900 C 24.204 204.945,25.600 206.070,26.239 206.400 C 27.573 207.090,29.974 208.599,30.683 209.194 C 30.949 209.417,31.444 209.600,31.783 209.600 C 32.122 209.600,32.400 209.780,32.400 210.000 C 32.400 210.220,32.940 210.400,33.600 210.400 C 34.260 210.400,34.800 210.580,34.800 210.800 C 34.800 211.020,35.160 211.200,35.600 211.200 C 36.040 211.200,36.400 211.380,36.400 211.600 C 36.400 211.820,36.760 212.000,37.200 212.000 C 37.640 212.000,38.000 212.180,38.000 212.400 C 38.000 212.620,38.540 212.800,39.200 212.800 C 39.860 212.800,40.400 212.980,40.400 213.200 C 40.400 213.420,41.019 213.600,41.776 213.600 C 42.533 213.600,43.264 213.780,43.400 214.000 C 43.536 214.220,44.267 214.400,45.024 214.400 C 45.781 214.400,46.400 214.580,46.400 214.800 C 46.400 215.038,47.927 215.200,50.181 215.200 C 52.335 215.200,54.430 215.413,55.049 215.695 C 55.914 216.089,56.170 216.089,56.302 215.695 C 56.418 215.346,57.636 215.200,60.433 215.200 C 62.811 215.200,64.400 215.040,64.400 214.800 C 64.400 214.580,65.300 214.400,66.400 214.400 C 67.500 214.400,68.400 214.220,68.400 214.000 C 68.400 213.780,68.940 213.600,69.600 213.600 C 70.260 213.600,70.800 213.420,70.800 213.200 C 70.800 212.980,71.143 212.800,71.562 212.800 C 72.378 212.800,75.712 211.199,75.933 210.700 C 76.007 210.535,76.412 210.400,76.833 210.400 C 77.255 210.400,77.600 210.220,77.600 210.000 C 77.600 209.780,77.960 209.600,78.400 209.600 C 78.840 209.600,79.200 209.434,79.200 209.232 C 79.200 209.029,79.705 208.753,80.322 208.617 C 80.940 208.481,81.699 208.017,82.011 207.585 C 82.322 207.153,82.783 206.800,83.035 206.800 C 83.286 206.800,84.488 205.855,85.704 204.700 C 86.920 203.545,88.249 202.300,88.658 201.934 C 89.066 201.567,89.850 200.701,90.400 200.009 C 90.950 199.316,91.805 198.319,92.300 197.793 C 92.795 197.267,93.200 196.598,93.200 196.306 C 93.200 196.015,93.560 195.517,94.000 195.200 C 94.440 194.883,94.800 194.303,94.800 193.912 C 94.800 193.520,94.980 193.200,95.200 193.200 C 95.420 193.200,95.600 192.922,95.600 192.583 C 95.600 192.244,95.960 191.580,96.400 191.108 C 96.840 190.636,97.200 190.013,97.200 189.725 C 97.200 189.436,97.380 189.200,97.600 189.200 C 97.820 189.200,98.000 188.851,98.000 188.424 C 98.000 187.997,98.180 187.536,98.400 187.400 C 98.620 187.264,98.800 186.803,98.800 186.376 C 98.800 185.949,98.980 185.600,99.200 185.600 C 99.420 185.600,99.600 185.251,99.600 184.824 C 99.600 184.397,99.780 183.936,100.000 183.800 C 100.220 183.664,100.400 182.933,100.400 182.176 C 100.400 181.419,100.580 180.800,100.800 180.800 C 101.020 180.800,101.200 180.260,101.200 179.600 C 101.200 178.940,101.380 178.400,101.600 178.400 C 101.820 178.400,102.000 177.601,102.000 176.624 C 102.000 175.647,102.180 174.736,102.400 174.600 C 102.620 174.464,102.800 173.204,102.800 171.800 C 102.800 170.396,102.980 169.136,103.200 169.000 C 103.436 168.854,103.600 166.463,103.600 163.176 C 103.600 159.725,103.448 157.600,103.200 157.600 C 102.972 157.600,102.800 156.408,102.800 154.824 C 102.800 153.297,102.620 151.936,102.400 151.800 C 102.180 151.664,102.000 150.753,102.000 149.776 C 102.000 148.799,101.820 148.000,101.600 148.000 C 101.380 148.000,101.200 147.280,101.200 146.400 C 101.200 145.520,101.020 144.800,100.800 144.800 C 100.580 144.800,100.400 144.350,100.400 143.800 C 100.400 143.250,100.220 142.800,100.000 142.800 C 99.780 142.800,99.600 142.260,99.600 141.600 C 99.600 140.940,99.420 140.400,99.200 140.400 C 98.980 140.400,98.800 140.040,98.800 139.600 C 98.800 139.160,98.620 138.800,98.400 138.800 C 98.180 138.800,98.000 138.260,98.000 137.600 C 98.000 136.940,97.820 136.400,97.600 136.400 C 97.380 136.400,97.200 136.040,97.200 135.600 C 97.200 135.160,97.020 134.800,96.800 134.800 C 96.580 134.800,96.400 134.440,96.400 134.000 C 96.400 133.560,96.220 133.200,96.000 133.200 C 95.780 133.200,95.600 132.840,95.600 132.400 C 95.600 131.960,95.420 131.600,95.200 131.600 C 94.980 131.600,94.800 131.364,94.800 131.075 C 94.800 130.787,94.440 130.164,94.000 129.692 C 93.560 129.220,93.200 128.596,93.200 128.305 C 93.200 128.014,92.840 127.517,92.400 127.200 C 91.960 126.883,91.600 126.401,91.600 126.130 C 91.600 125.858,91.150 125.186,90.600 124.636 C 90.050 124.086,89.600 123.453,89.600 123.230 C 89.600 122.699,79.701 112.800,79.170 112.800 C 78.947 112.800,78.328 112.364,77.795 111.831 C 77.262 111.298,76.460 110.746,76.013 110.604 C 75.566 110.462,75.200 110.178,75.200 109.973 C 75.200 109.768,74.952 109.600,74.649 109.600 C 74.346 109.600,73.874 109.330,73.600 109.000 C 73.326 108.670,72.764 108.400,72.351 108.400 C 71.938 108.400,71.600 108.220,71.600 108.000 C 71.600 107.780,71.240 107.600,70.800 107.600 C 70.360 107.600,70.000 107.420,70.000 107.200 C 70.000 106.980,69.640 106.800,69.200 106.800 C 68.760 106.800,68.400 106.620,68.400 106.400 C 68.400 106.180,68.040 106.000,67.600 106.000 C 67.160 106.000,66.800 105.820,66.800 105.600 C 66.800 105.380,66.260 105.200,65.600 105.200 C 64.940 105.200,64.400 105.020,64.400 104.800 C 64.400 104.580,64.051 104.400,63.624 104.400 C 63.197 104.400,62.736 104.220,62.600 104.000 C 62.464 103.780,61.733 103.600,60.976 103.600 C 60.219 103.600,59.600 103.420,59.600 103.200 C 59.600 102.980,58.880 102.800,58.000 102.800 C 57.120 102.800,56.400 102.620,56.400 102.400 C 56.400 102.160,54.808 102.000,52.424 102.000 C 50.204 102.000,48.338 101.823,48.200 101.600 C 48.064 101.380,47.153 101.200,46.176 101.200 C 45.199 101.200,44.400 101.380,44.400 101.600 M343.400 158.694 C 342.520 158.782,341.629 159.021,341.420 159.227 C 341.211 159.432,340.457 159.600,339.744 159.600 C 339.031 159.600,338.336 159.780,338.200 160.000 C 338.064 160.220,337.423 160.400,336.776 160.400 C 336.129 160.400,335.600 160.580,335.600 160.800 C 335.600 161.020,335.161 161.200,334.624 161.200 C 334.087 161.200,333.536 161.380,333.400 161.600 C 333.264 161.820,332.803 162.000,332.376 162.000 C 331.949 162.000,331.600 162.180,331.600 162.400 C 331.600 162.620,331.328 162.800,330.995 162.800 C 330.662 162.800,330.077 162.959,329.695 163.153 C 329.313 163.348,328.460 163.753,327.800 164.053 C 327.140 164.354,326.251 164.915,325.825 165.300 C 325.398 165.685,324.813 166.000,324.525 166.000 C 324.236 166.000,324.000 166.180,324.000 166.400 C 324.000 166.620,323.680 166.800,323.288 166.800 C 322.897 166.800,322.317 167.160,322.000 167.600 C 321.683 168.040,321.175 168.400,320.872 168.400 C 320.569 168.400,319.817 168.940,319.200 169.600 C 318.583 170.260,317.889 170.800,317.656 170.800 C 317.025 170.800,308.605 179.064,307.958 180.317 C 307.651 180.913,306.905 181.877,306.300 182.460 C 305.695 183.044,305.200 183.769,305.200 184.072 C 305.200 184.375,304.840 184.883,304.400 185.200 C 303.960 185.517,303.600 186.057,303.600 186.400 C 303.600 186.743,303.240 187.283,302.800 187.600 C 302.360 187.917,302.000 188.497,302.000 188.888 C 302.000 189.280,301.820 189.600,301.600 189.600 C 301.380 189.600,301.200 189.945,301.200 190.367 C 301.200 190.788,301.065 191.193,300.900 191.267 C 300.405 191.487,298.000 196.454,298.000 197.256 C 298.000 197.665,297.820 198.000,297.600 198.000 C 297.380 198.000,297.200 198.540,297.200 199.200 C 297.200 199.860,297.020 200.400,296.800 200.400 C 296.580 200.400,296.400 200.839,296.400 201.376 C 296.400 201.913,296.240 202.452,296.044 202.573 C 295.691 202.791,295.366 204.240,294.941 207.500 C 294.819 208.435,294.576 209.200,294.401 209.200 C 293.289 209.200,293.318 229.433,294.431 230.580 C 294.634 230.789,294.800 231.644,294.800 232.480 C 294.800 233.316,294.980 234.000,295.200 234.000 C 295.420 234.000,295.600 234.542,295.600 235.205 C 295.600 235.868,295.759 236.723,295.953 237.105 C 296.296 237.778,296.541 238.350,297.664 241.100 C 297.956 241.815,298.331 242.400,298.498 242.400 C 298.664 242.400,298.800 242.634,298.800 242.920 C 298.800 243.656,299.741 245.593,300.100 245.597 C 300.265 245.599,300.400 245.960,300.400 246.400 C 300.400 246.840,300.580 247.200,300.800 247.200 C 301.020 247.200,301.200 247.443,301.200 247.741 C 301.200 248.038,301.740 248.846,302.400 249.537 C 303.060 250.228,303.600 250.979,303.600 251.208 C 303.600 251.827,311.458 259.600,312.084 259.600 C 312.381 259.600,312.883 259.960,313.200 260.400 C 313.517 260.840,314.014 261.200,314.305 261.200 C 314.596 261.200,315.220 261.560,315.692 262.000 C 316.164 262.440,316.787 262.800,317.075 262.800 C 317.364 262.800,317.600 262.980,317.600 263.200 C 317.600 263.420,317.960 263.600,318.400 263.600 C 318.840 263.600,319.200 263.780,319.200 264.000 C 319.200 264.220,319.560 264.400,320.000 264.400 C 320.440 264.400,320.800 264.580,320.800 264.800 C 320.800 265.020,321.340 265.200,322.000 265.200 C 322.660 265.200,323.200 265.380,323.200 265.600 C 323.200 265.820,323.560 266.000,324.000 266.000 C 324.440 266.000,324.800 266.180,324.800 266.400 C 324.800 266.620,325.340 266.800,326.000 266.800 C 326.660 266.800,327.200 266.980,327.200 267.200 C 327.200 267.420,328.010 267.600,329.000 267.600 C 329.990 267.600,330.800 267.780,330.800 268.000 C 330.800 268.228,331.992 268.400,333.576 268.400 C 335.103 268.400,336.464 268.580,336.600 268.800 C 336.740 269.027,338.737 269.200,341.224 269.200 C 343.875 269.200,345.600 269.042,345.600 268.800 C 345.600 268.571,346.800 268.400,348.400 268.400 C 350.000 268.400,351.200 268.229,351.200 268.000 C 351.200 267.780,351.999 267.600,352.976 267.600 C 353.953 267.600,354.864 267.420,355.000 267.200 C 355.136 266.980,355.676 266.800,356.200 266.800 C 356.724 266.800,357.264 266.620,357.400 266.400 C 357.536 266.180,358.087 266.000,358.624 266.000 C 359.161 266.000,359.600 265.820,359.600 265.600 C 359.600 265.380,360.140 265.200,360.800 265.200 C 361.460 265.200,362.000 265.020,362.000 264.800 C 362.000 264.580,362.360 264.400,362.800 264.400 C 363.240 264.400,363.600 264.220,363.600 264.000 C 363.600 263.780,363.960 263.600,364.400 263.600 C 364.840 263.600,365.200 263.420,365.200 263.200 C 365.200 262.980,365.560 262.800,366.000 262.800 C 366.440 262.800,366.800 262.620,366.800 262.400 C 366.800 262.180,367.160 262.000,367.600 262.000 C 368.040 262.000,368.400 261.820,368.400 261.600 C 368.400 261.380,368.720 261.200,369.112 261.200 C 369.503 261.200,370.083 260.840,370.400 260.400 C 370.717 259.960,371.297 259.600,371.688 259.600 C 372.080 259.600,372.400 259.420,372.400 259.200 C 372.400 258.980,372.625 258.797,372.900 258.794 C 373.175 258.790,374.009 258.250,374.754 257.594 C 375.499 256.937,376.265 256.400,376.457 256.400 C 376.934 256.400,387.200 246.060,387.200 245.579 C 387.200 245.366,387.740 244.628,388.400 243.937 C 389.060 243.246,389.600 242.521,389.600 242.324 C 389.600 242.127,389.967 241.573,390.415 241.091 C 390.864 240.610,391.334 239.807,391.459 239.308 C 391.584 238.809,391.847 238.400,392.043 238.400 C 392.240 238.400,392.400 238.130,392.400 237.800 C 392.400 237.470,392.580 237.200,392.800 237.200 C 393.020 237.200,393.200 236.840,393.200 236.400 C 393.200 235.960,393.380 235.600,393.600 235.600 C 393.820 235.600,394.000 235.240,394.000 234.800 C 394.000 234.360,394.180 234.000,394.400 234.000 C 394.620 234.000,394.800 233.640,394.800 233.200 C 394.800 232.760,394.980 232.400,395.200 232.400 C 395.420 232.400,395.600 231.961,395.600 231.424 C 395.600 230.887,395.780 230.336,396.000 230.200 C 396.220 230.064,396.400 229.603,396.400 229.176 C 396.400 228.749,396.580 228.400,396.800 228.400 C 397.020 228.400,397.200 227.860,397.200 227.200 C 397.200 226.540,397.380 226.000,397.600 226.000 C 397.820 226.000,398.000 225.561,398.000 225.024 C 398.000 224.487,398.180 223.936,398.400 223.800 C 398.620 223.664,398.800 222.969,398.800 222.256 C 398.800 221.543,399.025 220.735,399.300 220.460 C 399.680 220.080,399.800 216.817,399.800 206.913 C 399.800 196.832,399.686 193.829,399.300 193.700 C 399.025 193.608,398.800 193.019,398.800 192.390 C 398.800 191.762,398.620 191.136,398.400 191.000 C 398.180 190.864,398.000 190.313,398.000 189.776 C 398.000 189.239,397.820 188.800,397.600 188.800 C 397.380 188.800,397.200 188.260,397.200 187.600 C 397.200 186.940,397.020 186.400,396.800 186.400 C 396.580 186.400,396.400 186.040,396.400 185.600 C 396.400 185.160,396.220 184.800,396.000 184.800 C 395.780 184.800,395.600 184.566,395.600 184.280 C 395.600 183.544,394.659 181.607,394.300 181.603 C 394.135 181.601,394.000 181.240,394.000 180.800 C 394.000 180.360,393.820 180.000,393.600 180.000 C 393.380 180.000,393.200 179.680,393.200 179.288 C 393.200 178.897,392.840 178.317,392.400 178.000 C 391.960 177.683,391.600 177.238,391.600 177.012 C 391.600 176.785,390.925 175.846,390.100 174.926 C 388.352 172.975,386.657 170.838,386.467 170.345 C 386.393 170.155,386.110 170.000,385.837 170.000 C 385.565 170.000,384.378 169.100,383.200 168.000 C 382.022 166.900,380.820 166.000,380.529 166.000 C 380.238 166.000,380.000 165.842,380.000 165.649 C 380.000 165.455,379.460 165.073,378.800 164.800 C 378.140 164.527,377.600 164.145,377.600 163.951 C 377.600 163.758,377.255 163.600,376.833 163.600 C 376.412 163.600,376.007 163.465,375.933 163.300 C 375.740 162.866,372.427 161.200,371.757 161.200 C 371.445 161.200,370.877 161.041,370.495 160.847 C 368.429 159.796,367.374 159.492,363.400 158.805 C 361.434 158.464,346.531 158.382,343.400 158.694 M183.800 166.400 C 183.654 166.636,181.263 166.800,177.976 166.800 C 174.525 166.800,172.400 166.952,172.400 167.200 C 172.400 167.420,171.500 167.600,170.400 167.600 C 169.300 167.600,168.400 167.780,168.400 168.000 C 168.400 168.220,167.500 168.400,166.400 168.400 C 165.300 168.400,164.400 168.580,164.400 168.800 C 164.400 169.020,163.500 169.200,162.400 169.200 C 161.300 169.200,160.400 169.380,160.400 169.600 C 160.400 169.820,159.871 170.000,159.224 170.000 C 158.577 170.000,157.936 170.180,157.800 170.400 C 157.664 170.620,157.023 170.800,156.376 170.800 C 155.729 170.800,155.200 170.980,155.200 171.200 C 155.200 171.420,154.660 171.600,154.000 171.600 C 153.340 171.600,152.800 171.780,152.800 172.000 C 152.800 172.220,152.260 172.400,151.600 172.400 C 150.940 172.400,150.400 172.580,150.400 172.800 C 150.400 173.020,149.961 173.200,149.424 173.200 C 148.887 173.200,148.336 173.380,148.200 173.600 C 148.064 173.820,147.603 174.000,147.176 174.000 C 146.749 174.000,146.400 174.180,146.400 174.400 C 146.400 174.620,146.051 174.800,145.624 174.800 C 145.197 174.800,144.745 174.966,144.619 175.169 C 144.494 175.372,143.853 175.657,143.195 175.801 C 142.538 175.945,142.000 176.229,142.000 176.432 C 142.000 176.634,141.640 176.800,141.200 176.800 C 140.760 176.800,140.400 176.980,140.400 177.200 C 140.400 177.420,140.040 177.600,139.600 177.600 C 139.160 177.600,138.800 177.780,138.800 178.000 C 138.800 178.220,138.440 178.400,138.000 178.400 C 137.560 178.400,137.200 178.580,137.200 178.800 C 137.200 179.020,136.964 179.200,136.675 179.200 C 136.387 179.200,135.764 179.560,135.292 180.000 C 134.820 180.440,134.196 180.800,133.905 180.800 C 133.614 180.800,133.117 181.160,132.800 181.600 C 132.483 182.040,131.903 182.400,131.512 182.400 C 131.120 182.400,130.800 182.580,130.800 182.800 C 130.800 183.020,130.530 183.200,130.200 183.200 C 129.870 183.200,129.600 183.380,129.600 183.600 C 129.600 183.820,129.330 184.000,129.000 184.000 C 128.670 184.000,128.400 184.180,128.400 184.400 C 128.400 184.620,128.208 184.800,127.974 184.800 C 127.740 184.800,126.671 185.700,125.600 186.800 C 124.529 187.900,123.446 188.800,123.195 188.800 C 122.943 188.800,122.076 189.475,121.269 190.300 C 120.461 191.125,119.305 192.055,118.700 192.368 C 118.095 192.680,117.600 193.091,117.600 193.282 C 117.600 193.472,115.816 195.399,113.636 197.564 C 111.456 199.729,109.359 202.106,108.977 202.845 C 108.594 203.585,107.768 204.669,107.141 205.255 C 106.513 205.842,106.000 206.569,106.000 206.872 C 106.000 207.175,105.640 207.683,105.200 208.000 C 104.760 208.317,104.400 208.807,104.400 209.088 C 104.400 209.370,104.250 209.600,104.068 209.600 C 103.885 209.600,103.480 210.095,103.168 210.700 C 102.855 211.305,102.285 212.149,101.900 212.575 C 101.515 213.002,101.200 213.504,101.200 213.692 C 101.200 213.880,100.840 214.420,100.400 214.892 C 99.960 215.364,99.600 215.987,99.600 216.275 C 99.600 216.564,99.420 216.800,99.200 216.800 C 98.980 216.800,98.800 217.036,98.800 217.325 C 98.800 217.613,98.440 218.236,98.000 218.708 C 97.560 219.180,97.200 219.804,97.200 220.095 C 97.200 220.386,96.840 220.883,96.400 221.200 C 95.960 221.517,95.600 222.014,95.600 222.305 C 95.600 222.596,95.240 223.220,94.800 223.692 C 94.360 224.164,94.000 224.787,94.000 225.075 C 94.000 225.364,93.858 225.600,93.684 225.600 C 93.511 225.600,92.851 226.590,92.218 227.800 C 91.585 229.010,90.917 230.000,90.733 230.000 C 90.550 230.000,90.400 230.320,90.400 230.712 C 90.400 231.103,90.040 231.683,89.600 232.000 C 89.160 232.317,88.800 232.857,88.800 233.200 C 88.800 233.543,88.440 234.083,88.000 234.400 C 87.560 234.717,87.200 235.214,87.200 235.505 C 87.200 235.796,86.840 236.420,86.400 236.892 C 85.960 237.364,85.600 237.987,85.600 238.275 C 85.600 238.564,85.420 238.800,85.200 238.800 C 84.980 238.800,84.800 239.094,84.800 239.453 C 84.800 239.812,84.484 240.397,84.097 240.753 C 83.711 241.109,83.140 241.895,82.830 242.500 C 82.519 243.105,82.115 243.600,81.932 243.600 C 81.750 243.600,81.600 243.870,81.600 244.200 C 81.600 244.530,81.420 244.800,81.200 244.800 C 80.980 244.800,80.800 245.036,80.800 245.325 C 80.800 245.613,80.440 246.236,80.000 246.708 C 79.560 247.180,79.200 247.804,79.200 248.095 C 79.200 248.386,78.840 248.883,78.400 249.200 C 77.960 249.517,77.600 250.014,77.600 250.305 C 77.600 250.596,77.417 251.051,77.194 251.317 C 76.252 252.439,74.800 254.873,74.800 255.329 C 74.800 255.601,74.440 256.083,74.000 256.400 C 73.560 256.717,73.200 257.297,73.200 257.688 C 73.200 258.080,73.020 258.400,72.800 258.400 C 72.580 258.400,72.400 258.630,72.400 258.912 C 72.400 259.193,72.040 259.683,71.600 260.000 C 71.160 260.317,70.800 260.857,70.800 261.200 C 70.800 261.543,70.440 262.083,70.000 262.400 C 69.560 262.717,69.200 263.214,69.200 263.505 C 69.200 263.796,68.840 264.420,68.400 264.892 C 67.960 265.364,67.600 265.987,67.600 266.275 C 67.600 266.564,67.420 266.800,67.200 266.800 C 66.980 266.800,66.800 267.036,66.800 267.325 C 66.800 267.613,66.440 268.236,66.000 268.708 C 65.560 269.180,65.200 269.804,65.200 270.095 C 65.200 270.386,64.840 270.883,64.400 271.200 C 63.960 271.517,63.600 272.057,63.600 272.400 C 63.600 272.743,63.240 273.283,62.800 273.600 C 62.360 273.917,62.000 274.414,62.000 274.705 C 62.000 274.996,61.649 275.610,61.220 276.071 C 60.791 276.531,60.156 277.506,59.809 278.237 C 59.462 278.968,59.003 279.674,58.789 279.807 C 58.575 279.939,58.400 280.397,58.400 280.824 C 58.400 281.251,58.220 281.600,58.000 281.600 C 57.780 281.600,57.600 281.960,57.600 282.400 C 57.600 282.840,57.420 283.200,57.200 283.200 C 56.980 283.200,56.800 283.560,56.800 284.000 C 56.800 284.440,56.620 284.800,56.400 284.800 C 56.180 284.800,56.000 285.160,56.000 285.600 C 56.000 286.040,55.820 286.400,55.600 286.400 C 55.380 286.400,55.200 286.760,55.200 287.200 C 55.200 287.640,55.020 288.000,54.800 288.000 C 54.580 288.000,54.400 288.360,54.400 288.800 C 54.400 289.240,54.220 289.600,54.000 289.600 C 53.780 289.600,53.600 290.140,53.600 290.800 C 53.600 291.460,53.420 292.000,53.200 292.000 C 52.980 292.000,52.800 292.439,52.800 292.976 C 52.800 293.513,52.620 294.064,52.400 294.200 C 52.180 294.336,52.000 294.977,52.000 295.624 C 52.000 296.271,51.820 296.800,51.600 296.800 C 51.380 296.800,51.200 297.610,51.200 298.600 C 51.200 299.590,51.035 300.400,50.834 300.400 C 50.335 300.400,49.988 304.440,49.758 312.900 C 49.628 317.688,49.701 320.000,49.983 320.000 C 50.230 320.000,50.400 321.061,50.400 322.600 C 50.400 324.067,50.574 325.200,50.800 325.200 C 51.020 325.200,51.200 325.999,51.200 326.976 C 51.200 327.953,51.380 328.864,51.600 329.000 C 51.820 329.136,52.000 329.777,52.000 330.424 C 52.000 331.071,52.180 331.600,52.400 331.600 C 52.620 331.600,52.800 332.140,52.800 332.800 C 52.800 333.460,52.980 334.000,53.200 334.000 C 53.420 334.000,53.600 334.540,53.600 335.200 C 53.600 335.860,53.780 336.400,54.000 336.400 C 54.220 336.400,54.400 336.760,54.400 337.200 C 54.400 337.640,54.580 338.000,54.800 338.000 C 55.020 338.000,55.200 338.349,55.200 338.776 C 55.200 339.203,55.380 339.664,55.600 339.800 C 55.820 339.936,56.000 340.357,56.000 340.735 C 56.000 341.114,56.360 341.683,56.800 342.000 C 57.240 342.317,57.600 342.897,57.600 343.288 C 57.600 343.680,57.780 344.000,58.000 344.000 C 58.220 344.000,58.400 344.317,58.400 344.705 C 58.400 345.093,59.030 346.346,59.800 347.490 C 60.570 348.633,61.200 349.683,61.200 349.824 C 61.200 349.964,61.740 350.583,62.400 351.200 C 63.060 351.817,63.600 352.505,63.600 352.730 C 63.600 352.955,64.855 354.368,66.390 355.869 C 70.775 360.162,71.946 361.200,72.402 361.200 C 72.636 361.200,73.427 361.785,74.160 362.500 C 76.151 364.440,77.152 365.200,77.716 365.200 C 77.995 365.200,78.483 365.560,78.800 366.000 C 79.117 366.440,79.697 366.800,80.088 366.800 C 80.480 366.800,80.800 366.980,80.800 367.200 C 80.800 367.420,81.160 367.600,81.600 367.600 C 82.040 367.600,82.401 367.735,82.403 367.900 C 82.407 368.259,84.344 369.200,85.080 369.200 C 85.366 369.200,85.600 369.380,85.600 369.600 C 85.600 369.820,85.960 370.000,86.400 370.000 C 86.840 370.000,87.200 370.180,87.200 370.400 C 87.200 370.620,87.549 370.800,87.976 370.800 C 88.403 370.800,88.864 370.980,89.000 371.200 C 89.136 371.420,89.687 371.600,90.224 371.600 C 90.761 371.600,91.200 371.780,91.200 372.000 C 91.200 372.220,91.729 372.400,92.376 372.400 C 93.023 372.400,93.664 372.580,93.800 372.800 C 93.936 373.020,94.566 373.200,95.200 373.200 C 95.834 373.200,96.452 373.361,96.574 373.558 C 97.041 374.314,105.298 375.157,112.200 375.154 C 119.090 375.150,126.951 374.326,127.426 373.558 C 127.548 373.361,128.029 373.200,128.495 373.200 C 129.396 373.200,131.739 372.535,132.895 371.951 C 133.277 371.758,133.862 371.600,134.195 371.600 C 134.528 371.600,134.800 371.420,134.800 371.200 C 134.800 370.980,135.239 370.800,135.776 370.800 C 136.313 370.800,136.864 370.620,137.000 370.400 C 137.136 370.180,137.597 370.000,138.024 370.000 C 138.451 370.000,138.800 369.820,138.800 369.600 C 138.800 369.380,139.239 369.200,139.776 369.200 C 140.313 369.200,140.864 369.020,141.000 368.800 C 141.136 368.580,141.687 368.400,142.224 368.400 C 142.761 368.400,143.200 368.220,143.200 368.000 C 143.200 367.780,143.560 367.600,144.000 367.600 C 144.440 367.600,144.800 367.420,144.800 367.200 C 144.800 366.980,145.340 366.800,146.000 366.800 C 146.660 366.800,147.200 366.620,147.200 366.400 C 147.200 366.180,147.740 366.000,148.400 366.000 C 149.060 366.000,149.600 365.820,149.600 365.600 C 149.600 365.380,150.140 365.200,150.800 365.200 C 151.460 365.200,152.000 365.020,152.000 364.800 C 152.000 364.580,152.720 364.400,153.600 364.400 C 154.480 364.400,155.200 364.220,155.200 364.000 C 155.200 363.780,155.819 363.600,156.576 363.600 C 157.333 363.600,158.064 363.420,158.200 363.200 C 158.336 362.980,159.067 362.800,159.824 362.800 C 160.581 362.800,161.200 362.620,161.200 362.400 C 161.200 362.178,162.267 362.000,163.600 362.000 C 164.933 362.000,166.000 361.822,166.000 361.600 C 166.000 361.375,167.125 361.200,168.576 361.200 C 169.993 361.200,171.264 361.020,171.400 360.800 C 171.543 360.568,173.737 360.400,176.624 360.400 C 179.675 360.400,181.600 360.245,181.600 360.000 C 181.600 359.760,183.200 359.600,185.600 359.600 C 188.000 359.600,189.600 359.760,189.600 360.000 C 189.600 360.245,191.533 360.400,194.600 360.400 C 197.667 360.400,199.600 360.555,199.600 360.800 C 199.600 361.025,200.725 361.200,202.176 361.200 C 203.593 361.200,204.864 361.380,205.000 361.600 C 205.136 361.820,206.216 362.000,207.400 362.000 C 208.584 362.000,209.664 362.180,209.800 362.400 C 209.936 362.620,210.667 362.800,211.424 362.800 C 212.181 362.800,212.800 362.980,212.800 363.200 C 212.800 363.420,213.419 363.600,214.176 363.600 C 214.933 363.600,215.664 363.780,215.800 364.000 C 215.936 364.220,216.577 364.400,217.224 364.400 C 217.871 364.400,218.400 364.580,218.400 364.800 C 218.400 365.020,219.120 365.200,220.000 365.200 C 220.880 365.200,221.600 365.380,221.600 365.600 C 221.600 365.820,222.140 366.000,222.800 366.000 C 223.460 366.000,224.000 366.180,224.000 366.400 C 224.000 366.620,224.272 366.800,224.605 366.800 C 224.938 366.800,225.568 366.980,226.005 367.200 C 226.442 367.420,227.158 367.780,227.595 368.000 C 228.032 368.220,228.752 368.400,229.195 368.400 C 229.638 368.400,230.000 368.580,230.000 368.800 C 230.000 369.020,230.349 369.200,230.776 369.200 C 231.203 369.200,231.664 369.380,231.800 369.600 C 231.936 369.820,232.487 370.000,233.024 370.000 C 233.561 370.000,234.000 370.180,234.000 370.400 C 234.000 370.620,234.540 370.800,235.200 370.800 C 235.860 370.800,236.400 370.980,236.400 371.200 C 236.400 371.420,236.749 371.600,237.176 371.600 C 237.603 371.600,238.064 371.780,238.200 372.000 C 238.336 372.220,238.876 372.400,239.400 372.400 C 239.924 372.400,240.452 372.560,240.573 372.756 C 240.694 372.951,241.379 373.212,242.096 373.334 C 242.813 373.456,244.300 373.756,245.400 374.001 C 250.654 375.171,261.513 375.557,267.400 374.782 C 273.198 374.019,273.809 373.909,274.180 373.559 C 274.389 373.362,274.916 373.200,275.352 373.200 C 276.429 373.200,279.826 372.104,281.695 371.153 C 282.077 370.959,282.752 370.800,283.195 370.800 C 283.638 370.800,284.000 370.620,284.000 370.400 C 284.000 370.180,284.360 370.000,284.800 370.000 C 285.240 370.000,285.600 369.820,285.600 369.600 C 285.600 369.380,285.960 369.200,286.400 369.200 C 286.840 369.200,287.200 369.020,287.200 368.800 C 287.200 368.580,287.560 368.400,288.000 368.400 C 288.440 368.400,288.800 368.264,288.800 368.098 C 288.800 367.931,289.385 367.540,290.100 367.228 C 290.815 366.916,291.691 366.332,292.047 365.930 C 292.403 365.529,292.948 365.200,293.259 365.200 C 293.569 365.200,294.083 364.840,294.400 364.400 C 294.717 363.960,295.225 363.600,295.528 363.600 C 295.831 363.600,296.583 363.060,297.200 362.400 C 297.817 361.740,298.514 361.200,298.751 361.200 C 299.242 361.200,306.090 354.443,307.600 352.468 C 308.150 351.749,308.825 350.913,309.100 350.609 C 309.375 350.305,309.600 349.814,309.600 349.517 C 309.600 349.220,309.960 348.717,310.400 348.400 C 310.840 348.083,311.200 347.543,311.200 347.200 C 311.200 346.857,311.560 346.317,312.000 346.000 C 312.440 345.683,312.800 345.103,312.800 344.712 C 312.800 344.320,312.980 344.000,313.200 344.000 C 313.420 344.000,313.600 343.640,313.600 343.200 C 313.600 342.760,313.780 342.400,314.000 342.400 C 314.220 342.400,314.400 342.130,314.400 341.800 C 314.400 341.470,314.580 341.200,314.800 341.200 C 315.020 341.200,315.200 340.840,315.200 340.400 C 315.200 339.960,315.380 339.600,315.600 339.600 C 315.820 339.600,316.000 339.240,316.000 338.800 C 316.000 338.360,316.180 338.000,316.400 338.000 C 316.620 338.000,316.800 337.460,316.800 336.800 C 316.800 336.140,316.980 335.600,317.200 335.600 C 317.420 335.600,317.600 335.251,317.600 334.824 C 317.600 334.397,317.780 333.936,318.000 333.800 C 318.220 333.664,318.400 333.034,318.400 332.400 C 318.400 331.766,318.580 331.136,318.800 331.000 C 319.020 330.864,319.200 330.223,319.200 329.576 C 319.200 328.929,319.380 328.400,319.600 328.400 C 319.820 328.400,320.000 327.500,320.000 326.400 C 320.000 325.300,320.165 324.400,320.367 324.400 C 320.817 324.400,321.174 320.498,321.440 312.700 C 321.575 308.718,321.504 306.800,321.220 306.800 C 320.967 306.800,320.800 305.689,320.800 304.000 C 320.800 302.400,320.629 301.200,320.400 301.200 C 320.180 301.200,320.000 300.401,320.000 299.424 C 320.000 298.447,319.820 297.536,319.600 297.400 C 319.380 297.264,319.200 296.623,319.200 295.976 C 319.200 295.329,319.020 294.800,318.800 294.800 C 318.580 294.800,318.400 294.170,318.400 293.400 C 318.400 292.630,318.220 292.000,318.000 292.000 C 317.780 292.000,317.600 291.640,317.600 291.200 C 317.600 290.760,317.420 290.400,317.200 290.400 C 316.980 290.400,316.800 289.860,316.800 289.200 C 316.800 288.540,316.620 288.000,316.400 288.000 C 316.180 288.000,316.000 287.640,316.000 287.200 C 316.000 286.760,315.820 286.400,315.600 286.400 C 315.380 286.400,315.200 286.040,315.200 285.600 C 315.200 285.160,315.020 284.800,314.800 284.800 C 314.580 284.800,314.400 284.440,314.400 284.000 C 314.400 283.560,314.220 283.200,314.000 283.200 C 313.780 283.200,313.600 282.922,313.600 282.583 C 313.600 282.244,313.240 281.580,312.800 281.108 C 312.360 280.636,312.000 280.013,312.000 279.725 C 312.000 279.436,311.820 279.200,311.600 279.200 C 311.380 279.200,311.200 278.880,311.200 278.488 C 311.200 278.097,310.840 277.517,310.400 277.200 C 309.960 276.883,309.600 276.470,309.600 276.283 C 309.600 276.096,309.330 275.673,309.000 275.343 C 308.670 275.013,308.400 274.396,308.400 273.971 C 308.400 273.547,308.242 273.200,308.049 273.200 C 307.855 273.200,307.473 272.660,307.200 272.000 C 306.927 271.340,306.545 270.800,306.351 270.800 C 306.158 270.800,306.000 270.564,306.000 270.275 C 306.000 269.987,305.640 269.364,305.200 268.892 C 304.760 268.420,304.400 267.796,304.400 267.505 C 304.400 267.214,304.040 266.717,303.600 266.400 C 303.160 266.083,302.800 265.586,302.800 265.295 C 302.800 265.004,302.440 264.380,302.000 263.908 C 301.560 263.436,301.200 262.813,301.200 262.525 C 301.200 262.236,301.020 262.000,300.800 262.000 C 300.580 262.000,300.400 261.730,300.400 261.400 C 300.400 261.070,300.220 260.800,300.000 260.800 C 299.780 260.800,299.600 260.530,299.600 260.200 C 299.600 259.870,299.420 259.600,299.200 259.600 C 298.980 259.600,298.800 259.370,298.800 259.088 C 298.800 258.807,298.440 258.317,298.000 258.000 C 297.560 257.683,297.200 257.143,297.200 256.800 C 297.200 256.457,296.840 255.917,296.400 255.600 C 295.960 255.283,295.600 254.703,295.600 254.312 C 295.600 253.920,295.420 253.600,295.200 253.600 C 294.980 253.600,294.800 253.280,294.800 252.888 C 294.800 252.497,294.440 251.917,294.000 251.600 C 293.560 251.283,293.200 250.743,293.200 250.400 C 293.200 250.057,292.840 249.517,292.400 249.200 C 291.960 248.883,291.600 248.325,291.600 247.961 C 291.600 247.596,291.330 247.074,291.000 246.800 C 290.670 246.526,290.400 246.088,290.400 245.826 C 290.400 245.565,290.085 245.002,289.700 244.575 C 289.315 244.149,288.746 243.308,288.436 242.707 C 288.126 242.105,287.541 241.258,287.136 240.823 C 286.731 240.389,286.400 239.796,286.400 239.505 C 286.400 239.214,286.040 238.717,285.600 238.400 C 285.160 238.083,284.800 237.543,284.800 237.200 C 284.800 236.857,284.440 236.317,284.000 236.000 C 283.560 235.683,283.200 235.186,283.200 234.895 C 283.200 234.604,282.840 233.980,282.400 233.508 C 281.960 233.036,281.600 232.413,281.600 232.125 C 281.600 231.836,281.420 231.600,281.200 231.600 C 280.980 231.600,280.800 231.364,280.800 231.075 C 280.800 230.787,280.485 230.202,280.100 229.775 C 279.715 229.349,279.145 228.505,278.832 227.900 C 278.520 227.295,278.115 226.800,277.932 226.800 C 277.750 226.800,277.600 226.570,277.600 226.288 C 277.600 226.007,277.240 225.517,276.800 225.200 C 276.360 224.883,276.000 224.303,276.000 223.912 C 276.000 223.520,275.820 223.200,275.600 223.200 C 275.380 223.200,275.200 222.868,275.200 222.461 C 275.200 222.055,274.845 221.313,274.412 220.814 C 273.978 220.314,273.516 219.566,273.385 219.152 C 273.254 218.739,272.978 218.400,272.773 218.400 C 272.568 218.400,272.400 218.164,272.400 217.875 C 272.400 217.587,272.040 216.964,271.600 216.492 C 271.160 216.020,270.800 215.396,270.800 215.105 C 270.800 214.814,270.440 214.317,270.000 214.000 C 269.560 213.683,269.200 213.103,269.200 212.712 C 269.200 212.320,269.062 212.000,268.894 212.000 C 268.726 212.000,268.144 211.280,267.600 210.400 C 267.056 209.520,266.474 208.800,266.306 208.800 C 266.138 208.800,266.000 208.570,266.000 208.288 C 266.000 208.007,265.640 207.517,265.200 207.200 C 264.760 206.883,264.400 206.375,264.400 206.072 C 264.400 205.769,263.860 205.017,263.200 204.400 C 262.540 203.783,262.000 203.117,262.000 202.919 C 262.000 201.988,249.770 189.600,248.852 189.600 C 248.648 189.600,247.562 188.700,246.439 187.600 C 245.315 186.500,244.167 185.600,243.886 185.600 C 243.606 185.600,243.117 185.240,242.800 184.800 C 242.483 184.360,241.993 184.000,241.712 184.000 C 241.430 184.000,241.200 183.850,241.200 183.668 C 241.200 183.485,240.705 183.080,240.100 182.768 C 239.495 182.455,238.651 181.885,238.225 181.500 C 237.798 181.115,237.213 180.800,236.925 180.800 C 236.636 180.800,236.400 180.620,236.400 180.400 C 236.400 180.180,236.080 180.000,235.688 180.000 C 235.297 180.000,234.717 179.640,234.400 179.200 C 234.083 178.760,233.503 178.400,233.112 178.400 C 232.720 178.400,232.400 178.220,232.400 178.000 C 232.400 177.780,232.040 177.600,231.600 177.600 C 231.160 177.600,230.800 177.420,230.800 177.200 C 230.800 176.980,230.564 176.800,230.275 176.800 C 229.986 176.800,228.817 176.350,227.677 175.800 C 226.537 175.250,225.333 174.800,225.002 174.800 C 224.671 174.800,224.400 174.620,224.400 174.400 C 224.400 174.180,223.950 174.000,223.400 174.000 C 222.850 174.000,222.400 173.820,222.400 173.600 C 222.400 173.380,222.051 173.200,221.624 173.200 C 221.197 173.200,220.736 173.020,220.600 172.800 C 220.464 172.580,219.924 172.400,219.400 172.400 C 218.876 172.400,218.336 172.220,218.200 172.000 C 218.064 171.780,217.434 171.600,216.800 171.600 C 216.166 171.600,215.536 171.420,215.400 171.200 C 215.264 170.980,214.623 170.800,213.976 170.800 C 213.329 170.800,212.800 170.620,212.800 170.400 C 212.800 170.180,212.260 170.000,211.600 170.000 C 210.940 170.000,210.400 169.820,210.400 169.600 C 210.400 169.380,209.601 169.200,208.624 169.200 C 207.647 169.200,206.736 169.020,206.600 168.800 C 206.464 168.580,205.553 168.400,204.576 168.400 C 203.599 168.400,202.800 168.220,202.800 168.000 C 202.800 167.780,201.900 167.600,200.800 167.600 C 199.700 167.600,198.800 167.420,198.800 167.200 C 198.800 166.952,196.608 166.800,193.024 166.800 C 189.604 166.800,187.146 166.637,187.000 166.400 C 186.864 166.180,186.144 166.000,185.400 166.000 C 184.656 166.000,183.936 166.180,183.800 166.400 " stroke="none" fill="#040404" fill-rule="evenodd"></path><path id="path1" d="" stroke="none" fill="#080404" fill-rule="evenodd"></path><path id="path2" d="" stroke="none" fill="#080404" fill-rule="evenodd"></path><path id="path3" d="" stroke="none" fill="#080404" fill-rule="evenodd"></path><path id="path4" d="" stroke="none" fill="#080404" fill-rule="evenodd"></path></g></svg>