<svg id="svg" version="1.1" xmlns="http://www.w3.org/2000/svg" xmlns:xlink="http://www.w3.org/1999/xlink" width="400" height="400" viewBox="0, 0, 400,400"><g id="svgg"><path id="path0" d="M139.200 27.189 C 138.870 27.408,137.216 27.591,135.524 27.594 C 133.832 27.597,132.336 27.780,132.200 28.000 C 132.064 28.220,131.254 28.400,130.400 28.400 C 129.546 28.400,128.736 28.580,128.600 28.800 C 128.464 29.020,127.924 29.200,127.400 29.200 C 126.876 29.200,126.336 29.380,126.200 29.600 C 126.064 29.820,125.513 30.000,124.976 30.000 C 124.439 30.000,124.000 30.180,124.000 30.400 C 124.000 30.620,123.640 30.800,123.200 30.800 C 122.760 30.800,122.400 30.980,122.400 31.200 C 122.400 31.420,122.040 31.600,121.600 31.600 C 121.160 31.600,120.800 31.780,120.800 32.000 C 120.800 32.220,120.440 32.400,120.000 32.400 C 119.560 32.400,119.200 32.580,119.200 32.800 C 119.200 33.020,118.880 33.200,118.488 33.200 C 118.097 33.200,117.517 33.560,117.200 34.000 C 116.883 34.440,116.343 34.800,116.000 34.800 C 115.657 34.800,115.117 35.160,114.800 35.600 C 114.483 36.040,114.009 36.400,113.747 36.400 C 113.484 36.400,112.219 37.470,110.935 38.779 C 108.076 41.692,108.027 41.740,105.579 44.141 C 104.491 45.208,103.600 46.261,103.600 46.480 C 103.600 46.699,103.060 47.383,102.400 48.000 C 101.740 48.617,101.200 49.369,101.200 49.672 C 101.200 49.975,100.840 50.483,100.400 50.800 C 99.960 51.117,99.600 51.697,99.600 52.088 C 99.600 52.480,99.442 52.800,99.249 52.800 C 99.055 52.800,98.673 53.340,98.400 54.000 C 98.127 54.660,97.745 55.200,97.551 55.200 C 97.358 55.200,97.200 55.560,97.200 56.000 C 97.200 56.440,97.020 56.800,96.800 56.800 C 96.580 56.800,96.400 57.145,96.400 57.567 C 96.400 57.988,96.265 58.393,96.100 58.467 C 95.810 58.596,94.313 61.555,93.503 63.600 C 93.285 64.150,92.950 64.909,92.758 65.286 C 92.296 66.198,91.568 69.035,91.317 70.900 C 91.207 71.725,90.955 72.400,90.758 72.400 C 90.561 72.400,90.400 72.940,90.400 73.600 C 90.400 74.260,90.220 74.800,90.000 74.800 C 89.780 74.800,89.600 75.419,89.600 76.176 C 89.600 76.933,89.420 77.664,89.200 77.800 C 88.980 77.936,88.800 78.836,88.800 79.800 C 88.800 80.764,88.620 81.664,88.400 81.800 C 88.180 81.936,88.000 83.207,88.000 84.624 C 88.000 86.075,87.825 87.200,87.600 87.200 C 87.353 87.200,87.200 89.259,87.200 92.576 C 87.200 95.729,87.035 98.055,86.800 98.200 C 86.580 98.336,86.400 99.337,86.400 100.424 C 86.400 101.511,86.580 102.400,86.800 102.400 C 87.048 102.400,87.200 104.533,87.200 108.000 C 87.200 111.467,87.352 113.600,87.600 113.600 C 87.822 113.600,88.000 114.667,88.000 116.000 C 88.000 117.333,88.178 118.400,88.400 118.400 C 88.620 118.400,88.800 119.300,88.800 120.400 C 88.800 121.500,88.980 122.400,89.200 122.400 C 89.420 122.400,89.600 123.030,89.600 123.800 C 89.600 124.570,89.780 125.200,90.000 125.200 C 90.220 125.200,90.400 125.920,90.400 126.800 C 90.400 127.680,90.560 128.400,90.756 128.400 C 90.952 128.400,91.203 128.985,91.314 129.700 C 91.598 131.535,92.561 134.755,93.382 136.617 C 94.724 139.661,97.331 144.601,97.664 144.733 C 97.849 144.807,98.000 145.212,98.000 145.633 C 98.000 146.055,98.180 146.400,98.400 146.400 C 98.620 146.400,98.800 146.720,98.800 147.112 C 98.800 147.503,99.160 148.083,99.600 148.400 C 100.040 148.717,100.400 149.257,100.400 149.600 C 100.400 149.943,100.760 150.483,101.200 150.800 C 101.640 151.117,102.000 151.580,102.000 151.829 C 102.000 152.078,102.540 152.846,103.200 153.537 C 103.860 154.228,104.400 154.887,104.400 155.002 C 104.400 155.314,111.099 162.000,111.411 162.000 C 111.558 162.000,112.156 162.495,112.740 163.100 C 113.323 163.705,114.295 164.455,114.900 164.768 C 115.505 165.080,116.000 165.485,116.000 165.668 C 116.000 165.850,116.236 166.000,116.525 166.000 C 116.813 166.000,117.436 166.360,117.908 166.800 C 118.380 167.240,119.044 167.600,119.383 167.600 C 119.722 167.600,120.000 167.780,120.000 168.000 C 120.000 168.220,120.360 168.400,120.800 168.400 C 121.240 168.400,121.600 168.580,121.600 168.800 C 121.600 169.020,121.960 169.200,122.400 169.200 C 122.840 169.200,123.200 169.347,123.200 169.528 C 123.200 169.708,124.100 170.100,125.200 170.400 C 126.300 170.700,127.200 171.092,127.200 171.272 C 127.200 171.453,127.819 171.600,128.576 171.600 C 129.333 171.600,130.064 171.780,130.200 172.000 C 130.336 172.220,131.146 172.400,132.000 172.400 C 132.854 172.400,133.664 172.580,133.800 172.800 C 133.948 173.039,136.537 173.200,140.224 173.200 C 144.075 173.200,146.400 173.049,146.400 172.800 C 146.400 172.580,147.199 172.400,148.176 172.400 C 149.153 172.400,150.064 172.220,150.200 172.000 C 150.336 171.780,150.966 171.600,151.600 171.600 C 152.234 171.600,152.864 171.420,153.000 171.200 C 153.136 170.980,153.687 170.800,154.224 170.800 C 154.761 170.800,155.200 170.620,155.200 170.400 C 155.200 170.180,155.650 170.000,156.200 170.000 C 156.750 170.000,157.200 169.820,157.200 169.600 C 157.200 169.380,157.560 169.200,158.000 169.200 C 158.440 169.200,158.800 169.020,158.800 168.800 C 158.800 168.580,159.160 168.400,159.600 168.400 C 160.040 168.400,160.400 168.220,160.400 168.000 C 160.400 167.780,160.720 167.600,161.112 167.600 C 161.503 167.600,162.083 167.240,162.400 166.800 C 162.717 166.360,163.257 166.000,163.600 166.000 C 163.943 166.000,164.483 165.640,164.800 165.200 C 165.117 164.760,165.604 164.400,165.882 164.400 C 166.970 164.400,177.600 153.790,177.600 152.704 C 177.600 152.533,178.140 151.828,178.800 151.137 C 179.460 150.446,180.000 149.638,180.000 149.341 C 180.000 149.043,180.180 148.800,180.400 148.800 C 180.620 148.800,180.800 148.480,180.800 148.088 C 180.800 147.697,181.160 147.117,181.600 146.800 C 182.040 146.483,182.400 145.903,182.400 145.512 C 182.400 145.120,182.580 144.800,182.800 144.800 C 183.020 144.800,183.200 144.440,183.200 144.000 C 183.200 143.560,183.380 143.200,183.600 143.200 C 183.820 143.200,184.000 142.855,184.000 142.433 C 184.000 142.012,184.135 141.607,184.300 141.533 C 184.465 141.460,185.025 140.500,185.544 139.400 C 186.063 138.300,186.648 137.087,186.844 136.705 C 187.040 136.323,187.200 135.738,187.200 135.405 C 187.200 135.072,187.380 134.800,187.600 134.800 C 187.820 134.800,188.000 134.260,188.000 133.600 C 188.000 132.940,188.180 132.400,188.400 132.400 C 188.620 132.400,188.800 131.860,188.800 131.200 C 188.800 130.540,188.980 130.000,189.200 130.000 C 189.420 130.000,189.600 129.460,189.600 128.800 C 189.600 128.140,189.780 127.600,190.000 127.600 C 190.220 127.600,190.400 127.006,190.400 126.280 C 190.400 125.554,190.572 124.788,190.783 124.577 C 190.993 124.367,191.289 122.711,191.440 120.897 C 191.591 119.084,191.869 117.600,192.058 117.600 C 192.246 117.600,192.400 116.340,192.400 114.800 C 192.400 113.200,192.571 112.000,192.800 112.000 C 193.057 112.000,193.200 107.867,193.200 100.400 C 193.200 92.933,193.057 88.800,192.800 88.800 C 192.571 88.800,192.400 87.600,192.400 86.000 C 192.400 84.460,192.247 83.200,192.059 83.200 C 191.872 83.200,191.607 81.805,191.471 80.100 C 191.336 78.395,191.050 76.460,190.837 75.800 C 190.624 75.140,190.241 73.790,189.986 72.800 C 189.731 71.810,189.360 70.687,189.161 70.305 C 188.962 69.923,188.800 69.259,188.800 68.829 C 188.800 68.399,188.656 67.958,188.479 67.849 C 188.303 67.740,187.910 66.739,187.607 65.625 C 187.304 64.511,186.908 63.600,186.728 63.600 C 186.547 63.600,186.400 63.240,186.400 62.800 C 186.400 62.360,186.220 62.000,186.000 62.000 C 185.780 62.000,185.600 61.565,185.600 61.033 C 185.600 60.502,185.464 60.007,185.298 59.933 C 185.132 59.860,184.385 58.585,183.638 57.100 C 182.891 55.615,182.127 54.400,181.940 54.400 C 181.753 54.400,181.600 54.080,181.600 53.688 C 181.600 53.297,181.240 52.717,180.800 52.400 C 180.360 52.083,180.000 51.543,180.000 51.200 C 180.000 50.857,179.640 50.317,179.200 50.000 C 178.760 49.683,178.400 49.175,178.400 48.872 C 178.400 48.569,177.860 47.817,177.200 47.200 C 176.540 46.583,176.000 45.845,176.000 45.560 C 176.000 44.922,168.098 37.200,167.446 37.200 C 167.188 37.200,166.717 36.840,166.400 36.400 C 166.083 35.960,165.627 35.600,165.387 35.600 C 165.147 35.600,164.602 35.285,164.175 34.900 C 163.749 34.515,162.905 33.945,162.300 33.632 C 161.695 33.320,161.200 32.915,161.200 32.732 C 161.200 32.550,160.840 32.400,160.400 32.400 C 159.960 32.400,159.600 32.220,159.600 32.000 C 159.600 31.780,159.240 31.600,158.800 31.600 C 158.360 31.600,158.000 31.420,158.000 31.200 C 158.000 30.980,157.728 30.800,157.395 30.800 C 157.062 30.800,156.432 30.620,155.995 30.400 C 155.558 30.180,154.842 29.820,154.405 29.600 C 153.968 29.380,153.259 29.200,152.829 29.200 C 152.399 29.200,151.936 29.020,151.800 28.800 C 151.664 28.580,150.753 28.400,149.776 28.400 C 148.799 28.400,148.000 28.233,148.000 28.029 C 148.000 27.826,146.515 27.585,144.700 27.494 C 142.885 27.403,141.040 27.208,140.600 27.059 C 140.160 26.911,139.530 26.969,139.200 27.189 M258.800 27.189 C 258.470 27.408,256.805 27.591,255.100 27.594 C 253.304 27.597,252.000 27.768,252.000 28.000 C 252.000 28.220,251.201 28.400,250.224 28.400 C 249.247 28.400,248.336 28.580,248.200 28.800 C 248.064 29.020,247.601 29.200,247.171 29.200 C 246.741 29.200,246.032 29.380,245.595 29.600 C 245.158 29.820,244.442 30.180,244.005 30.400 C 243.568 30.620,242.938 30.800,242.605 30.800 C 242.272 30.800,242.000 30.980,242.000 31.200 C 242.000 31.420,241.640 31.600,241.200 31.600 C 240.760 31.600,240.400 31.780,240.400 32.000 C 240.400 32.220,240.040 32.400,239.600 32.400 C 239.160 32.400,238.800 32.550,238.800 32.732 C 238.800 32.915,238.305 33.320,237.700 33.632 C 237.095 33.945,236.251 34.515,235.825 34.900 C 235.398 35.285,234.853 35.600,234.613 35.600 C 234.373 35.600,233.917 35.960,233.600 36.400 C 233.283 36.840,232.808 37.200,232.546 37.200 C 231.907 37.200,224.000 44.960,224.000 45.587 C 224.000 45.858,223.460 46.583,222.800 47.200 C 222.140 47.817,221.600 48.569,221.600 48.872 C 221.600 49.175,221.240 49.683,220.800 50.000 C 220.360 50.317,220.000 50.857,220.000 51.200 C 220.000 51.543,219.640 52.083,219.200 52.400 C 218.760 52.717,218.400 53.297,218.400 53.688 C 218.400 54.080,218.247 54.400,218.060 54.400 C 217.873 54.400,217.109 55.615,216.362 57.100 C 215.615 58.585,214.868 59.860,214.702 59.933 C 214.536 60.007,214.400 60.502,214.400 61.033 C 214.400 61.565,214.220 62.000,214.000 62.000 C 213.780 62.000,213.600 62.360,213.600 62.800 C 213.600 63.240,213.453 63.600,213.272 63.600 C 213.092 63.600,212.696 64.511,212.393 65.625 C 212.090 66.739,211.697 67.740,211.521 67.849 C 211.344 67.958,211.200 68.399,211.200 68.829 C 211.200 69.259,211.038 69.923,210.839 70.305 C 210.640 70.687,210.269 71.810,210.014 72.800 C 209.759 73.790,209.376 75.140,209.163 75.800 C 208.950 76.460,208.664 78.395,208.529 80.100 C 208.393 81.805,208.128 83.200,207.941 83.200 C 207.753 83.200,207.600 84.460,207.600 86.000 C 207.600 87.600,207.429 88.800,207.200 88.800 C 206.943 88.800,206.800 92.933,206.800 100.400 C 206.800 107.867,206.943 112.000,207.200 112.000 C 207.429 112.000,207.600 113.200,207.600 114.800 C 207.600 116.340,207.754 117.600,207.941 117.600 C 208.129 117.600,208.397 118.959,208.538 120.620 C 208.678 122.281,208.975 123.979,209.197 124.394 C 209.418 124.808,209.600 125.699,209.600 126.374 C 209.600 127.048,209.780 127.600,210.000 127.600 C 210.220 127.600,210.400 128.140,210.400 128.800 C 210.400 129.460,210.580 130.000,210.800 130.000 C 211.020 130.000,211.200 130.540,211.200 131.200 C 211.200 131.860,211.380 132.400,211.600 132.400 C 211.820 132.400,212.000 132.940,212.000 133.600 C 212.000 134.260,212.180 134.800,212.400 134.800 C 212.620 134.800,212.800 135.072,212.800 135.405 C 212.800 135.738,212.960 136.323,213.156 136.705 C 213.352 137.087,213.937 138.300,214.456 139.400 C 214.975 140.500,215.535 141.460,215.700 141.533 C 215.865 141.607,216.000 142.012,216.000 142.433 C 216.000 142.855,216.180 143.200,216.400 143.200 C 216.620 143.200,216.800 143.560,216.800 144.000 C 216.800 144.440,216.980 144.800,217.200 144.800 C 217.420 144.800,217.600 145.120,217.600 145.512 C 217.600 145.903,217.960 146.483,218.400 146.800 C 218.840 147.117,219.200 147.697,219.200 148.088 C 219.200 148.480,219.380 148.800,219.600 148.800 C 219.820 148.800,220.000 149.043,220.000 149.341 C 220.000 149.638,220.540 150.446,221.200 151.137 C 221.860 151.828,222.400 152.533,222.400 152.704 C 222.400 153.768,233.052 164.400,234.118 164.400 C 234.396 164.400,234.883 164.760,235.200 165.200 C 235.517 165.640,236.057 166.000,236.400 166.000 C 236.743 166.000,237.283 166.360,237.600 166.800 C 237.917 167.240,238.497 167.600,238.888 167.600 C 239.280 167.600,239.600 167.780,239.600 168.000 C 239.600 168.220,239.960 168.400,240.400 168.400 C 240.840 168.400,241.200 168.580,241.200 168.800 C 241.200 169.020,241.560 169.200,242.000 169.200 C 242.440 169.200,242.800 169.380,242.800 169.600 C 242.800 169.820,243.250 170.000,243.800 170.000 C 244.350 170.000,244.800 170.180,244.800 170.400 C 244.800 170.620,245.239 170.800,245.776 170.800 C 246.313 170.800,246.864 170.980,247.000 171.200 C 247.136 171.420,247.766 171.600,248.400 171.600 C 249.034 171.600,249.664 171.780,249.800 172.000 C 249.936 172.220,250.847 172.400,251.824 172.400 C 252.801 172.400,253.600 172.580,253.600 172.800 C 253.600 173.049,255.925 173.200,259.776 173.200 C 263.463 173.200,266.052 173.039,266.200 172.800 C 266.336 172.580,267.146 172.400,268.000 172.400 C 268.854 172.400,269.664 172.220,269.800 172.000 C 269.936 171.780,270.667 171.600,271.424 171.600 C 272.181 171.600,272.800 171.420,272.800 171.200 C 272.800 170.980,273.239 170.800,273.776 170.800 C 274.313 170.800,274.864 170.620,275.000 170.400 C 275.136 170.180,275.597 170.000,276.024 170.000 C 276.451 170.000,276.800 169.820,276.800 169.600 C 276.800 169.380,277.160 169.200,277.600 169.200 C 278.040 169.200,278.400 169.020,278.400 168.800 C 278.400 168.580,278.760 168.400,279.200 168.400 C 279.640 168.400,280.000 168.220,280.000 168.000 C 280.000 167.780,280.360 167.600,280.800 167.600 C 281.240 167.600,281.600 167.450,281.600 167.268 C 281.600 167.085,282.095 166.680,282.700 166.368 C 283.305 166.055,284.149 165.485,284.575 165.100 C 285.002 164.715,285.515 164.400,285.715 164.400 C 285.915 164.400,286.583 163.860,287.200 163.200 C 287.817 162.540,288.445 162.000,288.597 162.000 C 288.924 162.000,295.600 155.344,295.600 155.017 C 295.600 154.894,296.140 154.228,296.800 153.537 C 297.460 152.846,298.000 152.078,298.000 151.829 C 298.000 151.580,298.360 151.117,298.800 150.800 C 299.240 150.483,299.600 149.943,299.600 149.600 C 299.600 149.257,299.960 148.717,300.400 148.400 C 300.840 148.083,301.200 147.503,301.200 147.112 C 301.200 146.720,301.380 146.400,301.600 146.400 C 301.820 146.400,302.000 146.055,302.000 145.633 C 302.000 145.212,302.151 144.807,302.336 144.733 C 302.985 144.476,307.600 134.915,307.600 133.828 C 307.600 133.509,307.767 133.144,307.972 133.017 C 308.177 132.891,308.467 131.800,308.618 130.594 C 308.769 129.387,309.051 128.400,309.246 128.400 C 309.441 128.400,309.600 127.680,309.600 126.800 C 309.600 125.920,309.780 125.200,310.000 125.200 C 310.220 125.200,310.400 124.570,310.400 123.800 C 310.400 123.030,310.580 122.400,310.800 122.400 C 311.020 122.400,311.200 121.500,311.200 120.400 C 311.200 119.300,311.380 118.400,311.600 118.400 C 311.822 118.400,312.000 117.333,312.000 116.000 C 312.000 114.667,312.178 113.600,312.400 113.600 C 312.648 113.600,312.800 111.467,312.800 108.000 C 312.800 104.533,312.952 102.400,313.200 102.400 C 313.420 102.400,313.600 101.511,313.600 100.424 C 313.600 99.337,313.420 98.336,313.200 98.200 C 312.965 98.055,312.800 95.729,312.800 92.576 C 312.800 89.259,312.647 87.200,312.400 87.200 C 312.175 87.200,312.000 86.075,312.000 84.624 C 312.000 83.207,311.820 81.936,311.600 81.800 C 311.380 81.664,311.200 80.764,311.200 79.800 C 311.200 78.836,311.020 77.936,310.800 77.800 C 310.580 77.664,310.400 76.933,310.400 76.176 C 310.400 75.419,310.220 74.800,310.000 74.800 C 309.780 74.800,309.600 74.260,309.600 73.600 C 309.600 72.940,309.445 72.400,309.255 72.400 C 309.065 72.400,308.793 71.403,308.650 70.184 C 308.507 68.966,308.014 67.121,307.555 66.084 C 307.096 65.048,306.581 63.840,306.411 63.400 C 305.722 61.618,304.181 58.592,303.900 58.467 C 303.735 58.393,303.600 57.988,303.600 57.567 C 303.600 57.145,303.420 56.800,303.200 56.800 C 302.980 56.800,302.800 56.440,302.800 56.000 C 302.800 55.560,302.642 55.200,302.449 55.200 C 302.255 55.200,301.873 54.660,301.600 54.000 C 301.327 53.340,300.945 52.800,300.751 52.800 C 300.558 52.800,300.400 52.480,300.400 52.088 C 300.400 51.697,300.040 51.117,299.600 50.800 C 299.160 50.483,298.800 49.975,298.800 49.672 C 298.800 49.369,298.260 48.617,297.600 48.000 C 296.940 47.383,296.400 46.699,296.400 46.480 C 296.400 46.261,295.509 45.208,294.421 44.141 C 291.973 41.740,291.924 41.692,289.065 38.779 C 287.781 37.470,286.516 36.400,286.253 36.400 C 285.991 36.400,285.517 36.040,285.200 35.600 C 284.883 35.160,284.343 34.800,284.000 34.800 C 283.657 34.800,283.117 34.440,282.800 34.000 C 282.483 33.560,281.903 33.200,281.512 33.200 C 281.120 33.200,280.800 33.020,280.800 32.800 C 280.800 32.580,280.440 32.400,280.000 32.400 C 279.560 32.400,279.200 32.220,279.200 32.000 C 279.200 31.780,278.840 31.600,278.400 31.600 C 277.960 31.600,277.600 31.420,277.600 31.200 C 277.600 30.980,277.240 30.800,276.800 30.800 C 276.360 30.800,276.000 30.620,276.000 30.400 C 276.000 30.180,275.561 30.000,275.024 30.000 C 274.487 30.000,273.936 29.820,273.800 29.600 C 273.664 29.380,273.124 29.200,272.600 29.200 C 272.076 29.200,271.536 29.020,271.400 28.800 C 271.264 28.580,270.479 28.400,269.656 28.400 C 268.833 28.400,267.989 28.233,267.780 28.029 C 267.571 27.825,265.960 27.584,264.200 27.492 C 262.440 27.401,260.640 27.206,260.200 27.058 C 259.760 26.910,259.130 26.969,258.800 27.189 M142.880 52.800 C 143.936 52.800,144.800 52.980,144.800 53.200 C 144.800 53.420,145.053 53.600,145.362 53.600 C 145.925 53.600,149.223 55.188,149.600 55.640 C 149.710 55.772,150.233 56.109,150.762 56.388 C 151.292 56.667,152.102 57.235,152.562 57.651 C 155.872 60.640,156.800 61.597,156.800 62.022 C 156.800 62.288,157.124 62.797,157.521 63.153 C 157.917 63.509,158.944 65.195,159.802 66.900 C 160.660 68.605,161.506 70.000,161.681 70.000 C 161.857 70.000,162.000 70.360,162.000 70.800 C 162.000 71.240,162.180 71.600,162.400 71.600 C 162.620 71.600,162.800 71.949,162.800 72.376 C 162.800 72.803,162.980 73.264,163.200 73.400 C 163.420 73.536,163.600 73.997,163.600 74.424 C 163.600 74.851,163.780 75.200,164.000 75.200 C 164.220 75.200,164.400 75.740,164.400 76.400 C 164.400 77.060,164.580 77.600,164.800 77.600 C 165.020 77.600,165.200 78.140,165.200 78.800 C 165.200 79.460,165.380 80.000,165.600 80.000 C 165.820 80.000,166.000 80.619,166.000 81.376 C 166.000 82.133,166.180 82.864,166.400 83.000 C 166.620 83.136,166.800 84.036,166.800 85.000 C 166.800 85.964,166.980 86.864,167.200 87.000 C 167.420 87.136,167.600 87.946,167.600 88.800 C 167.600 89.654,167.780 90.464,168.000 90.600 C 168.248 90.753,168.400 94.396,168.400 100.200 C 168.400 106.004,168.248 109.647,168.000 109.800 C 167.780 109.936,167.600 110.847,167.600 111.824 C 167.600 112.801,167.420 113.600,167.200 113.600 C 166.980 113.600,166.800 114.500,166.800 115.600 C 166.800 116.700,166.620 117.600,166.400 117.600 C 166.180 117.600,166.000 118.320,166.000 119.200 C 166.000 120.080,165.820 120.800,165.600 120.800 C 165.380 120.800,165.200 121.149,165.200 121.576 C 165.200 122.003,165.020 122.464,164.800 122.600 C 164.580 122.736,164.400 123.287,164.400 123.824 C 164.400 124.361,164.220 124.800,164.000 124.800 C 163.780 124.800,163.600 125.135,163.600 125.544 C 163.600 126.346,161.195 131.313,160.700 131.533 C 160.535 131.607,160.400 132.012,160.400 132.433 C 160.400 132.855,160.220 133.200,160.000 133.200 C 159.780 133.200,159.600 133.560,159.600 134.000 C 159.600 134.440,159.423 134.800,159.208 134.800 C 158.992 134.800,158.693 135.286,158.544 135.880 C 158.308 136.820,154.000 141.438,151.156 143.800 C 149.825 144.906,145.244 147.200,144.367 147.200 C 143.971 147.200,143.536 147.380,143.400 147.600 C 143.264 147.820,141.824 148.000,140.200 148.000 C 138.576 148.000,137.136 147.820,137.000 147.600 C 136.864 147.380,136.133 147.200,135.376 147.200 C 134.619 147.200,134.000 147.020,134.000 146.800 C 134.000 146.580,133.640 146.400,133.200 146.400 C 132.760 146.400,132.400 146.249,132.400 146.064 C 132.400 145.880,131.943 145.520,131.385 145.266 C 130.827 145.012,130.152 144.621,129.885 144.397 C 129.618 144.174,128.770 143.455,128.000 142.800 C 127.230 142.144,126.326 141.517,125.992 141.406 C 125.658 141.295,125.041 140.567,124.621 139.787 C 124.201 139.008,123.350 137.838,122.729 137.189 C 122.108 136.539,121.600 135.736,121.600 135.404 C 121.600 135.072,121.420 134.800,121.200 134.800 C 120.980 134.800,120.800 134.440,120.800 134.000 C 120.800 133.560,120.620 133.200,120.400 133.200 C 120.180 133.200,120.000 132.964,120.000 132.675 C 120.000 132.387,119.640 131.764,119.200 131.292 C 118.760 130.820,118.400 130.156,118.400 129.817 C 118.400 129.478,118.220 129.200,118.000 129.200 C 117.780 129.200,117.600 128.840,117.600 128.400 C 117.600 127.960,117.420 127.600,117.200 127.600 C 116.980 127.600,116.800 127.150,116.800 126.600 C 116.800 126.050,116.620 125.600,116.400 125.600 C 116.180 125.600,116.000 125.060,116.000 124.400 C 116.000 123.740,115.820 123.200,115.600 123.200 C 115.380 123.200,115.200 122.660,115.200 122.000 C 115.200 121.340,115.020 120.800,114.800 120.800 C 114.580 120.800,114.400 120.260,114.400 119.600 C 114.400 118.940,114.220 118.400,114.000 118.400 C 113.780 118.400,113.600 117.500,113.600 116.400 C 113.600 115.300,113.420 114.400,113.200 114.400 C 112.980 114.400,112.800 113.601,112.800 112.624 C 112.800 111.647,112.620 110.736,112.400 110.600 C 112.171 110.458,112.000 108.396,112.000 105.776 C 112.000 102.992,111.843 101.200,111.600 101.200 C 111.380 101.200,111.200 100.840,111.200 100.400 C 111.200 99.960,111.380 99.600,111.600 99.600 C 111.844 99.600,112.000 97.741,112.000 94.824 C 112.000 92.071,112.169 89.942,112.400 89.800 C 112.620 89.664,112.800 88.764,112.800 87.800 C 112.800 86.836,112.980 85.936,113.200 85.800 C 113.420 85.664,113.600 84.753,113.600 83.776 C 113.600 82.799,113.780 82.000,114.000 82.000 C 114.220 82.000,114.400 81.370,114.400 80.600 C 114.400 79.830,114.580 79.200,114.800 79.200 C 115.020 79.200,115.200 78.761,115.200 78.224 C 115.200 77.687,115.380 77.136,115.600 77.000 C 115.820 76.864,116.000 76.403,116.000 75.976 C 116.000 75.549,116.180 75.200,116.400 75.200 C 116.620 75.200,116.800 74.857,116.800 74.438 C 116.800 73.622,118.401 70.288,118.900 70.067 C 119.065 69.993,119.200 69.588,119.200 69.167 C 119.200 68.745,119.380 68.400,119.600 68.400 C 119.820 68.400,120.000 68.040,120.000 67.600 C 120.000 67.160,120.158 66.800,120.351 66.800 C 120.545 66.800,120.927 66.260,121.200 65.600 C 121.473 64.940,121.826 64.400,121.984 64.400 C 122.142 64.400,122.479 63.945,122.732 63.390 C 123.183 62.399,124.099 61.276,125.907 59.494 C 128.416 57.021,129.613 56.000,130.003 56.000 C 130.240 56.000,130.820 55.640,131.292 55.200 C 131.764 54.760,132.387 54.400,132.675 54.400 C 132.964 54.400,133.200 54.220,133.200 54.000 C 133.200 53.780,133.740 53.600,134.400 53.600 C 135.060 53.600,135.600 53.420,135.600 53.200 C 135.600 52.980,136.489 52.800,137.576 52.800 C 138.663 52.800,139.674 52.604,139.822 52.365 C 140.015 52.052,140.212 52.052,140.525 52.365 C 140.764 52.604,141.824 52.800,142.880 52.800 M262.480 52.800 C 263.536 52.800,264.400 52.980,264.400 53.200 C 264.400 53.420,264.940 53.600,265.600 53.600 C 266.260 53.600,266.800 53.780,266.800 54.000 C 266.800 54.220,267.036 54.400,267.325 54.400 C 267.613 54.400,268.236 54.760,268.708 55.200 C 269.180 55.640,269.760 56.000,269.997 56.000 C 270.233 56.000,271.048 56.585,271.806 57.300 C 272.565 58.015,273.594 58.978,274.093 59.440 C 275.510 60.751,276.800 62.363,277.285 63.427 C 277.529 63.962,277.858 64.400,278.016 64.400 C 278.174 64.400,278.527 64.940,278.800 65.600 C 279.073 66.260,279.455 66.800,279.649 66.800 C 279.842 66.800,280.000 67.160,280.000 67.600 C 280.000 68.040,280.180 68.400,280.400 68.400 C 280.620 68.400,280.800 68.745,280.800 69.167 C 280.800 69.588,280.935 69.993,281.100 70.067 C 281.599 70.288,283.200 73.622,283.200 74.438 C 283.200 74.857,283.380 75.200,283.600 75.200 C 283.820 75.200,284.000 75.549,284.000 75.976 C 284.000 76.403,284.180 76.864,284.400 77.000 C 284.620 77.136,284.800 77.687,284.800 78.224 C 284.800 78.761,284.980 79.200,285.200 79.200 C 285.420 79.200,285.600 79.830,285.600 80.600 C 285.600 81.370,285.780 82.000,286.000 82.000 C 286.220 82.000,286.400 82.799,286.400 83.776 C 286.400 84.753,286.580 85.664,286.800 85.800 C 287.020 85.936,287.200 86.836,287.200 87.800 C 287.200 88.764,287.380 89.664,287.600 89.800 C 287.831 89.942,288.000 92.071,288.000 94.824 C 288.000 97.741,288.156 99.600,288.400 99.600 C 288.620 99.600,288.800 99.960,288.800 100.400 C 288.800 100.840,288.620 101.200,288.400 101.200 C 288.157 101.200,288.000 102.992,288.000 105.776 C 288.000 108.396,287.829 110.458,287.600 110.600 C 287.380 110.736,287.200 111.647,287.200 112.624 C 287.200 113.601,287.020 114.400,286.800 114.400 C 286.580 114.400,286.400 115.300,286.400 116.400 C 286.400 117.500,286.220 118.400,286.000 118.400 C 285.780 118.400,285.600 118.940,285.600 119.600 C 285.600 120.260,285.420 120.800,285.200 120.800 C 284.980 120.800,284.800 121.340,284.800 122.000 C 284.800 122.660,284.620 123.200,284.400 123.200 C 284.180 123.200,284.000 123.740,284.000 124.400 C 284.000 125.060,283.820 125.600,283.600 125.600 C 283.380 125.600,283.200 126.050,283.200 126.600 C 283.200 127.150,283.020 127.600,282.800 127.600 C 282.580 127.600,282.400 127.960,282.400 128.400 C 282.400 128.840,282.220 129.200,282.000 129.200 C 281.780 129.200,281.600 129.478,281.600 129.817 C 281.600 130.156,281.240 130.820,280.800 131.292 C 280.360 131.764,280.000 132.387,280.000 132.675 C 280.000 132.964,279.820 133.200,279.600 133.200 C 279.380 133.200,279.200 133.560,279.200 134.000 C 279.200 134.440,279.020 134.800,278.800 134.800 C 278.580 134.800,278.400 135.072,278.400 135.404 C 278.400 135.736,277.892 136.539,277.271 137.189 C 276.650 137.838,275.799 139.008,275.379 139.787 C 274.959 140.567,274.342 141.295,274.008 141.406 C 273.674 141.517,272.770 142.144,272.000 142.800 C 271.230 143.455,270.382 144.174,270.115 144.397 C 269.848 144.621,269.173 145.012,268.615 145.266 C 268.057 145.520,267.600 145.880,267.600 146.064 C 267.600 146.249,267.240 146.400,266.800 146.400 C 266.360 146.400,266.000 146.580,266.000 146.800 C 266.000 147.020,265.381 147.200,264.624 147.200 C 263.867 147.200,263.136 147.380,263.000 147.600 C 262.864 147.820,261.424 148.000,259.800 148.000 C 258.176 148.000,256.736 147.820,256.600 147.600 C 256.464 147.380,256.029 147.200,255.633 147.200 C 254.756 147.200,250.175 144.906,248.844 143.800 C 246.000 141.438,241.692 136.820,241.456 135.880 C 241.307 135.286,241.008 134.800,240.792 134.800 C 240.577 134.800,240.400 134.440,240.400 134.000 C 240.400 133.560,240.220 133.200,240.000 133.200 C 239.780 133.200,239.600 132.855,239.600 132.433 C 239.600 132.012,239.465 131.607,239.300 131.533 C 238.805 131.313,236.400 126.346,236.400 125.544 C 236.400 125.135,236.220 124.800,236.000 124.800 C 235.780 124.800,235.600 124.361,235.600 123.824 C 235.600 123.287,235.420 122.736,235.200 122.600 C 234.980 122.464,234.800 122.003,234.800 121.576 C 234.800 121.149,234.620 120.800,234.400 120.800 C 234.180 120.800,234.000 120.080,234.000 119.200 C 234.000 118.320,233.820 117.600,233.600 117.600 C 233.380 117.600,233.200 116.700,233.200 115.600 C 233.200 114.500,233.020 113.600,232.800 113.600 C 232.580 113.600,232.400 112.801,232.400 111.824 C 232.400 110.847,232.220 109.936,232.000 109.800 C 231.752 109.647,231.600 106.004,231.600 100.200 C 231.600 94.396,231.752 90.753,232.000 90.600 C 232.220 90.464,232.400 89.654,232.400 88.800 C 232.400 87.946,232.580 87.136,232.800 87.000 C 233.020 86.864,233.200 85.964,233.200 85.000 C 233.200 84.036,233.380 83.136,233.600 83.000 C 233.820 82.864,234.000 82.133,234.000 81.376 C 234.000 80.619,234.180 80.000,234.400 80.000 C 234.620 80.000,234.800 79.460,234.800 78.800 C 234.800 78.140,234.980 77.600,235.200 77.600 C 235.420 77.600,235.600 77.060,235.600 76.400 C 235.600 75.740,235.780 75.200,236.000 75.200 C 236.220 75.200,236.400 74.851,236.400 74.424 C 236.400 73.997,236.580 73.536,236.800 73.400 C 237.020 73.264,237.200 72.803,237.200 72.376 C 237.200 71.949,237.380 71.600,237.600 71.600 C 237.820 71.600,238.000 71.240,238.000 70.800 C 238.000 70.360,238.143 70.000,238.319 70.000 C 238.494 70.000,239.340 68.605,240.198 66.900 C 241.056 65.195,242.083 63.509,242.479 63.153 C 242.876 62.797,243.200 62.288,243.200 62.022 C 243.200 61.597,244.128 60.640,247.438 57.651 C 247.898 57.235,248.708 56.667,249.238 56.388 C 249.767 56.109,250.290 55.772,250.400 55.640 C 250.777 55.188,254.075 53.600,254.638 53.600 C 254.947 53.600,255.200 53.420,255.200 53.200 C 255.200 52.980,256.089 52.800,257.176 52.800 C 258.263 52.800,259.274 52.604,259.422 52.365 C 259.615 52.052,259.812 52.052,260.125 52.365 C 260.364 52.604,261.424 52.800,262.480 52.800 M30.800 134.400 C 30.800 134.620,30.080 134.800,29.200 134.800 C 28.320 134.800,27.600 134.980,27.600 135.200 C 27.600 135.420,27.150 135.600,26.600 135.600 C 26.050 135.600,25.600 135.780,25.600 136.000 C 25.600 136.220,25.240 136.400,24.800 136.400 C 24.360 136.400,24.000 136.580,24.000 136.800 C 24.000 137.020,23.500 137.200,22.888 137.200 C 22.235 137.200,21.539 137.530,21.200 138.000 C 20.883 138.440,20.303 138.800,19.912 138.800 C 19.520 138.800,19.200 138.980,19.200 139.200 C 19.200 139.420,18.912 139.600,18.560 139.600 C 18.209 139.600,17.417 140.140,16.800 140.800 C 16.183 141.460,15.494 142.000,15.267 142.000 C 14.276 142.000,9.227 147.645,8.050 150.068 C 7.748 150.690,7.343 151.200,7.150 151.200 C 6.958 151.200,6.800 151.478,6.800 151.817 C 6.800 152.156,6.440 152.820,6.000 153.292 C 5.560 153.764,5.200 154.567,5.200 155.075 C 5.200 155.584,5.020 156.000,4.800 156.000 C 4.580 156.000,4.400 156.360,4.400 156.800 C 4.400 157.240,4.220 157.600,4.000 157.600 C 3.780 157.600,3.600 157.960,3.600 158.400 C 3.600 158.840,3.420 159.200,3.200 159.200 C 2.980 159.200,2.800 159.650,2.800 160.200 C 2.800 160.750,2.620 161.200,2.400 161.200 C 2.180 161.200,2.000 161.740,2.000 162.400 C 2.000 163.060,1.820 163.600,1.600 163.600 C 1.380 163.600,1.200 164.305,1.200 165.167 C 1.200 166.064,0.986 166.805,0.700 166.900 C 0.313 167.029,0.200 170.249,0.200 181.200 C 0.200 192.151,0.313 195.371,0.700 195.500 C 0.975 195.592,1.200 196.192,1.200 196.833 C 1.200 197.475,1.380 198.000,1.600 198.000 C 1.820 198.000,2.000 198.720,2.000 199.600 C 2.000 200.480,2.180 201.200,2.400 201.200 C 2.620 201.200,2.800 201.819,2.800 202.576 C 2.800 203.333,2.980 204.064,3.200 204.200 C 3.420 204.336,3.600 204.797,3.600 205.224 C 3.600 205.651,3.780 206.000,4.000 206.000 C 4.220 206.000,4.400 206.450,4.400 207.000 C 4.400 207.550,4.580 208.000,4.800 208.000 C 5.020 208.000,5.200 208.360,5.200 208.800 C 5.200 209.240,5.380 209.600,5.600 209.600 C 5.820 209.600,6.000 209.834,6.000 210.120 C 6.000 210.856,6.941 212.793,7.300 212.797 C 7.465 212.799,7.600 213.160,7.600 213.600 C 7.600 214.040,7.780 214.400,8.000 214.400 C 8.220 214.400,8.400 214.664,8.400 214.986 C 8.400 215.799,9.676 218.400,10.074 218.400 C 10.253 218.400,10.400 218.593,10.400 218.828 C 10.400 219.236,12.270 222.126,13.582 223.745 C 14.930 225.408,23.598 234.000,23.929 234.000 C 24.123 234.000,24.846 234.540,25.537 235.200 C 26.228 235.860,26.974 236.400,27.196 236.400 C 27.418 236.400,27.600 236.580,27.600 236.800 C 27.600 237.020,27.855 237.200,28.167 237.200 C 28.478 237.200,28.793 237.344,28.867 237.519 C 29.142 238.178,36.008 241.216,37.767 241.458 C 38.775 241.596,39.600 241.864,39.600 242.054 C 39.600 242.244,40.320 242.400,41.200 242.400 C 42.080 242.400,42.800 242.580,42.800 242.800 C 42.800 243.033,44.133 243.200,46.000 243.200 C 47.867 243.200,49.200 243.367,49.200 243.600 C 49.200 243.820,49.830 244.000,50.600 244.000 C 51.370 244.000,52.000 243.820,52.000 243.600 C 52.000 243.365,53.400 243.200,55.400 243.200 C 57.400 243.200,58.800 243.035,58.800 242.800 C 58.800 242.580,59.329 242.400,59.976 242.400 C 60.623 242.400,61.264 242.220,61.400 242.000 C 61.536 241.780,62.222 241.599,62.924 241.599 C 64.380 241.597,69.505 239.155,72.152 237.200 C 73.825 235.965,80.800 228.774,80.800 228.285 C 80.800 228.006,81.160 227.517,81.600 227.200 C 82.040 226.883,82.400 226.386,82.400 226.095 C 82.400 225.804,82.736 225.206,83.146 224.766 C 83.557 224.325,84.296 223.118,84.790 222.082 C 85.284 221.047,85.848 219.887,86.044 219.505 C 86.240 219.123,86.400 218.538,86.400 218.205 C 86.400 217.872,86.580 217.600,86.800 217.600 C 87.020 217.600,87.200 217.060,87.200 216.400 C 87.200 215.740,87.380 215.200,87.600 215.200 C 87.820 215.200,88.000 214.671,88.000 214.024 C 88.000 213.377,88.180 212.736,88.400 212.600 C 88.620 212.464,88.800 211.769,88.800 211.056 C 88.800 210.343,88.964 209.589,89.165 209.380 C 90.016 208.494,90.796 190.636,90.018 189.858 C 89.788 189.628,89.600 188.137,89.600 186.544 C 89.600 184.951,89.420 183.536,89.200 183.400 C 88.980 183.264,88.800 182.544,88.800 181.800 C 88.800 181.056,88.620 180.336,88.400 180.200 C 88.180 180.064,88.000 179.333,88.000 178.576 C 88.000 177.819,87.820 177.200,87.600 177.200 C 87.380 177.200,87.200 176.819,87.200 176.353 C 87.200 175.303,85.512 170.249,85.101 170.067 C 84.935 169.993,84.800 169.509,84.800 168.990 C 84.800 168.472,84.620 167.936,84.400 167.800 C 84.180 167.664,84.000 167.203,84.000 166.776 C 84.000 166.349,83.820 166.000,83.600 166.000 C 83.380 166.000,83.200 165.655,83.200 165.233 C 83.200 164.812,83.065 164.407,82.900 164.333 C 82.735 164.260,82.167 163.345,81.637 162.300 C 81.108 161.255,80.523 160.400,80.337 160.400 C 80.152 160.400,80.000 160.130,80.000 159.800 C 80.000 159.470,79.820 159.200,79.600 159.200 C 79.380 159.200,79.200 158.975,79.199 158.700 C 79.199 158.425,78.659 157.570,78.000 156.800 C 77.341 156.030,76.801 155.241,76.801 155.047 C 76.800 154.853,76.467 154.403,76.059 154.047 C 75.652 153.691,75.035 152.850,74.689 152.177 C 74.041 150.919,67.795 144.400,67.237 144.400 C 67.065 144.400,66.401 143.943,65.762 143.384 C 65.123 142.825,64.015 142.084,63.300 141.738 C 62.585 141.392,62.000 140.949,62.000 140.754 C 62.000 140.559,61.640 140.400,61.200 140.400 C 60.760 140.400,60.400 140.220,60.400 140.000 C 60.400 139.780,60.080 139.600,59.688 139.600 C 59.297 139.600,58.717 139.240,58.400 138.800 C 58.083 138.360,57.503 138.000,57.112 138.000 C 56.720 138.000,56.400 137.820,56.400 137.600 C 56.400 137.380,55.950 137.200,55.400 137.200 C 54.850 137.200,54.400 137.020,54.400 136.800 C 54.400 136.580,53.860 136.400,53.200 136.400 C 52.540 136.400,52.000 136.220,52.000 136.000 C 52.000 135.780,51.561 135.600,51.024 135.600 C 50.487 135.600,49.936 135.420,49.800 135.200 C 49.664 134.980,48.843 134.800,47.976 134.800 C 47.109 134.800,46.400 134.620,46.400 134.400 C 46.400 134.147,43.533 134.000,38.600 134.000 C 33.667 134.000,30.800 134.147,30.800 134.400 M353.600 134.400 C 353.600 134.620,352.891 134.800,352.024 134.800 C 351.157 134.800,350.336 134.980,350.200 135.200 C 350.064 135.420,349.513 135.600,348.976 135.600 C 348.439 135.600,348.000 135.780,348.000 136.000 C 348.000 136.220,347.460 136.400,346.800 136.400 C 346.140 136.400,345.600 136.580,345.600 136.800 C 345.600 137.020,345.150 137.200,344.600 137.200 C 344.050 137.200,343.600 137.380,343.600 137.600 C 343.600 137.820,343.280 138.000,342.888 138.000 C 342.497 138.000,341.917 138.360,341.600 138.800 C 341.283 139.240,340.703 139.600,340.312 139.600 C 339.920 139.600,339.600 139.780,339.600 140.000 C 339.600 140.220,339.240 140.400,338.800 140.400 C 338.360 140.400,338.000 140.559,338.000 140.754 C 338.000 140.949,337.415 141.392,336.700 141.738 C 335.985 142.084,334.877 142.825,334.238 143.384 C 333.599 143.943,332.935 144.400,332.763 144.400 C 332.205 144.400,325.959 150.919,325.311 152.177 C 324.965 152.850,324.348 153.691,323.941 154.047 C 323.533 154.403,323.200 154.853,323.199 155.047 C 323.199 155.241,322.659 156.030,322.000 156.800 C 321.341 157.570,320.801 158.425,320.801 158.700 C 320.800 158.975,320.620 159.200,320.400 159.200 C 320.180 159.200,320.000 159.470,320.000 159.800 C 320.000 160.130,319.848 160.400,319.663 160.400 C 319.477 160.400,318.892 161.255,318.363 162.300 C 317.833 163.345,317.265 164.260,317.100 164.333 C 316.935 164.407,316.800 164.812,316.800 165.233 C 316.800 165.655,316.620 166.000,316.400 166.000 C 316.180 166.000,316.000 166.349,316.000 166.776 C 316.000 167.203,315.820 167.664,315.600 167.800 C 315.380 167.936,315.200 168.472,315.200 168.990 C 315.200 169.509,315.065 169.993,314.899 170.067 C 314.488 170.249,312.800 175.303,312.800 176.353 C 312.800 176.819,312.620 177.200,312.400 177.200 C 312.180 177.200,312.000 177.819,312.000 178.576 C 312.000 179.333,311.820 180.064,311.600 180.200 C 311.380 180.336,311.200 181.056,311.200 181.800 C 311.200 182.544,311.020 183.264,310.800 183.400 C 310.580 183.536,310.400 184.951,310.400 186.544 C 310.400 188.137,310.212 189.628,309.982 189.858 C 309.204 190.636,309.984 208.494,310.835 209.380 C 311.036 209.589,311.200 210.343,311.200 211.056 C 311.200 211.769,311.380 212.464,311.600 212.600 C 311.820 212.736,312.000 213.377,312.000 214.024 C 312.000 214.671,312.180 215.200,312.400 215.200 C 312.620 215.200,312.800 215.740,312.800 216.400 C 312.800 217.060,312.980 217.600,313.200 217.600 C 313.420 217.600,313.600 217.872,313.600 218.205 C 313.600 218.538,313.760 219.123,313.956 219.505 C 314.152 219.887,314.716 221.047,315.210 222.082 C 315.704 223.118,316.443 224.325,316.854 224.766 C 317.264 225.206,317.600 225.804,317.600 226.095 C 317.600 226.386,317.960 226.883,318.400 227.200 C 318.840 227.517,319.200 228.005,319.200 228.284 C 319.200 228.881,327.350 237.200,327.935 237.200 C 328.154 237.200,328.393 237.363,328.467 237.562 C 328.734 238.288,335.780 241.600,337.058 241.600 C 337.770 241.600,338.464 241.780,338.600 242.000 C 338.736 242.220,339.377 242.400,340.024 242.400 C 340.671 242.400,341.200 242.580,341.200 242.800 C 341.200 243.035,342.600 243.200,344.600 243.200 C 346.600 243.200,348.000 243.365,348.000 243.600 C 348.000 243.820,348.630 244.000,349.400 244.000 C 350.170 244.000,350.800 243.820,350.800 243.600 C 350.800 243.367,352.125 243.200,353.976 243.200 C 355.723 243.200,357.264 243.020,357.400 242.800 C 357.536 242.580,358.267 242.400,359.024 242.400 C 359.781 242.400,360.400 242.244,360.400 242.054 C 360.400 241.864,361.225 241.596,362.233 241.458 C 363.992 241.216,370.858 238.178,371.133 237.519 C 371.207 237.344,371.522 237.200,371.833 237.200 C 372.145 237.200,372.400 237.020,372.400 236.800 C 372.400 236.580,372.670 236.400,373.000 236.400 C 373.330 236.400,373.601 236.265,373.603 236.100 C 373.604 235.935,374.277 235.350,375.098 234.800 C 376.428 233.909,384.834 225.700,386.418 223.745 C 387.447 222.475,389.600 219.272,389.600 219.011 C 389.600 218.877,389.958 218.383,390.395 217.913 C 390.832 217.444,391.302 216.461,391.440 215.730 C 391.577 214.998,391.849 214.400,392.045 214.400 C 392.240 214.400,392.400 214.040,392.400 213.600 C 392.400 213.160,392.535 212.799,392.700 212.797 C 393.059 212.793,394.000 210.856,394.000 210.120 C 394.000 209.834,394.135 209.599,394.300 209.597 C 394.706 209.593,395.600 207.614,395.600 206.720 C 395.600 206.324,395.780 206.000,396.000 206.000 C 396.220 206.000,396.400 205.651,396.400 205.224 C 396.400 204.797,396.580 204.336,396.800 204.200 C 397.020 204.064,397.200 203.333,397.200 202.576 C 397.200 201.819,397.380 201.200,397.600 201.200 C 397.820 201.200,398.000 200.480,398.000 199.600 C 398.000 198.720,398.180 198.000,398.400 198.000 C 398.620 198.000,398.800 197.475,398.800 196.833 C 398.800 196.192,399.025 195.592,399.300 195.500 C 399.687 195.371,399.800 192.151,399.800 181.200 C 399.800 170.249,399.687 167.029,399.300 166.900 C 399.014 166.805,398.800 166.064,398.800 165.167 C 398.800 164.305,398.620 163.600,398.400 163.600 C 398.180 163.600,398.000 163.060,398.000 162.400 C 398.000 161.740,397.820 161.200,397.600 161.200 C 397.380 161.200,397.200 160.750,397.200 160.200 C 397.200 159.650,397.020 159.200,396.800 159.200 C 396.580 159.200,396.400 158.840,396.400 158.400 C 396.400 157.960,396.220 157.600,396.000 157.600 C 395.780 157.600,395.600 157.240,395.600 156.800 C 395.600 156.360,395.420 156.000,395.200 156.000 C 394.980 156.000,394.800 155.584,394.800 155.075 C 394.800 154.567,394.440 153.764,394.000 153.292 C 393.560 152.820,393.200 152.156,393.200 151.817 C 393.200 151.478,393.042 151.200,392.850 151.200 C 392.657 151.200,392.252 150.690,391.950 150.068 C 390.773 147.645,385.724 142.000,384.733 142.000 C 384.506 142.000,383.817 141.460,383.200 140.800 C 382.583 140.140,381.791 139.600,381.440 139.600 C 381.088 139.600,380.800 139.420,380.800 139.200 C 380.800 138.980,380.480 138.800,380.088 138.800 C 379.697 138.800,379.117 138.440,378.800 138.000 C 378.461 137.530,377.765 137.200,377.112 137.200 C 376.500 137.200,375.999 137.065,375.997 136.900 C 375.993 136.494,374.014 135.600,373.120 135.600 C 372.724 135.600,372.400 135.420,372.400 135.200 C 372.400 134.980,371.680 134.800,370.800 134.800 C 369.920 134.800,369.200 134.620,369.200 134.400 C 369.200 134.147,366.333 134.000,361.400 134.000 C 356.467 134.000,353.600 134.147,353.600 134.400 M42.980 159.245 C 43.189 159.440,43.684 159.600,44.080 159.600 C 44.476 159.600,44.800 159.780,44.800 160.000 C 44.800 160.220,45.160 160.400,45.600 160.400 C 46.040 160.400,46.400 160.580,46.400 160.800 C 46.400 161.020,46.672 161.200,47.004 161.200 C 47.336 161.200,48.172 161.740,48.863 162.400 C 49.554 163.060,50.276 163.600,50.468 163.600 C 50.959 163.600,55.200 167.894,55.200 168.391 C 55.200 168.616,55.380 168.800,55.600 168.800 C 55.820 168.800,56.000 169.070,56.000 169.400 C 56.000 169.730,56.180 170.000,56.400 170.000 C 56.620 170.000,56.800 170.270,56.800 170.600 C 56.800 170.930,56.980 171.200,57.200 171.200 C 57.420 171.200,57.600 171.470,57.600 171.800 C 57.600 172.130,57.762 172.400,57.960 172.400 C 58.159 172.400,58.654 173.209,59.060 174.199 C 59.467 175.188,59.935 175.998,60.100 175.999 C 60.265 175.999,60.400 176.360,60.400 176.800 C 60.400 177.240,60.580 177.600,60.800 177.600 C 61.020 177.600,61.200 177.879,61.200 178.219 C 61.200 178.560,61.560 179.584,62.000 180.494 C 62.440 181.405,62.800 182.566,62.800 183.075 C 62.800 183.584,62.980 184.000,63.200 184.000 C 63.420 184.000,63.600 184.619,63.600 185.376 C 63.600 186.133,63.780 186.864,64.000 187.000 C 64.220 187.136,64.400 188.036,64.400 189.000 C 64.400 189.964,64.580 190.864,64.800 191.000 C 65.032 191.143,65.200 193.337,65.200 196.224 C 65.200 199.275,65.045 201.200,64.800 201.200 C 64.580 201.200,64.400 202.100,64.400 203.200 C 64.400 204.300,64.220 205.200,64.000 205.200 C 63.780 205.200,63.600 205.652,63.600 206.205 C 63.600 206.758,63.432 207.523,63.226 207.905 C 63.021 208.287,62.617 209.185,62.329 209.900 C 62.040 210.615,61.669 211.200,61.502 211.200 C 61.336 211.200,61.200 211.478,61.200 211.818 C 61.200 212.158,60.795 212.844,60.300 213.342 C 59.805 213.840,58.950 214.820,58.400 215.520 C 57.850 216.220,57.085 216.794,56.700 216.796 C 56.315 216.798,56.000 216.980,56.000 217.200 C 56.000 217.420,55.655 217.600,55.233 217.600 C 54.812 217.600,54.402 217.795,54.322 218.033 C 54.135 218.595,46.656 218.567,46.468 218.004 C 46.394 217.782,46.114 217.600,45.846 217.600 C 45.137 217.600,43.207 216.651,43.203 216.300 C 43.201 216.135,42.932 216.000,42.605 216.000 C 41.334 216.000,31.627 206.366,31.605 205.083 C 31.602 204.909,31.240 204.380,30.800 203.908 C 30.360 203.436,30.000 202.813,30.000 202.525 C 30.000 202.236,29.820 202.000,29.600 202.000 C 29.380 202.000,29.200 201.561,29.200 201.024 C 29.200 200.487,29.020 199.936,28.800 199.800 C 28.580 199.664,28.400 199.203,28.400 198.776 C 28.400 198.349,28.220 198.000,28.000 198.000 C 27.780 198.000,27.600 197.640,27.600 197.200 C 27.600 196.760,27.420 196.400,27.200 196.400 C 26.980 196.400,26.800 195.961,26.800 195.424 C 26.800 194.887,26.620 194.336,26.400 194.200 C 26.180 194.064,26.000 193.438,26.000 192.810 C 26.000 192.181,25.775 191.592,25.500 191.500 C 25.118 191.373,25.000 189.049,25.000 181.687 C 25.000 174.503,25.128 171.913,25.500 171.540 C 25.775 171.265,26.000 170.662,26.000 170.200 C 26.000 169.210,26.869 167.208,27.300 167.203 C 27.465 167.201,27.600 166.930,27.600 166.600 C 27.600 166.270,27.780 166.000,28.000 166.000 C 28.220 166.000,28.400 165.726,28.400 165.391 C 28.400 164.763,32.523 160.400,33.116 160.400 C 33.299 160.400,33.823 160.052,34.279 159.627 C 35.439 158.546,41.927 158.261,42.980 159.245 M365.758 159.661 C 366.194 160.068,366.701 160.400,366.884 160.400 C 367.477 160.400,371.600 164.763,371.600 165.391 C 371.600 165.726,371.780 166.000,372.000 166.000 C 372.220 166.000,372.400 166.270,372.400 166.600 C 372.400 166.930,372.535 167.201,372.700 167.203 C 373.131 167.208,374.000 169.210,374.000 170.200 C 374.000 170.662,374.225 171.265,374.500 171.540 C 374.872 171.913,375.000 174.503,375.000 181.687 C 375.000 189.049,374.882 191.373,374.500 191.500 C 374.225 191.592,374.000 192.181,374.000 192.810 C 374.000 193.438,373.820 194.064,373.600 194.200 C 373.380 194.336,373.200 194.887,373.200 195.424 C 373.200 195.961,373.020 196.400,372.800 196.400 C 372.580 196.400,372.400 196.760,372.400 197.200 C 372.400 197.640,372.220 198.000,372.000 198.000 C 371.780 198.000,371.600 198.349,371.600 198.776 C 371.600 199.203,371.420 199.664,371.200 199.800 C 370.980 199.936,370.800 200.487,370.800 201.024 C 370.800 201.561,370.620 202.000,370.400 202.000 C 370.180 202.000,370.000 202.236,370.000 202.525 C 370.000 202.813,369.640 203.436,369.200 203.908 C 368.760 204.380,368.398 204.909,368.395 205.083 C 368.373 206.366,358.666 216.000,357.395 216.000 C 357.068 216.000,356.799 216.135,356.797 216.300 C 356.793 216.651,354.863 217.600,354.154 217.600 C 353.886 217.600,353.606 217.782,353.532 218.004 C 353.344 218.567,345.865 218.595,345.678 218.033 C 345.598 217.795,345.188 217.600,344.767 217.600 C 344.345 217.600,344.000 217.420,344.000 217.200 C 344.000 216.980,343.685 216.798,343.300 216.796 C 342.915 216.794,342.150 216.220,341.600 215.520 C 341.050 214.820,340.195 213.840,339.700 213.342 C 339.205 212.844,338.800 212.158,338.800 211.818 C 338.800 211.478,338.664 211.200,338.498 211.200 C 338.331 211.200,337.960 210.615,337.671 209.900 C 337.383 209.185,336.979 208.287,336.774 207.905 C 336.568 207.523,336.400 206.758,336.400 206.205 C 336.400 205.652,336.220 205.200,336.000 205.200 C 335.780 205.200,335.600 204.300,335.600 203.200 C 335.600 202.100,335.420 201.200,335.200 201.200 C 334.955 201.200,334.800 199.275,334.800 196.224 C 334.800 193.337,334.968 191.143,335.200 191.000 C 335.420 190.864,335.600 189.964,335.600 189.000 C 335.600 188.036,335.780 187.136,336.000 187.000 C 336.220 186.864,336.400 186.133,336.400 185.376 C 336.400 184.619,336.580 184.000,336.800 184.000 C 337.020 184.000,337.200 183.584,337.200 183.075 C 337.200 182.566,337.560 181.405,338.000 180.494 C 338.440 179.584,338.800 178.560,338.800 178.219 C 338.800 177.879,338.980 177.600,339.200 177.600 C 339.420 177.600,339.600 177.240,339.600 176.800 C 339.600 176.360,339.743 176.000,339.918 176.000 C 340.093 176.000,340.570 175.190,340.978 174.200 C 341.387 173.210,341.873 172.400,342.060 172.400 C 342.247 172.400,342.400 172.130,342.400 171.800 C 342.400 171.470,342.580 171.200,342.800 171.200 C 343.020 171.200,343.200 170.930,343.200 170.600 C 343.200 170.270,343.380 170.000,343.600 170.000 C 343.820 170.000,344.000 169.730,344.000 169.400 C 344.000 169.070,344.180 168.800,344.400 168.800 C 344.620 168.800,344.800 168.616,344.800 168.391 C 344.800 167.894,349.041 163.600,349.532 163.600 C 349.724 163.600,350.446 163.060,351.137 162.400 C 351.828 161.740,352.664 161.200,352.996 161.200 C 353.328 161.200,353.600 161.020,353.600 160.800 C 353.600 160.580,353.960 160.400,354.400 160.400 C 354.840 160.400,355.200 160.220,355.200 160.000 C 355.200 159.780,355.650 159.600,356.200 159.600 C 356.750 159.600,357.200 159.429,357.200 159.221 C 357.200 158.209,364.608 158.590,365.758 159.661 M191.600 176.391 C 191.270 176.609,189.616 176.791,187.924 176.794 C 186.232 176.797,184.736 176.980,184.600 177.200 C 184.464 177.420,183.384 177.600,182.200 177.600 C 181.016 177.600,179.936 177.780,179.800 178.000 C 179.664 178.220,178.854 178.400,178.000 178.400 C 177.146 178.400,176.336 178.580,176.200 178.800 C 176.064 179.020,175.333 179.200,174.576 179.200 C 173.819 179.200,173.200 179.380,173.200 179.600 C 173.200 179.820,172.480 180.000,171.600 180.000 C 170.720 180.000,170.000 180.180,170.000 180.400 C 170.000 180.620,169.460 180.800,168.800 180.800 C 168.140 180.800,167.600 180.980,167.600 181.200 C 167.600 181.420,167.060 181.600,166.400 181.600 C 165.740 181.600,165.200 181.780,165.200 182.000 C 165.200 182.220,164.660 182.400,164.000 182.400 C 163.340 182.400,162.800 182.580,162.800 182.800 C 162.800 183.020,162.476 183.200,162.080 183.200 C 161.186 183.200,159.207 184.094,159.203 184.500 C 159.201 184.665,158.840 184.800,158.400 184.800 C 157.960 184.800,157.600 184.980,157.600 185.200 C 157.600 185.420,157.240 185.600,156.800 185.600 C 156.360 185.600,156.000 185.780,156.000 186.000 C 156.000 186.220,155.561 186.400,155.024 186.400 C 154.487 186.400,153.936 186.580,153.800 186.800 C 153.664 187.020,153.203 187.200,152.776 187.200 C 152.349 187.200,152.000 187.380,152.000 187.600 C 152.000 187.820,151.640 188.000,151.200 188.000 C 150.760 188.000,150.400 188.180,150.400 188.400 C 150.400 188.620,150.040 188.800,149.600 188.800 C 149.160 188.800,148.800 188.980,148.800 189.200 C 148.800 189.420,148.440 189.600,148.000 189.600 C 147.560 189.600,147.200 189.780,147.200 190.000 C 147.200 190.220,146.930 190.400,146.600 190.400 C 146.270 190.400,146.000 190.580,146.000 190.800 C 146.000 191.020,145.730 191.200,145.400 191.200 C 145.070 191.200,144.800 191.380,144.800 191.600 C 144.800 191.820,144.545 192.000,144.232 192.000 C 143.519 192.000,141.206 193.298,141.203 193.700 C 141.201 193.865,140.840 194.000,140.400 194.000 C 139.960 194.000,139.600 194.158,139.600 194.351 C 139.600 194.545,139.060 194.927,138.400 195.200 C 137.740 195.473,137.200 195.855,137.200 196.049 C 137.200 196.242,136.912 196.400,136.560 196.400 C 136.209 196.400,135.417 196.940,134.800 197.600 C 134.183 198.260,133.463 198.800,133.200 198.800 C 132.937 198.800,132.217 199.340,131.600 200.000 C 130.983 200.660,130.308 201.200,130.099 201.200 C 129.890 201.200,129.154 201.740,128.463 202.400 C 127.772 203.060,127.104 203.600,126.978 203.600 C 126.851 203.600,125.871 204.500,124.800 205.600 C 123.729 206.700,122.705 207.602,122.526 207.605 C 121.358 207.623,107.600 221.309,107.600 222.453 C 107.600 222.858,105.790 224.718,104.412 225.728 C 104.057 225.987,103.327 226.830,102.788 227.600 C 102.249 228.370,101.312 229.522,100.704 230.159 C 100.097 230.797,99.600 231.474,99.600 231.663 C 99.600 231.852,99.060 232.572,98.400 233.263 C 97.740 233.954,97.200 234.690,97.200 234.899 C 97.200 235.108,96.660 235.783,96.000 236.400 C 95.340 237.017,94.800 237.809,94.800 238.160 C 94.800 238.512,94.650 238.800,94.468 238.800 C 94.285 238.800,93.880 239.295,93.568 239.900 C 93.255 240.505,92.775 241.238,92.500 241.529 C 92.225 241.819,92.000 242.314,92.000 242.629 C 92.000 242.943,91.820 243.200,91.600 243.200 C 91.380 243.200,91.200 243.470,91.200 243.800 C 91.200 244.130,91.020 244.400,90.800 244.400 C 90.580 244.400,90.400 244.670,90.400 245.000 C 90.400 245.330,90.220 245.600,90.000 245.600 C 89.780 245.600,89.600 245.836,89.600 246.125 C 89.600 246.413,89.240 247.036,88.800 247.508 C 88.360 247.980,88.000 248.562,88.000 248.800 C 88.000 249.038,87.640 249.620,87.200 250.092 C 86.760 250.564,86.400 251.187,86.400 251.475 C 86.400 251.764,86.220 252.000,86.000 252.000 C 85.780 252.000,85.600 252.360,85.600 252.800 C 85.600 253.240,85.420 253.600,85.200 253.600 C 84.980 253.600,84.800 253.960,84.800 254.400 C 84.800 254.840,84.620 255.200,84.400 255.200 C 84.180 255.200,84.000 255.560,84.000 256.000 C 84.000 256.440,83.820 256.800,83.600 256.800 C 83.380 256.800,83.200 257.160,83.200 257.600 C 83.200 258.040,83.020 258.400,82.800 258.400 C 82.580 258.400,82.400 258.670,82.400 259.000 C 82.400 259.330,82.220 259.600,82.000 259.600 C 81.780 259.600,81.600 259.870,81.600 260.200 C 81.600 260.530,81.465 260.801,81.300 260.803 C 80.894 260.807,80.000 262.786,80.000 263.680 C 80.000 264.076,79.820 264.400,79.600 264.400 C 79.380 264.400,79.200 264.760,79.200 265.200 C 79.200 265.640,79.020 266.000,78.800 266.000 C 78.580 266.000,78.400 266.236,78.400 266.525 C 78.400 266.814,78.040 267.795,77.600 268.706 C 77.160 269.616,76.800 270.640,76.800 270.981 C 76.800 271.321,76.641 271.600,76.447 271.600 C 76.252 271.600,76.001 272.005,75.887 272.500 C 75.630 273.622,74.806 275.973,74.346 276.895 C 74.156 277.277,74.000 277.952,74.000 278.395 C 74.000 278.838,73.820 279.200,73.600 279.200 C 73.380 279.200,73.200 279.740,73.200 280.400 C 73.200 281.060,73.020 281.600,72.800 281.600 C 72.580 281.600,72.400 282.140,72.400 282.800 C 72.400 283.460,72.220 284.000,72.000 284.000 C 71.780 284.000,71.600 284.540,71.600 285.200 C 71.600 285.860,71.420 286.400,71.200 286.400 C 70.980 286.400,70.800 286.940,70.800 287.600 C 70.800 288.260,70.620 288.800,70.400 288.800 C 70.180 288.800,70.000 289.520,70.000 290.400 C 70.000 291.280,69.820 292.000,69.600 292.000 C 69.380 292.000,69.200 292.619,69.200 293.376 C 69.200 294.133,69.020 294.864,68.800 295.000 C 68.580 295.136,68.400 295.867,68.400 296.624 C 68.400 297.381,68.220 298.000,68.000 298.000 C 67.780 298.000,67.600 298.900,67.600 300.000 C 67.600 301.100,67.420 302.000,67.200 302.000 C 66.978 302.000,66.800 303.059,66.800 304.376 C 66.800 305.683,66.620 306.864,66.400 307.000 C 66.180 307.136,66.000 308.306,66.000 309.600 C 66.000 310.894,65.820 312.064,65.600 312.200 C 65.361 312.348,65.200 314.937,65.200 318.624 C 65.200 322.894,65.063 324.800,64.755 324.800 C 64.458 324.800,64.408 325.236,64.603 326.100 C 64.765 326.815,64.976 329.515,65.072 332.100 C 65.168 334.685,65.416 336.800,65.624 336.800 C 65.831 336.800,66.000 337.599,66.000 338.576 C 66.000 339.553,66.180 340.464,66.400 340.600 C 66.620 340.736,66.800 341.377,66.800 342.024 C 66.800 342.671,66.980 343.200,67.200 343.200 C 67.420 343.200,67.600 343.740,67.600 344.400 C 67.600 345.060,67.780 345.600,68.000 345.600 C 68.220 345.600,68.400 346.140,68.400 346.800 C 68.400 347.460,68.580 348.000,68.800 348.000 C 69.020 348.000,69.200 348.360,69.200 348.800 C 69.200 349.240,69.380 349.600,69.600 349.600 C 69.820 349.600,70.000 349.960,70.000 350.400 C 70.000 350.840,70.180 351.200,70.400 351.200 C 70.620 351.200,70.800 351.520,70.800 351.912 C 70.800 352.303,71.160 352.883,71.600 353.200 C 72.040 353.517,72.400 354.057,72.400 354.400 C 72.400 354.743,72.760 355.283,73.200 355.600 C 73.640 355.917,74.000 356.316,74.000 356.485 C 74.000 357.172,79.387 362.800,80.044 362.800 C 80.244 362.800,80.972 363.340,81.663 364.000 C 82.354 364.660,83.162 365.200,83.459 365.200 C 83.757 365.200,84.000 365.380,84.000 365.600 C 84.000 365.820,84.360 366.000,84.800 366.000 C 85.240 366.000,85.600 366.180,85.600 366.400 C 85.600 366.620,85.960 366.800,86.400 366.800 C 86.840 366.800,87.200 366.980,87.200 367.200 C 87.200 367.420,87.560 367.600,88.000 367.600 C 88.440 367.600,88.800 367.780,88.800 368.000 C 88.800 368.220,89.160 368.400,89.600 368.400 C 90.040 368.400,90.400 368.580,90.400 368.800 C 90.400 369.020,90.940 369.200,91.600 369.200 C 92.260 369.200,92.800 369.380,92.800 369.600 C 92.800 369.820,93.239 370.000,93.776 370.000 C 94.313 370.000,94.864 370.180,95.000 370.400 C 95.136 370.620,96.036 370.800,97.000 370.800 C 97.964 370.800,98.864 370.980,99.000 371.200 C 99.136 371.420,100.101 371.600,101.144 371.600 C 102.187 371.600,103.211 371.767,103.420 371.971 C 103.732 372.275,111.709 372.804,115.600 372.778 C 121.590 372.739,130.000 372.268,130.000 371.973 C 130.000 371.768,131.519 371.600,133.376 371.600 C 135.233 371.600,136.864 371.420,137.000 371.200 C 137.136 370.980,138.281 370.800,139.544 370.800 C 140.807 370.800,142.011 370.637,142.220 370.437 C 142.429 370.237,143.590 369.964,144.800 369.830 C 150.310 369.220,151.023 369.104,151.380 368.763 C 151.589 368.563,152.714 368.400,153.880 368.400 C 155.046 368.400,156.000 368.220,156.000 368.000 C 156.000 367.780,156.990 367.600,158.200 367.600 C 159.410 367.600,160.400 367.420,160.400 367.200 C 160.400 366.978,161.467 366.800,162.800 366.800 C 164.133 366.800,165.200 366.622,165.200 366.400 C 165.200 366.178,166.267 366.000,167.600 366.000 C 168.933 366.000,170.000 365.822,170.000 365.600 C 170.000 365.380,170.990 365.200,172.200 365.200 C 173.410 365.200,174.400 365.020,174.400 364.800 C 174.400 364.580,175.379 364.400,176.576 364.400 C 177.773 364.400,178.864 364.220,179.000 364.000 C 179.136 363.780,180.126 363.600,181.200 363.600 C 182.274 363.600,183.264 363.420,183.400 363.200 C 183.536 362.980,185.077 362.800,186.824 362.800 C 188.675 362.800,190.000 362.633,190.000 362.400 C 190.000 362.144,193.467 362.000,199.600 362.000 C 205.733 362.000,209.200 362.144,209.200 362.400 C 209.200 362.631,210.467 362.800,212.200 362.800 C 213.933 362.800,215.200 362.969,215.200 363.200 C 215.200 363.422,216.267 363.600,217.600 363.600 C 218.933 363.600,220.000 363.778,220.000 364.000 C 220.000 364.220,220.889 364.400,221.976 364.400 C 223.063 364.400,224.064 364.580,224.200 364.800 C 224.336 365.020,225.326 365.200,226.400 365.200 C 227.474 365.200,228.464 365.380,228.600 365.600 C 228.736 365.820,229.827 366.000,231.024 366.000 C 232.221 366.000,233.200 366.180,233.200 366.400 C 233.200 366.622,234.267 366.800,235.600 366.800 C 236.933 366.800,238.000 366.978,238.000 367.200 C 238.000 367.420,238.889 367.600,239.976 367.600 C 241.063 367.600,242.064 367.780,242.200 368.000 C 242.336 368.220,243.326 368.400,244.400 368.400 C 245.474 368.400,246.464 368.580,246.600 368.800 C 246.736 369.020,247.816 369.200,249.000 369.200 C 250.184 369.200,251.264 369.380,251.400 369.600 C 251.536 369.820,252.627 370.000,253.824 370.000 C 255.021 370.000,256.000 370.180,256.000 370.400 C 256.000 370.628,257.192 370.800,258.776 370.800 C 260.303 370.800,261.664 370.980,261.800 371.200 C 261.936 371.420,263.351 371.600,264.944 371.600 C 266.537 371.600,268.028 371.788,268.257 372.017 C 268.827 372.587,294.777 372.583,295.347 372.013 C 295.574 371.786,296.804 371.600,298.080 371.600 C 299.360 371.600,300.400 371.421,300.400 371.200 C 300.400 370.980,301.120 370.800,302.000 370.800 C 302.880 370.800,303.600 370.620,303.600 370.400 C 303.600 370.180,304.230 370.000,305.000 370.000 C 305.770 370.000,306.400 369.820,306.400 369.600 C 306.400 369.380,306.940 369.200,307.600 369.200 C 308.260 369.200,308.800 369.020,308.800 368.800 C 308.800 368.580,309.160 368.400,309.600 368.400 C 310.040 368.400,310.400 368.243,310.400 368.050 C 310.400 367.858,310.918 367.596,311.552 367.470 C 312.185 367.343,312.982 366.960,313.323 366.620 C 313.664 366.279,314.226 366.000,314.571 366.000 C 314.917 366.000,315.200 365.820,315.200 365.600 C 315.200 365.380,315.520 365.200,315.912 365.200 C 316.303 365.200,316.883 364.840,317.200 364.400 C 317.517 363.960,318.012 363.600,318.299 363.600 C 318.586 363.600,319.611 362.835,320.576 361.900 C 321.541 360.965,322.841 359.724,323.465 359.142 C 325.201 357.525,326.800 355.631,326.800 355.193 C 326.800 354.977,326.980 354.800,327.200 354.800 C 327.420 354.800,327.600 354.530,327.600 354.200 C 327.600 353.870,327.780 353.600,328.000 353.600 C 328.220 353.600,328.400 353.280,328.400 352.888 C 328.400 352.497,328.760 351.917,329.200 351.600 C 329.640 351.283,330.000 350.799,330.000 350.524 C 330.000 350.249,330.360 349.383,330.800 348.600 C 331.240 347.817,331.600 346.821,331.600 346.388 C 331.600 345.955,331.780 345.600,332.000 345.600 C 332.220 345.600,332.400 345.060,332.400 344.400 C 332.400 343.740,332.580 343.200,332.800 343.200 C 333.020 343.200,333.200 342.581,333.200 341.824 C 333.200 341.067,333.380 340.336,333.600 340.200 C 333.820 340.064,334.000 339.153,334.000 338.176 C 334.000 337.199,334.180 336.400,334.400 336.400 C 334.643 336.400,334.800 334.608,334.800 331.824 C 334.800 329.204,334.971 327.142,335.200 327.000 C 335.420 326.864,335.600 326.313,335.600 325.776 C 335.600 325.239,335.420 324.800,335.200 324.800 C 334.951 324.800,334.800 322.475,334.800 318.624 C 334.800 314.937,334.639 312.348,334.400 312.200 C 334.180 312.064,334.000 310.894,334.000 309.600 C 334.000 308.306,333.820 307.136,333.600 307.000 C 333.380 306.864,333.200 305.683,333.200 304.376 C 333.200 303.059,333.022 302.000,332.800 302.000 C 332.580 302.000,332.400 301.100,332.400 300.000 C 332.400 298.900,332.220 298.000,332.000 298.000 C 331.780 298.000,331.600 297.381,331.600 296.624 C 331.600 295.867,331.420 295.136,331.200 295.000 C 330.980 294.864,330.800 294.133,330.800 293.376 C 330.800 292.619,330.620 292.000,330.400 292.000 C 330.180 292.000,330.000 291.280,330.000 290.400 C 330.000 289.520,329.820 288.800,329.600 288.800 C 329.380 288.800,329.200 288.260,329.200 287.600 C 329.200 286.940,329.020 286.400,328.800 286.400 C 328.580 286.400,328.400 285.860,328.400 285.200 C 328.400 284.540,328.220 284.000,328.000 284.000 C 327.780 284.000,327.600 283.460,327.600 282.800 C 327.600 282.140,327.420 281.600,327.200 281.600 C 326.980 281.600,326.800 281.060,326.800 280.400 C 326.800 279.740,326.620 279.200,326.400 279.200 C 326.180 279.200,326.000 278.761,326.000 278.224 C 326.000 277.687,325.820 277.136,325.600 277.000 C 325.380 276.864,325.199 276.358,325.198 275.876 C 325.196 275.394,324.926 274.484,324.598 273.854 C 324.269 273.224,324.000 272.459,324.000 272.154 C 324.000 271.849,323.820 271.600,323.600 271.600 C 323.380 271.600,323.200 271.321,323.200 270.981 C 323.200 270.640,322.840 269.616,322.400 268.706 C 321.960 267.795,321.600 266.814,321.600 266.525 C 321.600 266.236,321.420 266.000,321.200 266.000 C 320.980 266.000,320.800 265.640,320.800 265.200 C 320.800 264.760,320.620 264.400,320.400 264.400 C 320.180 264.400,320.000 264.076,320.000 263.680 C 320.000 262.786,319.106 260.807,318.700 260.803 C 318.535 260.801,318.400 260.530,318.400 260.200 C 318.400 259.870,318.220 259.600,318.000 259.600 C 317.780 259.600,317.600 259.330,317.600 259.000 C 317.600 258.670,317.420 258.400,317.200 258.400 C 316.980 258.400,316.800 258.040,316.800 257.600 C 316.800 257.160,316.620 256.800,316.400 256.800 C 316.180 256.800,316.000 256.440,316.000 256.000 C 316.000 255.560,315.820 255.200,315.600 255.200 C 315.380 255.200,315.200 254.840,315.200 254.400 C 315.200 253.960,315.020 253.600,314.800 253.600 C 314.580 253.600,314.400 253.240,314.400 252.800 C 314.400 252.360,314.220 252.000,314.000 252.000 C 313.780 252.000,313.600 251.764,313.600 251.475 C 313.600 251.187,313.240 250.564,312.800 250.092 C 312.360 249.620,312.000 249.038,312.000 248.800 C 312.000 248.562,311.640 247.980,311.200 247.508 C 310.760 247.036,310.400 246.413,310.400 246.125 C 310.400 245.836,310.220 245.600,310.000 245.600 C 309.780 245.600,309.600 245.330,309.600 245.000 C 309.600 244.670,309.465 244.398,309.300 244.395 C 309.135 244.393,308.656 243.673,308.236 242.795 C 307.815 241.918,307.320 241.200,307.136 241.200 C 306.951 241.200,306.800 240.964,306.800 240.675 C 306.800 240.387,306.440 239.764,306.000 239.292 C 305.560 238.820,305.200 238.228,305.200 237.977 C 305.200 237.726,304.660 237.017,304.000 236.400 C 303.340 235.783,302.800 235.108,302.800 234.899 C 302.800 234.690,302.260 233.954,301.600 233.263 C 300.940 232.572,300.400 231.852,300.400 231.663 C 300.400 231.474,299.903 230.797,299.296 230.159 C 298.688 229.522,297.751 228.370,297.212 227.600 C 296.673 226.830,295.943 225.987,295.588 225.728 C 294.210 224.718,292.400 222.858,292.400 222.453 C 292.400 221.298,278.640 207.622,277.460 207.605 C 277.019 207.598,274.800 205.224,274.800 204.758 C 274.800 204.561,274.530 204.400,274.200 204.400 C 273.870 204.400,273.600 204.220,273.600 204.000 C 273.600 203.780,273.418 203.600,273.196 203.600 C 272.974 203.600,272.228 203.060,271.537 202.400 C 270.846 201.740,270.110 201.200,269.901 201.200 C 269.692 201.200,269.017 200.660,268.400 200.000 C 267.783 199.340,267.063 198.800,266.800 198.800 C 266.537 198.800,265.817 198.260,265.200 197.600 C 264.583 196.940,263.791 196.400,263.440 196.400 C 263.088 196.400,262.800 196.242,262.800 196.049 C 262.800 195.855,262.260 195.473,261.600 195.200 C 260.940 194.927,260.400 194.545,260.400 194.351 C 260.400 194.158,260.040 194.000,259.600 194.000 C 259.160 194.000,258.799 193.865,258.797 193.700 C 258.794 193.298,256.481 192.000,255.768 192.000 C 255.455 192.000,255.200 191.820,255.200 191.600 C 255.200 191.380,254.930 191.200,254.600 191.200 C 254.270 191.200,254.000 191.020,254.000 190.800 C 254.000 190.580,253.730 190.400,253.400 190.400 C 253.070 190.400,252.800 190.220,252.800 190.000 C 252.800 189.780,252.440 189.600,252.000 189.600 C 251.560 189.600,251.200 189.420,251.200 189.200 C 251.200 188.980,250.840 188.800,250.400 188.800 C 249.960 188.800,249.600 188.620,249.600 188.400 C 249.600 188.180,249.240 188.000,248.800 188.000 C 248.360 188.000,248.000 187.820,248.000 187.600 C 248.000 187.380,247.651 187.200,247.224 187.200 C 246.797 187.200,246.336 187.020,246.200 186.800 C 246.064 186.580,245.513 186.400,244.976 186.400 C 244.439 186.400,244.000 186.220,244.000 186.000 C 244.000 185.780,243.655 185.600,243.233 185.600 C 242.812 185.600,242.407 185.465,242.333 185.300 C 242.112 184.801,238.778 183.200,237.962 183.200 C 237.543 183.200,237.200 183.020,237.200 182.800 C 237.200 182.580,236.660 182.400,236.000 182.400 C 235.340 182.400,234.800 182.220,234.800 182.000 C 234.800 181.780,234.260 181.600,233.600 181.600 C 232.940 181.600,232.400 181.420,232.400 181.200 C 232.400 180.980,231.860 180.800,231.200 180.800 C 230.540 180.800,230.000 180.620,230.000 180.400 C 230.000 180.180,229.280 180.000,228.400 180.000 C 227.520 180.000,226.800 179.820,226.800 179.600 C 226.800 179.380,226.181 179.200,225.424 179.200 C 224.667 179.200,223.936 179.020,223.800 178.800 C 223.664 178.580,222.854 178.400,222.000 178.400 C 221.146 178.400,220.336 178.220,220.200 178.000 C 220.064 177.780,219.009 177.600,217.856 177.600 C 216.703 177.600,215.589 177.433,215.380 177.229 C 214.573 176.441,192.691 175.670,191.600 176.391 M205.800 201.600 C 205.936 201.820,207.376 202.000,209.000 202.000 C 210.624 202.000,212.064 202.180,212.200 202.400 C 212.336 202.620,213.236 202.800,214.200 202.800 C 215.164 202.800,216.064 202.980,216.200 203.200 C 216.336 203.420,217.236 203.600,218.200 203.600 C 219.164 203.600,220.064 203.780,220.200 204.000 C 220.336 204.220,220.876 204.400,221.400 204.400 C 221.924 204.400,222.464 204.580,222.600 204.800 C 222.736 205.020,223.276 205.200,223.800 205.200 C 224.324 205.200,224.864 205.380,225.000 205.600 C 225.136 205.820,225.651 206.000,226.144 206.000 C 226.637 206.000,227.211 206.149,227.420 206.330 C 227.629 206.512,228.610 206.911,229.600 207.217 C 230.590 207.524,231.850 208.004,232.400 208.285 C 232.950 208.565,233.715 208.796,234.100 208.798 C 234.485 208.799,234.800 208.980,234.800 209.200 C 234.800 209.420,235.160 209.600,235.600 209.600 C 236.040 209.600,236.400 209.780,236.400 210.000 C 236.400 210.220,236.760 210.400,237.200 210.400 C 237.640 210.400,238.000 210.580,238.000 210.800 C 238.000 211.020,238.360 211.200,238.800 211.200 C 239.240 211.200,239.600 211.380,239.600 211.600 C 239.600 211.820,239.960 212.000,240.400 212.000 C 240.840 212.000,241.200 212.180,241.200 212.400 C 241.200 212.620,241.470 212.800,241.800 212.800 C 242.130 212.800,242.400 212.980,242.400 213.200 C 242.400 213.420,242.670 213.600,243.000 213.600 C 243.330 213.600,243.600 213.780,243.600 214.000 C 243.600 214.220,243.870 214.400,244.200 214.400 C 244.530 214.400,244.800 214.580,244.800 214.800 C 244.800 215.020,245.120 215.200,245.512 215.200 C 245.903 215.200,246.483 215.560,246.800 216.000 C 247.117 216.440,247.697 216.800,248.088 216.800 C 248.480 216.800,248.800 216.968,248.800 217.173 C 248.800 217.378,249.146 217.656,249.568 217.790 C 249.991 217.924,251.016 218.656,251.846 219.417 C 252.677 220.178,253.509 220.800,253.696 220.800 C 253.883 220.800,254.486 221.250,255.036 221.800 C 255.586 222.350,256.189 222.800,256.376 222.800 C 256.682 222.800,257.696 223.627,260.286 225.991 C 260.773 226.436,261.269 226.800,261.389 226.800 C 261.656 226.800,273.200 238.317,273.200 238.583 C 273.200 238.798,275.154 241.028,277.100 243.033 C 277.815 243.770,278.400 244.577,278.400 244.826 C 278.400 245.075,278.940 245.783,279.600 246.400 C 280.260 247.017,280.800 247.737,280.800 248.000 C 280.800 248.263,281.340 248.983,282.000 249.600 C 282.660 250.217,283.200 250.874,283.201 251.060 C 283.201 251.247,283.741 252.030,284.400 252.800 C 285.059 253.570,285.599 254.425,285.599 254.700 C 285.600 254.975,285.780 255.200,286.000 255.200 C 286.220 255.200,286.400 255.470,286.400 255.800 C 286.400 256.130,286.580 256.400,286.800 256.400 C 287.020 256.400,287.200 256.670,287.200 257.000 C 287.200 257.330,287.380 257.600,287.600 257.600 C 287.820 257.600,288.000 257.830,288.000 258.112 C 288.000 258.393,288.360 258.883,288.800 259.200 C 289.240 259.517,289.600 260.057,289.600 260.400 C 289.600 260.743,289.960 261.283,290.400 261.600 C 290.840 261.917,291.200 262.395,291.200 262.661 C 291.200 263.316,294.856 270.565,295.271 270.733 C 295.452 270.807,295.600 271.197,295.600 271.600 C 295.600 272.003,295.743 272.393,295.919 272.467 C 296.349 272.647,298.000 276.239,298.000 276.996 C 298.000 277.328,298.180 277.600,298.400 277.600 C 298.620 277.600,298.800 277.960,298.800 278.400 C 298.800 278.840,298.980 279.200,299.200 279.200 C 299.420 279.200,299.600 279.560,299.600 280.000 C 299.600 280.440,299.780 280.800,300.000 280.800 C 300.220 280.800,300.400 281.149,300.400 281.576 C 300.400 282.003,300.580 282.464,300.800 282.600 C 301.020 282.736,301.200 283.287,301.200 283.824 C 301.200 284.361,301.380 284.800,301.600 284.800 C 301.820 284.800,302.000 285.340,302.000 286.000 C 302.000 286.660,302.180 287.200,302.400 287.200 C 302.620 287.200,302.800 287.650,302.800 288.200 C 302.800 288.750,302.980 289.200,303.200 289.200 C 303.420 289.200,303.600 289.639,303.600 290.176 C 303.600 290.713,303.780 291.264,304.000 291.400 C 304.220 291.536,304.400 291.997,304.400 292.424 C 304.400 292.851,304.580 293.200,304.800 293.200 C 305.020 293.200,305.200 293.920,305.200 294.800 C 305.200 295.680,305.380 296.400,305.600 296.400 C 305.820 296.400,306.000 297.019,306.000 297.776 C 306.000 298.533,306.180 299.264,306.400 299.400 C 306.620 299.536,306.800 300.177,306.800 300.824 C 306.800 301.471,306.980 302.000,307.200 302.000 C 307.420 302.000,307.600 302.720,307.600 303.600 C 307.600 304.480,307.750 305.200,307.932 305.200 C 308.398 305.200,309.704 318.214,309.999 325.800 C 310.108 328.579,308.497 338.000,307.914 338.000 C 307.741 338.000,307.600 338.284,307.600 338.631 C 307.600 339.594,302.838 344.000,301.797 344.000 C 301.469 344.000,301.200 344.180,301.200 344.400 C 301.200 344.620,300.840 344.800,300.400 344.800 C 299.960 344.800,299.600 344.980,299.600 345.200 C 299.600 345.420,298.880 345.600,298.000 345.600 C 297.120 345.600,296.400 345.780,296.400 346.000 C 296.400 346.220,295.781 346.400,295.024 346.400 C 294.267 346.400,293.536 346.580,293.400 346.800 C 293.263 347.021,291.463 347.200,289.376 347.200 C 287.125 347.200,285.600 347.362,285.600 347.600 C 285.600 347.820,285.071 348.000,284.424 348.000 C 283.777 348.000,283.136 347.820,283.000 347.600 C 282.853 347.361,280.270 347.200,276.600 347.200 C 272.930 347.200,270.347 347.039,270.200 346.800 C 270.064 346.580,268.523 346.400,266.776 346.400 C 264.925 346.400,263.600 346.233,263.600 346.000 C 263.600 345.771,262.400 345.600,260.800 345.600 C 259.200 345.600,258.000 345.429,258.000 345.200 C 258.000 344.980,257.136 344.800,256.080 344.800 C 255.024 344.800,253.989 344.637,253.780 344.437 C 253.571 344.237,252.500 343.975,251.400 343.854 C 250.300 343.734,248.320 343.458,247.000 343.241 C 238.760 341.887,236.332 341.527,234.100 341.329 C 232.725 341.207,231.600 340.948,231.600 340.753 C 231.600 340.559,230.520 340.400,229.200 340.400 C 227.867 340.400,226.800 340.222,226.800 340.000 C 226.800 339.780,225.810 339.600,224.600 339.600 C 223.390 339.600,222.400 339.420,222.400 339.200 C 222.400 338.978,221.333 338.800,220.000 338.800 C 218.667 338.800,217.600 338.622,217.600 338.400 C 217.600 338.167,216.267 338.000,214.400 338.000 C 212.533 338.000,211.200 337.833,211.200 337.600 C 211.200 337.343,207.067 337.200,199.600 337.200 C 192.133 337.200,188.000 337.343,188.000 337.600 C 188.000 337.835,186.600 338.000,184.600 338.000 C 182.600 338.000,181.200 338.165,181.200 338.400 C 181.200 338.622,180.141 338.800,178.824 338.800 C 177.517 338.800,176.336 338.980,176.200 339.200 C 176.064 339.420,174.973 339.600,173.776 339.600 C 172.579 339.600,171.600 339.780,171.600 340.000 C 171.600 340.222,170.533 340.400,169.200 340.400 C 167.880 340.400,166.800 340.564,166.800 340.764 C 166.800 340.965,165.765 341.211,164.500 341.311 C 160.400 341.636,154.618 342.470,153.905 342.840 C 153.523 343.038,152.319 343.200,151.229 343.200 C 150.139 343.200,149.136 343.380,149.000 343.600 C 148.864 343.820,147.899 344.000,146.856 344.000 C 145.813 344.000,144.789 344.163,144.580 344.363 C 144.371 344.563,143.300 344.828,142.200 344.952 C 141.100 345.076,138.850 345.373,137.200 345.612 C 135.550 345.850,132.805 346.139,131.100 346.253 C 129.395 346.367,128.000 346.627,128.000 346.830 C 128.000 347.041,125.202 347.200,121.480 347.200 C 116.813 347.200,114.809 347.342,114.430 347.700 C 114.006 348.100,113.863 348.100,113.717 347.700 C 113.588 347.349,112.420 347.200,109.790 347.200 C 107.726 347.200,105.936 347.021,105.800 346.800 C 105.664 346.580,104.933 346.400,104.176 346.400 C 103.419 346.400,102.800 346.220,102.800 346.000 C 102.800 345.780,102.348 345.600,101.795 345.600 C 101.242 345.600,100.387 345.392,99.895 345.138 C 99.403 344.883,98.730 344.551,98.400 344.400 C 97.418 343.950,95.864 343.028,95.364 342.600 C 95.108 342.380,94.516 341.935,94.049 341.612 C 93.582 341.288,93.200 340.769,93.200 340.459 C 93.200 340.148,92.863 339.601,92.451 339.244 C 91.987 338.842,91.589 337.758,91.406 336.397 C 91.243 335.189,90.966 334.020,90.790 333.800 C 90.495 333.432,89.995 328.337,90.025 326.000 C 90.086 321.168,90.512 314.545,90.783 314.212 C 90.967 313.985,91.248 311.865,91.407 309.500 C 91.566 307.135,91.854 305.200,92.048 305.200 C 92.242 305.200,92.400 304.480,92.400 303.600 C 92.400 302.720,92.580 302.000,92.800 302.000 C 93.020 302.000,93.200 301.471,93.200 300.824 C 93.200 300.177,93.380 299.536,93.600 299.400 C 93.820 299.264,94.000 298.533,94.000 297.776 C 94.000 297.019,94.180 296.400,94.400 296.400 C 94.620 296.400,94.800 295.680,94.800 294.800 C 94.800 293.920,94.980 293.200,95.200 293.200 C 95.420 293.200,95.600 292.851,95.600 292.424 C 95.600 291.997,95.780 291.536,96.000 291.400 C 96.220 291.264,96.400 290.713,96.400 290.176 C 96.400 289.639,96.580 289.200,96.800 289.200 C 97.020 289.200,97.200 288.750,97.200 288.200 C 97.200 287.650,97.380 287.200,97.600 287.200 C 97.820 287.200,98.000 286.660,98.000 286.000 C 98.000 285.340,98.180 284.800,98.400 284.800 C 98.620 284.800,98.800 284.361,98.800 283.824 C 98.800 283.287,98.980 282.736,99.200 282.600 C 99.420 282.464,99.600 282.003,99.600 281.576 C 99.600 281.149,99.780 280.800,100.000 280.800 C 100.220 280.800,100.400 280.440,100.400 280.000 C 100.400 279.560,100.580 279.200,100.800 279.200 C 101.020 279.200,101.200 278.840,101.200 278.400 C 101.200 277.960,101.380 277.600,101.600 277.600 C 101.820 277.600,102.000 277.328,102.000 276.996 C 102.000 276.239,103.651 272.647,104.081 272.467 C 104.257 272.393,104.400 271.988,104.400 271.567 C 104.400 271.145,104.580 270.800,104.800 270.800 C 105.020 270.800,105.200 270.645,105.200 270.455 C 105.200 270.266,105.925 268.791,106.812 267.179 C 107.698 265.566,108.537 263.787,108.676 263.224 C 108.814 262.661,109.259 261.909,109.664 261.553 C 110.069 261.197,110.400 260.652,110.400 260.341 C 110.400 260.031,110.760 259.517,111.200 259.200 C 111.640 258.883,112.000 258.393,112.000 258.112 C 112.000 257.830,112.180 257.600,112.400 257.600 C 112.620 257.600,112.800 257.330,112.800 257.000 C 112.800 256.670,112.980 256.400,113.200 256.400 C 113.420 256.400,113.600 256.130,113.600 255.800 C 113.600 255.470,113.780 255.200,114.000 255.200 C 114.220 255.200,114.400 254.975,114.401 254.700 C 114.401 254.425,114.941 253.570,115.600 252.800 C 116.259 252.030,116.799 251.247,116.799 251.060 C 116.800 250.874,117.340 250.217,118.000 249.600 C 118.660 248.983,119.200 248.263,119.200 248.000 C 119.200 247.737,119.740 247.017,120.400 246.400 C 121.060 245.783,121.600 245.075,121.600 244.826 C 121.600 244.577,122.185 243.770,122.900 243.033 C 124.846 241.028,126.800 238.798,126.800 238.583 C 126.800 238.317,138.344 226.800,138.611 226.800 C 138.731 226.800,139.227 226.436,139.714 225.991 C 142.271 223.657,143.315 222.800,143.600 222.800 C 143.773 222.800,144.493 222.260,145.200 221.600 C 145.907 220.940,146.623 220.400,146.792 220.400 C 146.961 220.400,147.787 219.770,148.628 219.000 C 149.469 218.230,150.391 217.600,150.678 217.600 C 150.965 217.600,151.200 217.420,151.200 217.200 C 151.200 216.980,151.520 216.800,151.912 216.800 C 152.303 216.800,152.883 216.440,153.200 216.000 C 153.517 215.560,154.097 215.200,154.488 215.200 C 154.880 215.200,155.200 215.020,155.200 214.800 C 155.200 214.580,155.470 214.400,155.800 214.400 C 156.130 214.400,156.400 214.220,156.400 214.000 C 156.400 213.780,156.670 213.600,157.000 213.600 C 157.330 213.600,157.600 213.420,157.600 213.200 C 157.600 212.980,157.870 212.800,158.200 212.800 C 158.530 212.800,158.800 212.620,158.800 212.400 C 158.800 212.180,159.160 212.000,159.600 212.000 C 160.040 212.000,160.400 211.820,160.400 211.600 C 160.400 211.380,160.760 211.200,161.200 211.200 C 161.640 211.200,162.000 211.020,162.000 210.800 C 162.000 210.580,162.360 210.400,162.800 210.400 C 163.240 210.400,163.600 210.220,163.600 210.000 C 163.600 209.780,163.960 209.600,164.400 209.600 C 164.840 209.600,165.200 209.436,165.200 209.235 C 165.200 209.034,165.920 208.749,166.800 208.600 C 167.680 208.451,168.400 208.198,168.400 208.037 C 168.400 207.876,169.311 207.496,170.425 207.193 C 171.539 206.890,172.540 206.497,172.649 206.321 C 172.758 206.144,173.276 206.000,173.800 206.000 C 174.324 206.000,174.864 205.820,175.000 205.600 C 175.136 205.380,175.676 205.200,176.200 205.200 C 176.724 205.200,177.264 205.020,177.400 204.800 C 177.536 204.580,178.076 204.400,178.600 204.400 C 179.124 204.400,179.664 204.220,179.800 204.000 C 179.936 203.780,180.836 203.600,181.800 203.600 C 182.764 203.600,183.664 203.420,183.800 203.200 C 183.936 202.980,184.836 202.800,185.800 202.800 C 186.764 202.800,187.664 202.620,187.800 202.400 C 187.936 202.180,189.376 202.000,191.000 202.000 C 192.624 202.000,194.064 201.820,194.200 201.600 C 194.346 201.364,196.730 201.200,200.000 201.200 C 203.270 201.200,205.654 201.364,205.800 201.600 " stroke="none" fill="#040404" fill-rule="evenodd"></path><path id="path1" d="" stroke="none" fill="#080404" fill-rule="evenodd"></path><path id="path2" d="" stroke="none" fill="#080404" fill-rule="evenodd"></path><path id="path3" d="" stroke="none" fill="#080404" fill-rule="evenodd"></path><path id="path4" d="" stroke="none" fill="#080404" fill-rule="evenodd"></path></g></svg>