<svg xmlns="http://www.w3.org/2000/svg" width="41.461" height="24.359" viewBox="0 0 41.461 24.359"><defs><style>.a{fill:#77aeaa;}.b{fill:none;stroke:#fff;stroke-linecap:round;stroke-width:2px;}</style></defs><g transform="translate(0 -96.512)"><g transform="translate(0 96.512)"><path class="a" d="M23.452,96.512H4.536A4.55,4.55,0,0,0,0,101.048v15.287a4.55,4.55,0,0,0,4.536,4.536H23.452a4.55,4.55,0,0,0,4.536-4.536V101.048A4.52,4.52,0,0,0,23.452,96.512Z" transform="translate(0 -96.512)"/></g><g transform="translate(30.256 98.934)"><g transform="translate(0 0)"><path class="a" d="M349.352,123.92a2.31,2.31,0,0,0-.771.318L341.5,128.32v10.524l7.122,4.083a2.7,2.7,0,0,0,3.72-1,2.771,2.771,0,0,0,.363-1.361V126.551A2.73,2.73,0,0,0,349.352,123.92Z" transform="translate(-341.504 -123.847)"/></g></g><line class="b" x2="12" transform="translate(7.994 108.692)"/><line class="b" x2="12" transform="translate(13.994 102.692) rotate(90)"/></g></svg>